%TF.GenerationSoftware,KiCad,Pcbnew,8.0.5*%
%TF.CreationDate,2024-09-29T22:12:38-04:00*%
%TF.ProjectId,BREAD_Slice,42524541-445f-4536-9c69-63652e6b6963,rev?*%
%TF.SameCoordinates,PX74eba40PY8552dc0*%
%TF.FileFunction,Legend,Bot*%
%TF.FilePolarity,Positive*%
%FSLAX46Y46*%
G04 Gerber Fmt 4.6, Leading zero omitted, Abs format (unit mm)*
G04 Created by KiCad (PCBNEW 8.0.5) date 2024-09-29 22:12:38*
%MOMM*%
%LPD*%
G01*
G04 APERTURE LIST*
%ADD10C,0.120000*%
%ADD11C,0.250000*%
%ADD12C,0.150000*%
G04 APERTURE END LIST*
D10*
X20550000Y97750000D02*
X21870000Y97750000D01*
X22350000Y97750000D02*
X23670000Y97750000D01*
X24150000Y97750000D02*
X25470000Y97750000D01*
X25950000Y97750000D02*
X27270000Y97750000D01*
X27750000Y97750000D02*
X29070000Y97750000D01*
X29550000Y97750000D02*
X30870000Y97750000D01*
X31350000Y97750000D02*
X32670000Y97750000D01*
X33150000Y97750000D02*
X34470000Y97750000D01*
X34950000Y97750000D02*
X36270000Y97750000D01*
X36750000Y97750000D02*
X38070000Y97750000D01*
X38550000Y97750000D02*
X39870000Y97750000D01*
X40350000Y97750000D02*
X41670000Y97750000D01*
X42150000Y97750000D02*
X43470000Y97750000D01*
X43950000Y97750000D02*
X45270000Y97750000D01*
X45750000Y97750000D02*
X47070000Y97750000D01*
X47550000Y97750000D02*
X48400000Y97750000D01*
X48400000Y97750000D02*
X48400000Y96430000D01*
X48400000Y95950000D02*
X48400000Y94630000D01*
X48400000Y94150000D02*
X48400000Y92830000D01*
X48400000Y92350000D02*
X48400000Y91030000D01*
X48400000Y90550000D02*
X48400000Y89230000D01*
X48400000Y88750000D02*
X48400000Y87430000D01*
X48400000Y86950000D02*
X48400000Y85630000D01*
X48400000Y85150000D02*
X48400000Y83830000D01*
X48400000Y83350000D02*
X48400000Y82030000D01*
X48400000Y81550000D02*
X48400000Y80230000D01*
X48400000Y79750000D02*
X48400000Y78430000D01*
X48400000Y77950000D02*
X48400000Y76630000D01*
X48400000Y76150000D02*
X48400000Y74830000D01*
X48400000Y74350000D02*
X48400000Y73030000D01*
X48400000Y72550000D02*
X48400000Y71700000D01*
X48400000Y71700000D02*
X47080000Y71700000D01*
X46600000Y71700000D02*
X45280000Y71700000D01*
X44800000Y71700000D02*
X43480000Y71700000D01*
X43000000Y71700000D02*
X41680000Y71700000D01*
X41200000Y71700000D02*
X39880000Y71700000D01*
X39400000Y71700000D02*
X38080000Y71700000D01*
X37600000Y71700000D02*
X36280000Y71700000D01*
X35800000Y71700000D02*
X34480000Y71700000D01*
X34000000Y71700000D02*
X32680000Y71700000D01*
X32200000Y71700000D02*
X30880000Y71700000D01*
X30400000Y71700000D02*
X29080000Y71700000D01*
X28600000Y71700000D02*
X27280000Y71700000D01*
X26800000Y71700000D02*
X25480000Y71700000D01*
X25000000Y71700000D02*
X23680000Y71700000D01*
X23200000Y71700000D02*
X21880000Y71700000D01*
X21400000Y71700000D02*
X20550000Y71700000D01*
X20550000Y71700000D02*
X20550000Y73020000D01*
X20550000Y73500000D02*
X20550000Y74820000D01*
X20550000Y75300000D02*
X20550000Y76620000D01*
X20550000Y77100000D02*
X20550000Y78420000D01*
X20550000Y78900000D02*
X20550000Y80220000D01*
X20550000Y80700000D02*
X20550000Y82020000D01*
X20550000Y82500000D02*
X20550000Y83820000D01*
X20550000Y84300000D02*
X20550000Y85620000D01*
X20550000Y86100000D02*
X20550000Y87420000D01*
X20550000Y87900000D02*
X20550000Y89220000D01*
X20550000Y89700000D02*
X20550000Y91020000D01*
X20550000Y91500000D02*
X20550000Y92820000D01*
X20550000Y93300000D02*
X20550000Y94620000D01*
X20550000Y95100000D02*
X20550000Y96420000D01*
X20550000Y96900000D02*
X20550000Y97750000D01*
X33783810Y31410000D02*
X35103810Y31410000D01*
X35583810Y31410000D02*
X36903810Y31410000D01*
X37383810Y31410000D02*
X38703810Y31410000D01*
X39183810Y31410000D02*
X40503810Y31410000D01*
X40983810Y31410000D02*
X42303810Y31410000D01*
X42783810Y31410000D02*
X44103810Y31410000D01*
X44583810Y31410000D02*
X45903810Y31410000D01*
X46383810Y31410000D02*
X47703810Y31410000D01*
X48183810Y31410000D02*
X49503810Y31410000D01*
X49983810Y31410000D02*
X51303810Y31410000D01*
X51783810Y31410000D02*
X53103810Y31410000D01*
X53583810Y31410000D02*
X54883810Y31410000D01*
X54883810Y31410000D02*
X54883810Y30090000D01*
X54883810Y29610000D02*
X54883810Y28290000D01*
X54883810Y27810000D02*
X54883810Y26490000D01*
X54883810Y26010000D02*
X54883810Y24690000D01*
X54883810Y24210000D02*
X54883810Y22890000D01*
X54883810Y22410000D02*
X54883810Y21090000D01*
X54883810Y20610000D02*
X54883810Y19410000D01*
X54883810Y19410000D02*
X53563810Y19410000D01*
X53083810Y19410000D02*
X51763810Y19410000D01*
X51283810Y19410000D02*
X49963810Y19410000D01*
X49483810Y19410000D02*
X48163810Y19410000D01*
X47683810Y19410000D02*
X46363810Y19410000D01*
X45883810Y19410000D02*
X44563810Y19410000D01*
X44083810Y19410000D02*
X42763810Y19410000D01*
X42283810Y19410000D02*
X40963810Y19410000D01*
X40483810Y19410000D02*
X39163810Y19410000D01*
X38683810Y19410000D02*
X37363810Y19410000D01*
X36883810Y19410000D02*
X35563810Y19410000D01*
X35083810Y19410000D02*
X33783810Y19410000D01*
X33783810Y19410000D02*
X33783810Y20730000D01*
X33783810Y21210000D02*
X33783810Y22530000D01*
X33783810Y23010000D02*
X33783810Y24330000D01*
X33783810Y24810000D02*
X33783810Y26130000D01*
X33783810Y26610000D02*
X33783810Y27930000D01*
X33783810Y28410000D02*
X33783810Y29730000D01*
X33783810Y30210000D02*
X33783810Y31410000D01*
X33783810Y19210000D02*
X35103810Y19210000D01*
X35583810Y19210000D02*
X36903810Y19210000D01*
X37383810Y19210000D02*
X38703810Y19210000D01*
X39183810Y19210000D02*
X40503810Y19210000D01*
X40983810Y19210000D02*
X42303810Y19210000D01*
X42783810Y19210000D02*
X44103810Y19210000D01*
X44583810Y19210000D02*
X45903810Y19210000D01*
X46383810Y19210000D02*
X47703810Y19210000D01*
X48183810Y19210000D02*
X49503810Y19210000D01*
X49983810Y19210000D02*
X51303810Y19210000D01*
X51783810Y19210000D02*
X53103810Y19210000D01*
X53583810Y19210000D02*
X54883810Y19210000D01*
X54883810Y19210000D02*
X54883810Y17890000D01*
X54883810Y17410000D02*
X54883810Y16090000D01*
X54883810Y15610000D02*
X54883810Y14290000D01*
X54883810Y13810000D02*
X54883810Y12490000D01*
X54883810Y12010000D02*
X54883810Y10690000D01*
X54883810Y10210000D02*
X54883810Y8890000D01*
X54883810Y8410000D02*
X54883810Y7090000D01*
X54883810Y7010000D02*
X53563810Y7010000D01*
X53083810Y7010000D02*
X51763810Y7010000D01*
X51283810Y7010000D02*
X49963810Y7010000D01*
X49483810Y7010000D02*
X48163810Y7010000D01*
X47683810Y7010000D02*
X46363810Y7010000D01*
X45883810Y7010000D02*
X44563810Y7010000D01*
X44083810Y7010000D02*
X42763810Y7010000D01*
X42283810Y7010000D02*
X40963810Y7010000D01*
X40483810Y7010000D02*
X39163810Y7010000D01*
X38683810Y7010000D02*
X37363810Y7010000D01*
X36883810Y7010000D02*
X35563810Y7010000D01*
X35083810Y7010000D02*
X33783810Y7010000D01*
X33783810Y7010000D02*
X33783810Y8330000D01*
X33783810Y8810000D02*
X33783810Y10130000D01*
X33783810Y10610000D02*
X33783810Y11930000D01*
X33783810Y12410000D02*
X33783810Y13730000D01*
X33783810Y14210000D02*
X33783810Y15530000D01*
X33783810Y16010000D02*
X33783810Y17330000D01*
X33783810Y17810000D02*
X33783810Y19130000D01*
X20500000Y70800000D02*
X21820000Y70800000D01*
X22300000Y70800000D02*
X23620000Y70800000D01*
X24100000Y70800000D02*
X25420000Y70800000D01*
X25900000Y70800000D02*
X27220000Y70800000D01*
X27700000Y70800000D02*
X29020000Y70800000D01*
X29500000Y70800000D02*
X30820000Y70800000D01*
X31300000Y70800000D02*
X32620000Y70800000D01*
X33100000Y70800000D02*
X34420000Y70800000D01*
X34900000Y70800000D02*
X36220000Y70800000D01*
X36700000Y70800000D02*
X38020000Y70800000D01*
X38500000Y70800000D02*
X39820000Y70800000D01*
X40300000Y70800000D02*
X41620000Y70800000D01*
X42100000Y70800000D02*
X43420000Y70800000D01*
X43900000Y70800000D02*
X45220000Y70800000D01*
X45700000Y70800000D02*
X47020000Y70800000D01*
X47500000Y70800000D02*
X48400000Y70800000D01*
X48400000Y70800000D02*
X48400000Y69480000D01*
X48400000Y69000000D02*
X48400000Y67680000D01*
X48400000Y67200000D02*
X48400000Y65880000D01*
X48400000Y65400000D02*
X48400000Y64080000D01*
X48400000Y63600000D02*
X48400000Y62280000D01*
X48400000Y61800000D02*
X48400000Y60480000D01*
X48400000Y60000000D02*
X48400000Y58680000D01*
X48400000Y58200000D02*
X48400000Y56880000D01*
X48400000Y56400000D02*
X48400000Y55080000D01*
X48400000Y54600000D02*
X48400000Y53280000D01*
X48400000Y52800000D02*
X48400000Y51480000D01*
X48400000Y51000000D02*
X48400000Y49680000D01*
X48400000Y49200000D02*
X48400000Y47880000D01*
X48400000Y47400000D02*
X48400000Y46080000D01*
X48400000Y45600000D02*
X48400000Y44900000D01*
X48400000Y44900000D02*
X47080000Y44900000D01*
X46600000Y44900000D02*
X45280000Y44900000D01*
X44800000Y44900000D02*
X43480000Y44900000D01*
X43000000Y44900000D02*
X41680000Y44900000D01*
X41200000Y44900000D02*
X39880000Y44900000D01*
X39400000Y44900000D02*
X38080000Y44900000D01*
X37600000Y44900000D02*
X36280000Y44900000D01*
X35800000Y44900000D02*
X34480000Y44900000D01*
X34000000Y44900000D02*
X32680000Y44900000D01*
X32200000Y44900000D02*
X30880000Y44900000D01*
X30400000Y44900000D02*
X29080000Y44900000D01*
X28600000Y44900000D02*
X27280000Y44900000D01*
X26800000Y44900000D02*
X25480000Y44900000D01*
X25000000Y44900000D02*
X23680000Y44900000D01*
X23200000Y44900000D02*
X21880000Y44900000D01*
X21400000Y44900000D02*
X20500000Y44900000D01*
X20500000Y44900000D02*
X20500000Y46220000D01*
X20500000Y46700000D02*
X20500000Y48020000D01*
X20500000Y48500000D02*
X20500000Y49820000D01*
X20500000Y50300000D02*
X20500000Y51620000D01*
X20500000Y52100000D02*
X20500000Y53420000D01*
X20500000Y53900000D02*
X20500000Y55220000D01*
X20500000Y55700000D02*
X20500000Y57020000D01*
X20500000Y57500000D02*
X20500000Y58820000D01*
X20500000Y59300000D02*
X20500000Y60620000D01*
X20500000Y61100000D02*
X20500000Y62420000D01*
X20500000Y62900000D02*
X20500000Y64220000D01*
X20500000Y64700000D02*
X20500000Y66020000D01*
X20500000Y66500000D02*
X20500000Y67820000D01*
X20500000Y68300000D02*
X20500000Y69620000D01*
X20500000Y70100000D02*
X20500000Y70800000D01*
X6400000Y87600000D02*
X7720000Y87600000D01*
X8200000Y87600000D02*
X9520000Y87600000D01*
X10000000Y87600000D02*
X11320000Y87600000D01*
X11800000Y87600000D02*
X13120000Y87600000D01*
X13600000Y87600000D02*
X14920000Y87600000D01*
X15400000Y87600000D02*
X16720000Y87600000D01*
X17200000Y87600000D02*
X18520000Y87600000D01*
X19000000Y87600000D02*
X20100000Y87600000D01*
X20100000Y87600000D02*
X20100000Y86280000D01*
X20100000Y85800000D02*
X20100000Y84480000D01*
X20100000Y84000000D02*
X20100000Y82680000D01*
X20100000Y82200000D02*
X20100000Y80880000D01*
X20100000Y80400000D02*
X20100000Y79080000D01*
X20100000Y78600000D02*
X20100000Y77280000D01*
X20100000Y76800000D02*
X20100000Y75480000D01*
X20100000Y75000000D02*
X20100000Y73680000D01*
X20100000Y73200000D02*
X20100000Y71880000D01*
X20100000Y71400000D02*
X20100000Y70080000D01*
X20100000Y69600000D02*
X20100000Y69100000D01*
X20100000Y69100000D02*
X18780000Y69100000D01*
X18300000Y69100000D02*
X16980000Y69100000D01*
X16500000Y69100000D02*
X15180000Y69100000D01*
X14700000Y69100000D02*
X13380000Y69100000D01*
X12900000Y69100000D02*
X11580000Y69100000D01*
X11100000Y69100000D02*
X9780000Y69100000D01*
X9300000Y69100000D02*
X7980000Y69100000D01*
X7500000Y69100000D02*
X6400000Y69100000D01*
X6400000Y69100000D02*
X6400000Y70420000D01*
X6400000Y70900000D02*
X6400000Y72220000D01*
X6400000Y72700000D02*
X6400000Y74020000D01*
X6400000Y74500000D02*
X6400000Y75820000D01*
X6400000Y76300000D02*
X6400000Y77620000D01*
X6400000Y78100000D02*
X6400000Y79420000D01*
X6400000Y79900000D02*
X6400000Y81220000D01*
X6400000Y81700000D02*
X6400000Y83020000D01*
X6400000Y83500000D02*
X6400000Y84820000D01*
X6400000Y85300000D02*
X6400000Y86620000D01*
X6400000Y87100000D02*
X6400000Y87600000D01*
D11*
X68681333Y11819049D02*
X68681333Y12580953D01*
X68300380Y12200001D02*
X69062285Y12200001D01*
X69349619Y52009526D02*
X68349619Y52009526D01*
X68349619Y52009526D02*
X69349619Y51438098D01*
X69349619Y51438098D02*
X68349619Y51438098D01*
X68349619Y50771431D02*
X68349619Y50580955D01*
X68349619Y50580955D02*
X68397238Y50485717D01*
X68397238Y50485717D02*
X68492476Y50390479D01*
X68492476Y50390479D02*
X68682952Y50342860D01*
X68682952Y50342860D02*
X69016285Y50342860D01*
X69016285Y50342860D02*
X69206761Y50390479D01*
X69206761Y50390479D02*
X69302000Y50485717D01*
X69302000Y50485717D02*
X69349619Y50580955D01*
X69349619Y50580955D02*
X69349619Y50771431D01*
X69349619Y50771431D02*
X69302000Y50866669D01*
X69302000Y50866669D02*
X69206761Y50961907D01*
X69206761Y50961907D02*
X69016285Y51009526D01*
X69016285Y51009526D02*
X68682952Y51009526D01*
X68682952Y51009526D02*
X68492476Y50961907D01*
X68492476Y50961907D02*
X68397238Y50866669D01*
X68397238Y50866669D02*
X68349619Y50771431D01*
D12*
X36921429Y45595181D02*
X37254762Y46071372D01*
X37492857Y45595181D02*
X37492857Y46595181D01*
X37492857Y46595181D02*
X37111905Y46595181D01*
X37111905Y46595181D02*
X37016667Y46547562D01*
X37016667Y46547562D02*
X36969048Y46499943D01*
X36969048Y46499943D02*
X36921429Y46404705D01*
X36921429Y46404705D02*
X36921429Y46261848D01*
X36921429Y46261848D02*
X36969048Y46166610D01*
X36969048Y46166610D02*
X37016667Y46118991D01*
X37016667Y46118991D02*
X37111905Y46071372D01*
X37111905Y46071372D02*
X37492857Y46071372D01*
X36111905Y45642800D02*
X36207143Y45595181D01*
X36207143Y45595181D02*
X36397619Y45595181D01*
X36397619Y45595181D02*
X36492857Y45642800D01*
X36492857Y45642800D02*
X36540476Y45738039D01*
X36540476Y45738039D02*
X36540476Y46118991D01*
X36540476Y46118991D02*
X36492857Y46214229D01*
X36492857Y46214229D02*
X36397619Y46261848D01*
X36397619Y46261848D02*
X36207143Y46261848D01*
X36207143Y46261848D02*
X36111905Y46214229D01*
X36111905Y46214229D02*
X36064286Y46118991D01*
X36064286Y46118991D02*
X36064286Y46023753D01*
X36064286Y46023753D02*
X36540476Y45928515D01*
X35492857Y45595181D02*
X35588095Y45642800D01*
X35588095Y45642800D02*
X35635714Y45738039D01*
X35635714Y45738039D02*
X35635714Y46595181D01*
X34683333Y45595181D02*
X34683333Y46118991D01*
X34683333Y46118991D02*
X34730952Y46214229D01*
X34730952Y46214229D02*
X34826190Y46261848D01*
X34826190Y46261848D02*
X35016666Y46261848D01*
X35016666Y46261848D02*
X35111904Y46214229D01*
X34683333Y45642800D02*
X34778571Y45595181D01*
X34778571Y45595181D02*
X35016666Y45595181D01*
X35016666Y45595181D02*
X35111904Y45642800D01*
X35111904Y45642800D02*
X35159523Y45738039D01*
X35159523Y45738039D02*
X35159523Y45833277D01*
X35159523Y45833277D02*
X35111904Y45928515D01*
X35111904Y45928515D02*
X35016666Y45976134D01*
X35016666Y45976134D02*
X34778571Y45976134D01*
X34778571Y45976134D02*
X34683333Y46023753D01*
X34302380Y46261848D02*
X34064285Y45595181D01*
X33826190Y46261848D02*
X34064285Y45595181D01*
X34064285Y45595181D02*
X34159523Y45357086D01*
X34159523Y45357086D02*
X34207142Y45309467D01*
X34207142Y45309467D02*
X34302380Y45261848D01*
X32730951Y46499943D02*
X32683332Y46547562D01*
X32683332Y46547562D02*
X32588094Y46595181D01*
X32588094Y46595181D02*
X32349999Y46595181D01*
X32349999Y46595181D02*
X32254761Y46547562D01*
X32254761Y46547562D02*
X32207142Y46499943D01*
X32207142Y46499943D02*
X32159523Y46404705D01*
X32159523Y46404705D02*
X32159523Y46309467D01*
X32159523Y46309467D02*
X32207142Y46166610D01*
X32207142Y46166610D02*
X32778570Y45595181D01*
X32778570Y45595181D02*
X32159523Y45595181D01*
D11*
X69349619Y46723810D02*
X68349619Y46723810D01*
X69349619Y46247620D02*
X68349619Y46247620D01*
X68349619Y46247620D02*
X69349619Y45676192D01*
X69349619Y45676192D02*
X68349619Y45676192D01*
D12*
X54528571Y20945181D02*
X53957143Y20945181D01*
X54242857Y19945181D02*
X54242857Y20945181D01*
X53623809Y19945181D02*
X53623809Y20945181D01*
X53195238Y19945181D02*
X53195238Y20468991D01*
X53195238Y20468991D02*
X53242857Y20564229D01*
X53242857Y20564229D02*
X53338095Y20611848D01*
X53338095Y20611848D02*
X53480952Y20611848D01*
X53480952Y20611848D02*
X53576190Y20564229D01*
X53576190Y20564229D02*
X53623809Y20516610D01*
X52338095Y19992800D02*
X52433333Y19945181D01*
X52433333Y19945181D02*
X52623809Y19945181D01*
X52623809Y19945181D02*
X52719047Y19992800D01*
X52719047Y19992800D02*
X52766666Y20088039D01*
X52766666Y20088039D02*
X52766666Y20468991D01*
X52766666Y20468991D02*
X52719047Y20564229D01*
X52719047Y20564229D02*
X52623809Y20611848D01*
X52623809Y20611848D02*
X52433333Y20611848D01*
X52433333Y20611848D02*
X52338095Y20564229D01*
X52338095Y20564229D02*
X52290476Y20468991D01*
X52290476Y20468991D02*
X52290476Y20373753D01*
X52290476Y20373753D02*
X52766666Y20278515D01*
X51861904Y19945181D02*
X51861904Y20611848D01*
X51861904Y20421372D02*
X51814285Y20516610D01*
X51814285Y20516610D02*
X51766666Y20564229D01*
X51766666Y20564229D02*
X51671428Y20611848D01*
X51671428Y20611848D02*
X51576190Y20611848D01*
X51242856Y19945181D02*
X51242856Y20611848D01*
X51242856Y20516610D02*
X51195237Y20564229D01*
X51195237Y20564229D02*
X51099999Y20611848D01*
X51099999Y20611848D02*
X50957142Y20611848D01*
X50957142Y20611848D02*
X50861904Y20564229D01*
X50861904Y20564229D02*
X50814285Y20468991D01*
X50814285Y20468991D02*
X50814285Y19945181D01*
X50814285Y20468991D02*
X50766666Y20564229D01*
X50766666Y20564229D02*
X50671428Y20611848D01*
X50671428Y20611848D02*
X50528571Y20611848D01*
X50528571Y20611848D02*
X50433332Y20564229D01*
X50433332Y20564229D02*
X50385713Y20468991D01*
X50385713Y20468991D02*
X50385713Y19945181D01*
X49766666Y19945181D02*
X49861904Y19992800D01*
X49861904Y19992800D02*
X49909523Y20040420D01*
X49909523Y20040420D02*
X49957142Y20135658D01*
X49957142Y20135658D02*
X49957142Y20421372D01*
X49957142Y20421372D02*
X49909523Y20516610D01*
X49909523Y20516610D02*
X49861904Y20564229D01*
X49861904Y20564229D02*
X49766666Y20611848D01*
X49766666Y20611848D02*
X49623809Y20611848D01*
X49623809Y20611848D02*
X49528571Y20564229D01*
X49528571Y20564229D02*
X49480952Y20516610D01*
X49480952Y20516610D02*
X49433333Y20421372D01*
X49433333Y20421372D02*
X49433333Y20135658D01*
X49433333Y20135658D02*
X49480952Y20040420D01*
X49480952Y20040420D02*
X49528571Y19992800D01*
X49528571Y19992800D02*
X49623809Y19945181D01*
X49623809Y19945181D02*
X49766666Y19945181D01*
X48576190Y19992800D02*
X48671428Y19945181D01*
X48671428Y19945181D02*
X48861904Y19945181D01*
X48861904Y19945181D02*
X48957142Y19992800D01*
X48957142Y19992800D02*
X49004761Y20040420D01*
X49004761Y20040420D02*
X49052380Y20135658D01*
X49052380Y20135658D02*
X49052380Y20421372D01*
X49052380Y20421372D02*
X49004761Y20516610D01*
X49004761Y20516610D02*
X48957142Y20564229D01*
X48957142Y20564229D02*
X48861904Y20611848D01*
X48861904Y20611848D02*
X48671428Y20611848D01*
X48671428Y20611848D02*
X48576190Y20564229D01*
X48004761Y19945181D02*
X48099999Y19992800D01*
X48099999Y19992800D02*
X48147618Y20040420D01*
X48147618Y20040420D02*
X48195237Y20135658D01*
X48195237Y20135658D02*
X48195237Y20421372D01*
X48195237Y20421372D02*
X48147618Y20516610D01*
X48147618Y20516610D02*
X48099999Y20564229D01*
X48099999Y20564229D02*
X48004761Y20611848D01*
X48004761Y20611848D02*
X47861904Y20611848D01*
X47861904Y20611848D02*
X47766666Y20564229D01*
X47766666Y20564229D02*
X47719047Y20516610D01*
X47719047Y20516610D02*
X47671428Y20421372D01*
X47671428Y20421372D02*
X47671428Y20135658D01*
X47671428Y20135658D02*
X47719047Y20040420D01*
X47719047Y20040420D02*
X47766666Y19992800D01*
X47766666Y19992800D02*
X47861904Y19945181D01*
X47861904Y19945181D02*
X48004761Y19945181D01*
X46814285Y20611848D02*
X46814285Y19945181D01*
X47242856Y20611848D02*
X47242856Y20088039D01*
X47242856Y20088039D02*
X47195237Y19992800D01*
X47195237Y19992800D02*
X47099999Y19945181D01*
X47099999Y19945181D02*
X46957142Y19945181D01*
X46957142Y19945181D02*
X46861904Y19992800D01*
X46861904Y19992800D02*
X46814285Y20040420D01*
X46338094Y20611848D02*
X46338094Y19611848D01*
X46338094Y20564229D02*
X46242856Y20611848D01*
X46242856Y20611848D02*
X46052380Y20611848D01*
X46052380Y20611848D02*
X45957142Y20564229D01*
X45957142Y20564229D02*
X45909523Y20516610D01*
X45909523Y20516610D02*
X45861904Y20421372D01*
X45861904Y20421372D02*
X45861904Y20135658D01*
X45861904Y20135658D02*
X45909523Y20040420D01*
X45909523Y20040420D02*
X45957142Y19992800D01*
X45957142Y19992800D02*
X46052380Y19945181D01*
X46052380Y19945181D02*
X46242856Y19945181D01*
X46242856Y19945181D02*
X46338094Y19992800D01*
X45290475Y19945181D02*
X45385713Y19992800D01*
X45385713Y19992800D02*
X45433332Y20088039D01*
X45433332Y20088039D02*
X45433332Y20945181D01*
X44528570Y19992800D02*
X44623808Y19945181D01*
X44623808Y19945181D02*
X44814284Y19945181D01*
X44814284Y19945181D02*
X44909522Y19992800D01*
X44909522Y19992800D02*
X44957141Y20088039D01*
X44957141Y20088039D02*
X44957141Y20468991D01*
X44957141Y20468991D02*
X44909522Y20564229D01*
X44909522Y20564229D02*
X44814284Y20611848D01*
X44814284Y20611848D02*
X44623808Y20611848D01*
X44623808Y20611848D02*
X44528570Y20564229D01*
X44528570Y20564229D02*
X44480951Y20468991D01*
X44480951Y20468991D02*
X44480951Y20373753D01*
X44480951Y20373753D02*
X44957141Y20278515D01*
X42766665Y19945181D02*
X43338093Y19945181D01*
X43052379Y19945181D02*
X43052379Y20945181D01*
X43052379Y20945181D02*
X43147617Y20802324D01*
X43147617Y20802324D02*
X43242855Y20707086D01*
X43242855Y20707086D02*
X43338093Y20659467D01*
D11*
X68297238Y71961905D02*
X68249619Y72057143D01*
X68249619Y72057143D02*
X68249619Y72200000D01*
X68249619Y72200000D02*
X68297238Y72342857D01*
X68297238Y72342857D02*
X68392476Y72438095D01*
X68392476Y72438095D02*
X68487714Y72485714D01*
X68487714Y72485714D02*
X68678190Y72533333D01*
X68678190Y72533333D02*
X68821047Y72533333D01*
X68821047Y72533333D02*
X69011523Y72485714D01*
X69011523Y72485714D02*
X69106761Y72438095D01*
X69106761Y72438095D02*
X69202000Y72342857D01*
X69202000Y72342857D02*
X69249619Y72200000D01*
X69249619Y72200000D02*
X69249619Y72104762D01*
X69249619Y72104762D02*
X69202000Y71961905D01*
X69202000Y71961905D02*
X69154380Y71914286D01*
X69154380Y71914286D02*
X68821047Y71914286D01*
X68821047Y71914286D02*
X68821047Y72104762D01*
X69249619Y71485714D02*
X68249619Y71485714D01*
X68249619Y71485714D02*
X69249619Y70914286D01*
X69249619Y70914286D02*
X68249619Y70914286D01*
X69249619Y70438095D02*
X68249619Y70438095D01*
X68249619Y70438095D02*
X68249619Y70200000D01*
X68249619Y70200000D02*
X68297238Y70057143D01*
X68297238Y70057143D02*
X68392476Y69961905D01*
X68392476Y69961905D02*
X68487714Y69914286D01*
X68487714Y69914286D02*
X68678190Y69866667D01*
X68678190Y69866667D02*
X68821047Y69866667D01*
X68821047Y69866667D02*
X69011523Y69914286D01*
X69011523Y69914286D02*
X69106761Y69961905D01*
X69106761Y69961905D02*
X69202000Y70057143D01*
X69202000Y70057143D02*
X69249619Y70200000D01*
X69249619Y70200000D02*
X69249619Y70438095D01*
D12*
X36671429Y72345181D02*
X37004762Y72821372D01*
X37242857Y72345181D02*
X37242857Y73345181D01*
X37242857Y73345181D02*
X36861905Y73345181D01*
X36861905Y73345181D02*
X36766667Y73297562D01*
X36766667Y73297562D02*
X36719048Y73249943D01*
X36719048Y73249943D02*
X36671429Y73154705D01*
X36671429Y73154705D02*
X36671429Y73011848D01*
X36671429Y73011848D02*
X36719048Y72916610D01*
X36719048Y72916610D02*
X36766667Y72868991D01*
X36766667Y72868991D02*
X36861905Y72821372D01*
X36861905Y72821372D02*
X37242857Y72821372D01*
X35861905Y72392800D02*
X35957143Y72345181D01*
X35957143Y72345181D02*
X36147619Y72345181D01*
X36147619Y72345181D02*
X36242857Y72392800D01*
X36242857Y72392800D02*
X36290476Y72488039D01*
X36290476Y72488039D02*
X36290476Y72868991D01*
X36290476Y72868991D02*
X36242857Y72964229D01*
X36242857Y72964229D02*
X36147619Y73011848D01*
X36147619Y73011848D02*
X35957143Y73011848D01*
X35957143Y73011848D02*
X35861905Y72964229D01*
X35861905Y72964229D02*
X35814286Y72868991D01*
X35814286Y72868991D02*
X35814286Y72773753D01*
X35814286Y72773753D02*
X36290476Y72678515D01*
X35242857Y72345181D02*
X35338095Y72392800D01*
X35338095Y72392800D02*
X35385714Y72488039D01*
X35385714Y72488039D02*
X35385714Y73345181D01*
X34433333Y72345181D02*
X34433333Y72868991D01*
X34433333Y72868991D02*
X34480952Y72964229D01*
X34480952Y72964229D02*
X34576190Y73011848D01*
X34576190Y73011848D02*
X34766666Y73011848D01*
X34766666Y73011848D02*
X34861904Y72964229D01*
X34433333Y72392800D02*
X34528571Y72345181D01*
X34528571Y72345181D02*
X34766666Y72345181D01*
X34766666Y72345181D02*
X34861904Y72392800D01*
X34861904Y72392800D02*
X34909523Y72488039D01*
X34909523Y72488039D02*
X34909523Y72583277D01*
X34909523Y72583277D02*
X34861904Y72678515D01*
X34861904Y72678515D02*
X34766666Y72726134D01*
X34766666Y72726134D02*
X34528571Y72726134D01*
X34528571Y72726134D02*
X34433333Y72773753D01*
X34052380Y73011848D02*
X33814285Y72345181D01*
X33576190Y73011848D02*
X33814285Y72345181D01*
X33814285Y72345181D02*
X33909523Y72107086D01*
X33909523Y72107086D02*
X33957142Y72059467D01*
X33957142Y72059467D02*
X34052380Y72011848D01*
X31909523Y72345181D02*
X32480951Y72345181D01*
X32195237Y72345181D02*
X32195237Y73345181D01*
X32195237Y73345181D02*
X32290475Y73202324D01*
X32290475Y73202324D02*
X32385713Y73107086D01*
X32385713Y73107086D02*
X32480951Y73059467D01*
D11*
X68531333Y19169049D02*
X68531333Y19930953D01*
X68150380Y19550001D02*
X68912285Y19550001D01*
D12*
X22176666Y10740125D02*
X22652856Y10740125D01*
X22652856Y10740125D02*
X22700475Y10263935D01*
X22700475Y10263935D02*
X22652856Y10311554D01*
X22652856Y10311554D02*
X22557618Y10359173D01*
X22557618Y10359173D02*
X22319523Y10359173D01*
X22319523Y10359173D02*
X22224285Y10311554D01*
X22224285Y10311554D02*
X22176666Y10263935D01*
X22176666Y10263935D02*
X22129047Y10168697D01*
X22129047Y10168697D02*
X22129047Y9930602D01*
X22129047Y9930602D02*
X22176666Y9835364D01*
X22176666Y9835364D02*
X22224285Y9787744D01*
X22224285Y9787744D02*
X22319523Y9740125D01*
X22319523Y9740125D02*
X22557618Y9740125D01*
X22557618Y9740125D02*
X22652856Y9787744D01*
X22652856Y9787744D02*
X22700475Y9835364D01*
X21843332Y10740125D02*
X21509999Y9740125D01*
X21509999Y9740125D02*
X21176666Y10740125D01*
X20081427Y9740125D02*
X20081427Y10740125D01*
X19652856Y10644887D02*
X19605237Y10692506D01*
X19605237Y10692506D02*
X19509999Y10740125D01*
X19509999Y10740125D02*
X19271904Y10740125D01*
X19271904Y10740125D02*
X19176666Y10692506D01*
X19176666Y10692506D02*
X19129047Y10644887D01*
X19129047Y10644887D02*
X19081428Y10549649D01*
X19081428Y10549649D02*
X19081428Y10454411D01*
X19081428Y10454411D02*
X19129047Y10311554D01*
X19129047Y10311554D02*
X19700475Y9740125D01*
X19700475Y9740125D02*
X19081428Y9740125D01*
X18081428Y9835364D02*
X18129047Y9787744D01*
X18129047Y9787744D02*
X18271904Y9740125D01*
X18271904Y9740125D02*
X18367142Y9740125D01*
X18367142Y9740125D02*
X18509999Y9787744D01*
X18509999Y9787744D02*
X18605237Y9882983D01*
X18605237Y9882983D02*
X18652856Y9978221D01*
X18652856Y9978221D02*
X18700475Y10168697D01*
X18700475Y10168697D02*
X18700475Y10311554D01*
X18700475Y10311554D02*
X18652856Y10502030D01*
X18652856Y10502030D02*
X18605237Y10597268D01*
X18605237Y10597268D02*
X18509999Y10692506D01*
X18509999Y10692506D02*
X18367142Y10740125D01*
X18367142Y10740125D02*
X18271904Y10740125D01*
X18271904Y10740125D02*
X18129047Y10692506D01*
X18129047Y10692506D02*
X18081428Y10644887D01*
X22962381Y8225420D02*
X23010000Y8177800D01*
X23010000Y8177800D02*
X23152857Y8130181D01*
X23152857Y8130181D02*
X23248095Y8130181D01*
X23248095Y8130181D02*
X23390952Y8177800D01*
X23390952Y8177800D02*
X23486190Y8273039D01*
X23486190Y8273039D02*
X23533809Y8368277D01*
X23533809Y8368277D02*
X23581428Y8558753D01*
X23581428Y8558753D02*
X23581428Y8701610D01*
X23581428Y8701610D02*
X23533809Y8892086D01*
X23533809Y8892086D02*
X23486190Y8987324D01*
X23486190Y8987324D02*
X23390952Y9082562D01*
X23390952Y9082562D02*
X23248095Y9130181D01*
X23248095Y9130181D02*
X23152857Y9130181D01*
X23152857Y9130181D02*
X23010000Y9082562D01*
X23010000Y9082562D02*
X22962381Y9034943D01*
X22390952Y8130181D02*
X22486190Y8177800D01*
X22486190Y8177800D02*
X22533809Y8225420D01*
X22533809Y8225420D02*
X22581428Y8320658D01*
X22581428Y8320658D02*
X22581428Y8606372D01*
X22581428Y8606372D02*
X22533809Y8701610D01*
X22533809Y8701610D02*
X22486190Y8749229D01*
X22486190Y8749229D02*
X22390952Y8796848D01*
X22390952Y8796848D02*
X22248095Y8796848D01*
X22248095Y8796848D02*
X22152857Y8749229D01*
X22152857Y8749229D02*
X22105238Y8701610D01*
X22105238Y8701610D02*
X22057619Y8606372D01*
X22057619Y8606372D02*
X22057619Y8320658D01*
X22057619Y8320658D02*
X22105238Y8225420D01*
X22105238Y8225420D02*
X22152857Y8177800D01*
X22152857Y8177800D02*
X22248095Y8130181D01*
X22248095Y8130181D02*
X22390952Y8130181D01*
X21629047Y8796848D02*
X21629047Y8130181D01*
X21629047Y8701610D02*
X21581428Y8749229D01*
X21581428Y8749229D02*
X21486190Y8796848D01*
X21486190Y8796848D02*
X21343333Y8796848D01*
X21343333Y8796848D02*
X21248095Y8749229D01*
X21248095Y8749229D02*
X21200476Y8653991D01*
X21200476Y8653991D02*
X21200476Y8130181D01*
X20724285Y8796848D02*
X20724285Y8130181D01*
X20724285Y8701610D02*
X20676666Y8749229D01*
X20676666Y8749229D02*
X20581428Y8796848D01*
X20581428Y8796848D02*
X20438571Y8796848D01*
X20438571Y8796848D02*
X20343333Y8749229D01*
X20343333Y8749229D02*
X20295714Y8653991D01*
X20295714Y8653991D02*
X20295714Y8130181D01*
X19438571Y8177800D02*
X19533809Y8130181D01*
X19533809Y8130181D02*
X19724285Y8130181D01*
X19724285Y8130181D02*
X19819523Y8177800D01*
X19819523Y8177800D02*
X19867142Y8273039D01*
X19867142Y8273039D02*
X19867142Y8653991D01*
X19867142Y8653991D02*
X19819523Y8749229D01*
X19819523Y8749229D02*
X19724285Y8796848D01*
X19724285Y8796848D02*
X19533809Y8796848D01*
X19533809Y8796848D02*
X19438571Y8749229D01*
X19438571Y8749229D02*
X19390952Y8653991D01*
X19390952Y8653991D02*
X19390952Y8558753D01*
X19390952Y8558753D02*
X19867142Y8463515D01*
X18533809Y8177800D02*
X18629047Y8130181D01*
X18629047Y8130181D02*
X18819523Y8130181D01*
X18819523Y8130181D02*
X18914761Y8177800D01*
X18914761Y8177800D02*
X18962380Y8225420D01*
X18962380Y8225420D02*
X19009999Y8320658D01*
X19009999Y8320658D02*
X19009999Y8606372D01*
X19009999Y8606372D02*
X18962380Y8701610D01*
X18962380Y8701610D02*
X18914761Y8749229D01*
X18914761Y8749229D02*
X18819523Y8796848D01*
X18819523Y8796848D02*
X18629047Y8796848D01*
X18629047Y8796848D02*
X18533809Y8749229D01*
X18248094Y8796848D02*
X17867142Y8796848D01*
X18105237Y9130181D02*
X18105237Y8273039D01*
X18105237Y8273039D02*
X18057618Y8177800D01*
X18057618Y8177800D02*
X17962380Y8130181D01*
X17962380Y8130181D02*
X17867142Y8130181D01*
X17390951Y8130181D02*
X17486189Y8177800D01*
X17486189Y8177800D02*
X17533808Y8225420D01*
X17533808Y8225420D02*
X17581427Y8320658D01*
X17581427Y8320658D02*
X17581427Y8606372D01*
X17581427Y8606372D02*
X17533808Y8701610D01*
X17533808Y8701610D02*
X17486189Y8749229D01*
X17486189Y8749229D02*
X17390951Y8796848D01*
X17390951Y8796848D02*
X17248094Y8796848D01*
X17248094Y8796848D02*
X17152856Y8749229D01*
X17152856Y8749229D02*
X17105237Y8701610D01*
X17105237Y8701610D02*
X17057618Y8606372D01*
X17057618Y8606372D02*
X17057618Y8320658D01*
X17057618Y8320658D02*
X17105237Y8225420D01*
X17105237Y8225420D02*
X17152856Y8177800D01*
X17152856Y8177800D02*
X17248094Y8130181D01*
X17248094Y8130181D02*
X17390951Y8130181D01*
X16629046Y8130181D02*
X16629046Y8796848D01*
X16629046Y8606372D02*
X16581427Y8701610D01*
X16581427Y8701610D02*
X16533808Y8749229D01*
X16533808Y8749229D02*
X16438570Y8796848D01*
X16438570Y8796848D02*
X16343332Y8796848D01*
X54678571Y8645181D02*
X54107143Y8645181D01*
X54392857Y7645181D02*
X54392857Y8645181D01*
X53773809Y7645181D02*
X53773809Y8645181D01*
X53345238Y7645181D02*
X53345238Y8168991D01*
X53345238Y8168991D02*
X53392857Y8264229D01*
X53392857Y8264229D02*
X53488095Y8311848D01*
X53488095Y8311848D02*
X53630952Y8311848D01*
X53630952Y8311848D02*
X53726190Y8264229D01*
X53726190Y8264229D02*
X53773809Y8216610D01*
X52488095Y7692800D02*
X52583333Y7645181D01*
X52583333Y7645181D02*
X52773809Y7645181D01*
X52773809Y7645181D02*
X52869047Y7692800D01*
X52869047Y7692800D02*
X52916666Y7788039D01*
X52916666Y7788039D02*
X52916666Y8168991D01*
X52916666Y8168991D02*
X52869047Y8264229D01*
X52869047Y8264229D02*
X52773809Y8311848D01*
X52773809Y8311848D02*
X52583333Y8311848D01*
X52583333Y8311848D02*
X52488095Y8264229D01*
X52488095Y8264229D02*
X52440476Y8168991D01*
X52440476Y8168991D02*
X52440476Y8073753D01*
X52440476Y8073753D02*
X52916666Y7978515D01*
X52011904Y7645181D02*
X52011904Y8311848D01*
X52011904Y8121372D02*
X51964285Y8216610D01*
X51964285Y8216610D02*
X51916666Y8264229D01*
X51916666Y8264229D02*
X51821428Y8311848D01*
X51821428Y8311848D02*
X51726190Y8311848D01*
X51392856Y7645181D02*
X51392856Y8311848D01*
X51392856Y8216610D02*
X51345237Y8264229D01*
X51345237Y8264229D02*
X51249999Y8311848D01*
X51249999Y8311848D02*
X51107142Y8311848D01*
X51107142Y8311848D02*
X51011904Y8264229D01*
X51011904Y8264229D02*
X50964285Y8168991D01*
X50964285Y8168991D02*
X50964285Y7645181D01*
X50964285Y8168991D02*
X50916666Y8264229D01*
X50916666Y8264229D02*
X50821428Y8311848D01*
X50821428Y8311848D02*
X50678571Y8311848D01*
X50678571Y8311848D02*
X50583332Y8264229D01*
X50583332Y8264229D02*
X50535713Y8168991D01*
X50535713Y8168991D02*
X50535713Y7645181D01*
X49916666Y7645181D02*
X50011904Y7692800D01*
X50011904Y7692800D02*
X50059523Y7740420D01*
X50059523Y7740420D02*
X50107142Y7835658D01*
X50107142Y7835658D02*
X50107142Y8121372D01*
X50107142Y8121372D02*
X50059523Y8216610D01*
X50059523Y8216610D02*
X50011904Y8264229D01*
X50011904Y8264229D02*
X49916666Y8311848D01*
X49916666Y8311848D02*
X49773809Y8311848D01*
X49773809Y8311848D02*
X49678571Y8264229D01*
X49678571Y8264229D02*
X49630952Y8216610D01*
X49630952Y8216610D02*
X49583333Y8121372D01*
X49583333Y8121372D02*
X49583333Y7835658D01*
X49583333Y7835658D02*
X49630952Y7740420D01*
X49630952Y7740420D02*
X49678571Y7692800D01*
X49678571Y7692800D02*
X49773809Y7645181D01*
X49773809Y7645181D02*
X49916666Y7645181D01*
X48726190Y7692800D02*
X48821428Y7645181D01*
X48821428Y7645181D02*
X49011904Y7645181D01*
X49011904Y7645181D02*
X49107142Y7692800D01*
X49107142Y7692800D02*
X49154761Y7740420D01*
X49154761Y7740420D02*
X49202380Y7835658D01*
X49202380Y7835658D02*
X49202380Y8121372D01*
X49202380Y8121372D02*
X49154761Y8216610D01*
X49154761Y8216610D02*
X49107142Y8264229D01*
X49107142Y8264229D02*
X49011904Y8311848D01*
X49011904Y8311848D02*
X48821428Y8311848D01*
X48821428Y8311848D02*
X48726190Y8264229D01*
X48154761Y7645181D02*
X48249999Y7692800D01*
X48249999Y7692800D02*
X48297618Y7740420D01*
X48297618Y7740420D02*
X48345237Y7835658D01*
X48345237Y7835658D02*
X48345237Y8121372D01*
X48345237Y8121372D02*
X48297618Y8216610D01*
X48297618Y8216610D02*
X48249999Y8264229D01*
X48249999Y8264229D02*
X48154761Y8311848D01*
X48154761Y8311848D02*
X48011904Y8311848D01*
X48011904Y8311848D02*
X47916666Y8264229D01*
X47916666Y8264229D02*
X47869047Y8216610D01*
X47869047Y8216610D02*
X47821428Y8121372D01*
X47821428Y8121372D02*
X47821428Y7835658D01*
X47821428Y7835658D02*
X47869047Y7740420D01*
X47869047Y7740420D02*
X47916666Y7692800D01*
X47916666Y7692800D02*
X48011904Y7645181D01*
X48011904Y7645181D02*
X48154761Y7645181D01*
X46964285Y8311848D02*
X46964285Y7645181D01*
X47392856Y8311848D02*
X47392856Y7788039D01*
X47392856Y7788039D02*
X47345237Y7692800D01*
X47345237Y7692800D02*
X47249999Y7645181D01*
X47249999Y7645181D02*
X47107142Y7645181D01*
X47107142Y7645181D02*
X47011904Y7692800D01*
X47011904Y7692800D02*
X46964285Y7740420D01*
X46488094Y8311848D02*
X46488094Y7311848D01*
X46488094Y8264229D02*
X46392856Y8311848D01*
X46392856Y8311848D02*
X46202380Y8311848D01*
X46202380Y8311848D02*
X46107142Y8264229D01*
X46107142Y8264229D02*
X46059523Y8216610D01*
X46059523Y8216610D02*
X46011904Y8121372D01*
X46011904Y8121372D02*
X46011904Y7835658D01*
X46011904Y7835658D02*
X46059523Y7740420D01*
X46059523Y7740420D02*
X46107142Y7692800D01*
X46107142Y7692800D02*
X46202380Y7645181D01*
X46202380Y7645181D02*
X46392856Y7645181D01*
X46392856Y7645181D02*
X46488094Y7692800D01*
X45440475Y7645181D02*
X45535713Y7692800D01*
X45535713Y7692800D02*
X45583332Y7788039D01*
X45583332Y7788039D02*
X45583332Y8645181D01*
X44678570Y7692800D02*
X44773808Y7645181D01*
X44773808Y7645181D02*
X44964284Y7645181D01*
X44964284Y7645181D02*
X45059522Y7692800D01*
X45059522Y7692800D02*
X45107141Y7788039D01*
X45107141Y7788039D02*
X45107141Y8168991D01*
X45107141Y8168991D02*
X45059522Y8264229D01*
X45059522Y8264229D02*
X44964284Y8311848D01*
X44964284Y8311848D02*
X44773808Y8311848D01*
X44773808Y8311848D02*
X44678570Y8264229D01*
X44678570Y8264229D02*
X44630951Y8168991D01*
X44630951Y8168991D02*
X44630951Y8073753D01*
X44630951Y8073753D02*
X45107141Y7978515D01*
X43488093Y8549943D02*
X43440474Y8597562D01*
X43440474Y8597562D02*
X43345236Y8645181D01*
X43345236Y8645181D02*
X43107141Y8645181D01*
X43107141Y8645181D02*
X43011903Y8597562D01*
X43011903Y8597562D02*
X42964284Y8549943D01*
X42964284Y8549943D02*
X42916665Y8454705D01*
X42916665Y8454705D02*
X42916665Y8359467D01*
X42916665Y8359467D02*
X42964284Y8216610D01*
X42964284Y8216610D02*
X43535712Y7645181D01*
X43535712Y7645181D02*
X42916665Y7645181D01*
D11*
X68925809Y36176191D02*
X68925809Y35842858D01*
X69449619Y35700001D02*
X69449619Y36176191D01*
X69449619Y36176191D02*
X68449619Y36176191D01*
X68449619Y36176191D02*
X68449619Y35700001D01*
X69402000Y34557143D02*
X69449619Y34414286D01*
X69449619Y34414286D02*
X69449619Y34176191D01*
X69449619Y34176191D02*
X69402000Y34080953D01*
X69402000Y34080953D02*
X69354380Y34033334D01*
X69354380Y34033334D02*
X69259142Y33985715D01*
X69259142Y33985715D02*
X69163904Y33985715D01*
X69163904Y33985715D02*
X69068666Y34033334D01*
X69068666Y34033334D02*
X69021047Y34080953D01*
X69021047Y34080953D02*
X68973428Y34176191D01*
X68973428Y34176191D02*
X68925809Y34366667D01*
X68925809Y34366667D02*
X68878190Y34461905D01*
X68878190Y34461905D02*
X68830571Y34509524D01*
X68830571Y34509524D02*
X68735333Y34557143D01*
X68735333Y34557143D02*
X68640095Y34557143D01*
X68640095Y34557143D02*
X68544857Y34509524D01*
X68544857Y34509524D02*
X68497238Y34461905D01*
X68497238Y34461905D02*
X68449619Y34366667D01*
X68449619Y34366667D02*
X68449619Y34128572D01*
X68449619Y34128572D02*
X68497238Y33985715D01*
X68449619Y33700000D02*
X68449619Y33128572D01*
X69449619Y33414286D02*
X68449619Y33414286D01*
X68449619Y32604762D02*
X68449619Y32414286D01*
X68449619Y32414286D02*
X68497238Y32319048D01*
X68497238Y32319048D02*
X68592476Y32223810D01*
X68592476Y32223810D02*
X68782952Y32176191D01*
X68782952Y32176191D02*
X69116285Y32176191D01*
X69116285Y32176191D02*
X69306761Y32223810D01*
X69306761Y32223810D02*
X69402000Y32319048D01*
X69402000Y32319048D02*
X69449619Y32414286D01*
X69449619Y32414286D02*
X69449619Y32604762D01*
X69449619Y32604762D02*
X69402000Y32700000D01*
X69402000Y32700000D02*
X69306761Y32795238D01*
X69306761Y32795238D02*
X69116285Y32842857D01*
X69116285Y32842857D02*
X68782952Y32842857D01*
X68782952Y32842857D02*
X68592476Y32795238D01*
X68592476Y32795238D02*
X68497238Y32700000D01*
X68497238Y32700000D02*
X68449619Y32604762D01*
X69449619Y31747619D02*
X68449619Y31747619D01*
X68449619Y31747619D02*
X68449619Y31366667D01*
X68449619Y31366667D02*
X68497238Y31271429D01*
X68497238Y31271429D02*
X68544857Y31223810D01*
X68544857Y31223810D02*
X68640095Y31176191D01*
X68640095Y31176191D02*
X68782952Y31176191D01*
X68782952Y31176191D02*
X68878190Y31223810D01*
X68878190Y31223810D02*
X68925809Y31271429D01*
X68925809Y31271429D02*
X68973428Y31366667D01*
X68973428Y31366667D02*
X68973428Y31747619D01*
X69249619Y86985714D02*
X68249619Y86985714D01*
X68249619Y86985714D02*
X69249619Y86414286D01*
X69249619Y86414286D02*
X68249619Y86414286D01*
X69154380Y85366667D02*
X69202000Y85414286D01*
X69202000Y85414286D02*
X69249619Y85557143D01*
X69249619Y85557143D02*
X69249619Y85652381D01*
X69249619Y85652381D02*
X69202000Y85795238D01*
X69202000Y85795238D02*
X69106761Y85890476D01*
X69106761Y85890476D02*
X69011523Y85938095D01*
X69011523Y85938095D02*
X68821047Y85985714D01*
X68821047Y85985714D02*
X68678190Y85985714D01*
X68678190Y85985714D02*
X68487714Y85938095D01*
X68487714Y85938095D02*
X68392476Y85890476D01*
X68392476Y85890476D02*
X68297238Y85795238D01*
X68297238Y85795238D02*
X68249619Y85652381D01*
X68249619Y85652381D02*
X68249619Y85557143D01*
X68249619Y85557143D02*
X68297238Y85414286D01*
X68297238Y85414286D02*
X68344857Y85366667D01*
D12*
X15961904Y85640125D02*
X16533332Y85640125D01*
X16247618Y85640125D02*
X16247618Y86640125D01*
X16247618Y86640125D02*
X16342856Y86497268D01*
X16342856Y86497268D02*
X16438094Y86402030D01*
X16438094Y86402030D02*
X16533332Y86354411D01*
X15580951Y86544887D02*
X15533332Y86592506D01*
X15533332Y86592506D02*
X15438094Y86640125D01*
X15438094Y86640125D02*
X15199999Y86640125D01*
X15199999Y86640125D02*
X15104761Y86592506D01*
X15104761Y86592506D02*
X15057142Y86544887D01*
X15057142Y86544887D02*
X15009523Y86449649D01*
X15009523Y86449649D02*
X15009523Y86354411D01*
X15009523Y86354411D02*
X15057142Y86211554D01*
X15057142Y86211554D02*
X15628570Y85640125D01*
X15628570Y85640125D02*
X15009523Y85640125D01*
X14723808Y86640125D02*
X14390475Y85640125D01*
X14390475Y85640125D02*
X14057142Y86640125D01*
X13723808Y86021078D02*
X12961904Y86021078D01*
X12485713Y86306792D02*
X11723809Y86021078D01*
X11723809Y86021078D02*
X12485713Y85735364D01*
X10771428Y86640125D02*
X11247618Y86640125D01*
X11247618Y86640125D02*
X11295237Y86163935D01*
X11295237Y86163935D02*
X11247618Y86211554D01*
X11247618Y86211554D02*
X11152380Y86259173D01*
X11152380Y86259173D02*
X10914285Y86259173D01*
X10914285Y86259173D02*
X10819047Y86211554D01*
X10819047Y86211554D02*
X10771428Y86163935D01*
X10771428Y86163935D02*
X10723809Y86068697D01*
X10723809Y86068697D02*
X10723809Y85830602D01*
X10723809Y85830602D02*
X10771428Y85735364D01*
X10771428Y85735364D02*
X10819047Y85687744D01*
X10819047Y85687744D02*
X10914285Y85640125D01*
X10914285Y85640125D02*
X11152380Y85640125D01*
X11152380Y85640125D02*
X11247618Y85687744D01*
X11247618Y85687744D02*
X11295237Y85735364D01*
X10438094Y86640125D02*
X10104761Y85640125D01*
X10104761Y85640125D02*
X9771428Y86640125D01*
X15985715Y84030181D02*
X16319048Y84506372D01*
X16557143Y84030181D02*
X16557143Y85030181D01*
X16557143Y85030181D02*
X16176191Y85030181D01*
X16176191Y85030181D02*
X16080953Y84982562D01*
X16080953Y84982562D02*
X16033334Y84934943D01*
X16033334Y84934943D02*
X15985715Y84839705D01*
X15985715Y84839705D02*
X15985715Y84696848D01*
X15985715Y84696848D02*
X16033334Y84601610D01*
X16033334Y84601610D02*
X16080953Y84553991D01*
X16080953Y84553991D02*
X16176191Y84506372D01*
X16176191Y84506372D02*
X16557143Y84506372D01*
X15176191Y84077800D02*
X15271429Y84030181D01*
X15271429Y84030181D02*
X15461905Y84030181D01*
X15461905Y84030181D02*
X15557143Y84077800D01*
X15557143Y84077800D02*
X15604762Y84173039D01*
X15604762Y84173039D02*
X15604762Y84553991D01*
X15604762Y84553991D02*
X15557143Y84649229D01*
X15557143Y84649229D02*
X15461905Y84696848D01*
X15461905Y84696848D02*
X15271429Y84696848D01*
X15271429Y84696848D02*
X15176191Y84649229D01*
X15176191Y84649229D02*
X15128572Y84553991D01*
X15128572Y84553991D02*
X15128572Y84458753D01*
X15128572Y84458753D02*
X15604762Y84363515D01*
X14271429Y84696848D02*
X14271429Y83887324D01*
X14271429Y83887324D02*
X14319048Y83792086D01*
X14319048Y83792086D02*
X14366667Y83744467D01*
X14366667Y83744467D02*
X14461905Y83696848D01*
X14461905Y83696848D02*
X14604762Y83696848D01*
X14604762Y83696848D02*
X14700000Y83744467D01*
X14271429Y84077800D02*
X14366667Y84030181D01*
X14366667Y84030181D02*
X14557143Y84030181D01*
X14557143Y84030181D02*
X14652381Y84077800D01*
X14652381Y84077800D02*
X14700000Y84125420D01*
X14700000Y84125420D02*
X14747619Y84220658D01*
X14747619Y84220658D02*
X14747619Y84506372D01*
X14747619Y84506372D02*
X14700000Y84601610D01*
X14700000Y84601610D02*
X14652381Y84649229D01*
X14652381Y84649229D02*
X14557143Y84696848D01*
X14557143Y84696848D02*
X14366667Y84696848D01*
X14366667Y84696848D02*
X14271429Y84649229D01*
X13366667Y84696848D02*
X13366667Y84030181D01*
X13795238Y84696848D02*
X13795238Y84173039D01*
X13795238Y84173039D02*
X13747619Y84077800D01*
X13747619Y84077800D02*
X13652381Y84030181D01*
X13652381Y84030181D02*
X13509524Y84030181D01*
X13509524Y84030181D02*
X13414286Y84077800D01*
X13414286Y84077800D02*
X13366667Y84125420D01*
X12747619Y84030181D02*
X12842857Y84077800D01*
X12842857Y84077800D02*
X12890476Y84173039D01*
X12890476Y84173039D02*
X12890476Y85030181D01*
X11938095Y84030181D02*
X11938095Y84553991D01*
X11938095Y84553991D02*
X11985714Y84649229D01*
X11985714Y84649229D02*
X12080952Y84696848D01*
X12080952Y84696848D02*
X12271428Y84696848D01*
X12271428Y84696848D02*
X12366666Y84649229D01*
X11938095Y84077800D02*
X12033333Y84030181D01*
X12033333Y84030181D02*
X12271428Y84030181D01*
X12271428Y84030181D02*
X12366666Y84077800D01*
X12366666Y84077800D02*
X12414285Y84173039D01*
X12414285Y84173039D02*
X12414285Y84268277D01*
X12414285Y84268277D02*
X12366666Y84363515D01*
X12366666Y84363515D02*
X12271428Y84411134D01*
X12271428Y84411134D02*
X12033333Y84411134D01*
X12033333Y84411134D02*
X11938095Y84458753D01*
X11604761Y84696848D02*
X11223809Y84696848D01*
X11461904Y85030181D02*
X11461904Y84173039D01*
X11461904Y84173039D02*
X11414285Y84077800D01*
X11414285Y84077800D02*
X11319047Y84030181D01*
X11319047Y84030181D02*
X11223809Y84030181D01*
X10747618Y84030181D02*
X10842856Y84077800D01*
X10842856Y84077800D02*
X10890475Y84125420D01*
X10890475Y84125420D02*
X10938094Y84220658D01*
X10938094Y84220658D02*
X10938094Y84506372D01*
X10938094Y84506372D02*
X10890475Y84601610D01*
X10890475Y84601610D02*
X10842856Y84649229D01*
X10842856Y84649229D02*
X10747618Y84696848D01*
X10747618Y84696848D02*
X10604761Y84696848D01*
X10604761Y84696848D02*
X10509523Y84649229D01*
X10509523Y84649229D02*
X10461904Y84601610D01*
X10461904Y84601610D02*
X10414285Y84506372D01*
X10414285Y84506372D02*
X10414285Y84220658D01*
X10414285Y84220658D02*
X10461904Y84125420D01*
X10461904Y84125420D02*
X10509523Y84077800D01*
X10509523Y84077800D02*
X10604761Y84030181D01*
X10604761Y84030181D02*
X10747618Y84030181D01*
X9985713Y84030181D02*
X9985713Y84696848D01*
X9985713Y84506372D02*
X9938094Y84601610D01*
X9938094Y84601610D02*
X9890475Y84649229D01*
X9890475Y84649229D02*
X9795237Y84696848D01*
X9795237Y84696848D02*
X9699999Y84696848D01*
D11*
X68825809Y66276191D02*
X68825809Y65942858D01*
X69349619Y65800001D02*
X69349619Y66276191D01*
X69349619Y66276191D02*
X68349619Y66276191D01*
X68349619Y66276191D02*
X68349619Y65800001D01*
X69302000Y64657143D02*
X69349619Y64514286D01*
X69349619Y64514286D02*
X69349619Y64276191D01*
X69349619Y64276191D02*
X69302000Y64180953D01*
X69302000Y64180953D02*
X69254380Y64133334D01*
X69254380Y64133334D02*
X69159142Y64085715D01*
X69159142Y64085715D02*
X69063904Y64085715D01*
X69063904Y64085715D02*
X68968666Y64133334D01*
X68968666Y64133334D02*
X68921047Y64180953D01*
X68921047Y64180953D02*
X68873428Y64276191D01*
X68873428Y64276191D02*
X68825809Y64466667D01*
X68825809Y64466667D02*
X68778190Y64561905D01*
X68778190Y64561905D02*
X68730571Y64609524D01*
X68730571Y64609524D02*
X68635333Y64657143D01*
X68635333Y64657143D02*
X68540095Y64657143D01*
X68540095Y64657143D02*
X68444857Y64609524D01*
X68444857Y64609524D02*
X68397238Y64561905D01*
X68397238Y64561905D02*
X68349619Y64466667D01*
X68349619Y64466667D02*
X68349619Y64228572D01*
X68349619Y64228572D02*
X68397238Y64085715D01*
X68349619Y63800000D02*
X68349619Y63228572D01*
X69349619Y63514286D02*
X68349619Y63514286D01*
X68349619Y62704762D02*
X68349619Y62514286D01*
X68349619Y62514286D02*
X68397238Y62419048D01*
X68397238Y62419048D02*
X68492476Y62323810D01*
X68492476Y62323810D02*
X68682952Y62276191D01*
X68682952Y62276191D02*
X69016285Y62276191D01*
X69016285Y62276191D02*
X69206761Y62323810D01*
X69206761Y62323810D02*
X69302000Y62419048D01*
X69302000Y62419048D02*
X69349619Y62514286D01*
X69349619Y62514286D02*
X69349619Y62704762D01*
X69349619Y62704762D02*
X69302000Y62800000D01*
X69302000Y62800000D02*
X69206761Y62895238D01*
X69206761Y62895238D02*
X69016285Y62942857D01*
X69016285Y62942857D02*
X68682952Y62942857D01*
X68682952Y62942857D02*
X68492476Y62895238D01*
X68492476Y62895238D02*
X68397238Y62800000D01*
X68397238Y62800000D02*
X68349619Y62704762D01*
X69349619Y61847619D02*
X68349619Y61847619D01*
X68349619Y61847619D02*
X68349619Y61466667D01*
X68349619Y61466667D02*
X68397238Y61371429D01*
X68397238Y61371429D02*
X68444857Y61323810D01*
X68444857Y61323810D02*
X68540095Y61276191D01*
X68540095Y61276191D02*
X68682952Y61276191D01*
X68682952Y61276191D02*
X68778190Y61323810D01*
X68778190Y61323810D02*
X68825809Y61371429D01*
X68825809Y61371429D02*
X68873428Y61466667D01*
X68873428Y61466667D02*
X68873428Y61847619D01*
X69249619Y82009525D02*
X68249619Y82009525D01*
X68249619Y82009525D02*
X69249619Y81438097D01*
X69249619Y81438097D02*
X68249619Y81438097D01*
X68249619Y80771430D02*
X68249619Y80580954D01*
X68249619Y80580954D02*
X68297238Y80485716D01*
X68297238Y80485716D02*
X68392476Y80390478D01*
X68392476Y80390478D02*
X68582952Y80342859D01*
X68582952Y80342859D02*
X68916285Y80342859D01*
X68916285Y80342859D02*
X69106761Y80390478D01*
X69106761Y80390478D02*
X69202000Y80485716D01*
X69202000Y80485716D02*
X69249619Y80580954D01*
X69249619Y80580954D02*
X69249619Y80771430D01*
X69249619Y80771430D02*
X69202000Y80866668D01*
X69202000Y80866668D02*
X69106761Y80961906D01*
X69106761Y80961906D02*
X68916285Y81009525D01*
X68916285Y81009525D02*
X68582952Y81009525D01*
X68582952Y81009525D02*
X68392476Y80961906D01*
X68392476Y80961906D02*
X68297238Y80866668D01*
X68297238Y80866668D02*
X68249619Y80771430D01*
X68631333Y15769049D02*
X68631333Y16530953D01*
X69249619Y76723809D02*
X68249619Y76723809D01*
X69249619Y76247619D02*
X68249619Y76247619D01*
X68249619Y76247619D02*
X69249619Y75676191D01*
X69249619Y75676191D02*
X68249619Y75676191D01*
X68397238Y41961906D02*
X68349619Y42057144D01*
X68349619Y42057144D02*
X68349619Y42200001D01*
X68349619Y42200001D02*
X68397238Y42342858D01*
X68397238Y42342858D02*
X68492476Y42438096D01*
X68492476Y42438096D02*
X68587714Y42485715D01*
X68587714Y42485715D02*
X68778190Y42533334D01*
X68778190Y42533334D02*
X68921047Y42533334D01*
X68921047Y42533334D02*
X69111523Y42485715D01*
X69111523Y42485715D02*
X69206761Y42438096D01*
X69206761Y42438096D02*
X69302000Y42342858D01*
X69302000Y42342858D02*
X69349619Y42200001D01*
X69349619Y42200001D02*
X69349619Y42104763D01*
X69349619Y42104763D02*
X69302000Y41961906D01*
X69302000Y41961906D02*
X69254380Y41914287D01*
X69254380Y41914287D02*
X68921047Y41914287D01*
X68921047Y41914287D02*
X68921047Y42104763D01*
X69349619Y41485715D02*
X68349619Y41485715D01*
X68349619Y41485715D02*
X69349619Y40914287D01*
X69349619Y40914287D02*
X68349619Y40914287D01*
X69349619Y40438096D02*
X68349619Y40438096D01*
X68349619Y40438096D02*
X68349619Y40200001D01*
X68349619Y40200001D02*
X68397238Y40057144D01*
X68397238Y40057144D02*
X68492476Y39961906D01*
X68492476Y39961906D02*
X68587714Y39914287D01*
X68587714Y39914287D02*
X68778190Y39866668D01*
X68778190Y39866668D02*
X68921047Y39866668D01*
X68921047Y39866668D02*
X69111523Y39914287D01*
X69111523Y39914287D02*
X69206761Y39961906D01*
X69206761Y39961906D02*
X69302000Y40057144D01*
X69302000Y40057144D02*
X69349619Y40200001D01*
X69349619Y40200001D02*
X69349619Y40438096D01*
X69349619Y56985715D02*
X68349619Y56985715D01*
X68349619Y56985715D02*
X69349619Y56414287D01*
X69349619Y56414287D02*
X68349619Y56414287D01*
X69254380Y55366668D02*
X69302000Y55414287D01*
X69302000Y55414287D02*
X69349619Y55557144D01*
X69349619Y55557144D02*
X69349619Y55652382D01*
X69349619Y55652382D02*
X69302000Y55795239D01*
X69302000Y55795239D02*
X69206761Y55890477D01*
X69206761Y55890477D02*
X69111523Y55938096D01*
X69111523Y55938096D02*
X68921047Y55985715D01*
X68921047Y55985715D02*
X68778190Y55985715D01*
X68778190Y55985715D02*
X68587714Y55938096D01*
X68587714Y55938096D02*
X68492476Y55890477D01*
X68492476Y55890477D02*
X68397238Y55795239D01*
X68397238Y55795239D02*
X68349619Y55652382D01*
X68349619Y55652382D02*
X68349619Y55557144D01*
X68349619Y55557144D02*
X68397238Y55414287D01*
X68397238Y55414287D02*
X68444857Y55366668D01*
X68431333Y23669049D02*
X68431333Y24430953D01*
D12*
X25761904Y75695181D02*
X25761904Y74885658D01*
X25761904Y74885658D02*
X25714285Y74790420D01*
X25714285Y74790420D02*
X25666666Y74742800D01*
X25666666Y74742800D02*
X25571428Y74695181D01*
X25571428Y74695181D02*
X25380952Y74695181D01*
X25380952Y74695181D02*
X25285714Y74742800D01*
X25285714Y74742800D02*
X25238095Y74790420D01*
X25238095Y74790420D02*
X25190476Y74885658D01*
X25190476Y74885658D02*
X25190476Y75695181D01*
X24285714Y75361848D02*
X24285714Y74695181D01*
X24523809Y75742800D02*
X24761904Y75028515D01*
X24761904Y75028515D02*
X24142857Y75028515D01*
X42516666Y9755181D02*
X42849999Y10231372D01*
X43088094Y9755181D02*
X43088094Y10755181D01*
X43088094Y10755181D02*
X42707142Y10755181D01*
X42707142Y10755181D02*
X42611904Y10707562D01*
X42611904Y10707562D02*
X42564285Y10659943D01*
X42564285Y10659943D02*
X42516666Y10564705D01*
X42516666Y10564705D02*
X42516666Y10421848D01*
X42516666Y10421848D02*
X42564285Y10326610D01*
X42564285Y10326610D02*
X42611904Y10278991D01*
X42611904Y10278991D02*
X42707142Y10231372D01*
X42707142Y10231372D02*
X43088094Y10231372D01*
X42183332Y10755181D02*
X41564285Y10755181D01*
X41564285Y10755181D02*
X41897618Y10374229D01*
X41897618Y10374229D02*
X41754761Y10374229D01*
X41754761Y10374229D02*
X41659523Y10326610D01*
X41659523Y10326610D02*
X41611904Y10278991D01*
X41611904Y10278991D02*
X41564285Y10183753D01*
X41564285Y10183753D02*
X41564285Y9945658D01*
X41564285Y9945658D02*
X41611904Y9850420D01*
X41611904Y9850420D02*
X41659523Y9802800D01*
X41659523Y9802800D02*
X41754761Y9755181D01*
X41754761Y9755181D02*
X42040475Y9755181D01*
X42040475Y9755181D02*
X42135713Y9802800D01*
X42135713Y9802800D02*
X42183332Y9850420D01*
X35316666Y29495181D02*
X35649999Y29971372D01*
X35888094Y29495181D02*
X35888094Y30495181D01*
X35888094Y30495181D02*
X35507142Y30495181D01*
X35507142Y30495181D02*
X35411904Y30447562D01*
X35411904Y30447562D02*
X35364285Y30399943D01*
X35364285Y30399943D02*
X35316666Y30304705D01*
X35316666Y30304705D02*
X35316666Y30161848D01*
X35316666Y30161848D02*
X35364285Y30066610D01*
X35364285Y30066610D02*
X35411904Y30018991D01*
X35411904Y30018991D02*
X35507142Y29971372D01*
X35507142Y29971372D02*
X35888094Y29971372D01*
X34935713Y30399943D02*
X34888094Y30447562D01*
X34888094Y30447562D02*
X34792856Y30495181D01*
X34792856Y30495181D02*
X34554761Y30495181D01*
X34554761Y30495181D02*
X34459523Y30447562D01*
X34459523Y30447562D02*
X34411904Y30399943D01*
X34411904Y30399943D02*
X34364285Y30304705D01*
X34364285Y30304705D02*
X34364285Y30209467D01*
X34364285Y30209467D02*
X34411904Y30066610D01*
X34411904Y30066610D02*
X34983332Y29495181D01*
X34983332Y29495181D02*
X34364285Y29495181D01*
X20333333Y2245181D02*
X20333333Y1530896D01*
X20333333Y1530896D02*
X20380952Y1388039D01*
X20380952Y1388039D02*
X20476190Y1292800D01*
X20476190Y1292800D02*
X20619047Y1245181D01*
X20619047Y1245181D02*
X20714285Y1245181D01*
X19333333Y1245181D02*
X19904761Y1245181D01*
X19619047Y1245181D02*
X19619047Y2245181D01*
X19619047Y2245181D02*
X19714285Y2102324D01*
X19714285Y2102324D02*
X19809523Y2007086D01*
X19809523Y2007086D02*
X19904761Y1959467D01*
X52667143Y12458991D02*
X53000476Y12458991D01*
X53000476Y11935181D02*
X53000476Y12935181D01*
X53000476Y12935181D02*
X52524286Y12935181D01*
X51810000Y12458991D02*
X51667143Y12411372D01*
X51667143Y12411372D02*
X51619524Y12363753D01*
X51619524Y12363753D02*
X51571905Y12268515D01*
X51571905Y12268515D02*
X51571905Y12125658D01*
X51571905Y12125658D02*
X51619524Y12030420D01*
X51619524Y12030420D02*
X51667143Y11982800D01*
X51667143Y11982800D02*
X51762381Y11935181D01*
X51762381Y11935181D02*
X52143333Y11935181D01*
X52143333Y11935181D02*
X52143333Y12935181D01*
X52143333Y12935181D02*
X51810000Y12935181D01*
X51810000Y12935181D02*
X51714762Y12887562D01*
X51714762Y12887562D02*
X51667143Y12839943D01*
X51667143Y12839943D02*
X51619524Y12744705D01*
X51619524Y12744705D02*
X51619524Y12649467D01*
X51619524Y12649467D02*
X51667143Y12554229D01*
X51667143Y12554229D02*
X51714762Y12506610D01*
X51714762Y12506610D02*
X51810000Y12458991D01*
X51810000Y12458991D02*
X52143333Y12458991D01*
X51238571Y12935181D02*
X50619524Y12935181D01*
X50619524Y12935181D02*
X50952857Y12554229D01*
X50952857Y12554229D02*
X50810000Y12554229D01*
X50810000Y12554229D02*
X50714762Y12506610D01*
X50714762Y12506610D02*
X50667143Y12458991D01*
X50667143Y12458991D02*
X50619524Y12363753D01*
X50619524Y12363753D02*
X50619524Y12125658D01*
X50619524Y12125658D02*
X50667143Y12030420D01*
X50667143Y12030420D02*
X50714762Y11982800D01*
X50714762Y11982800D02*
X50810000Y11935181D01*
X50810000Y11935181D02*
X51095714Y11935181D01*
X51095714Y11935181D02*
X51190952Y11982800D01*
X51190952Y11982800D02*
X51238571Y12030420D01*
X18766666Y78640420D02*
X18814285Y78592800D01*
X18814285Y78592800D02*
X18957142Y78545181D01*
X18957142Y78545181D02*
X19052380Y78545181D01*
X19052380Y78545181D02*
X19195237Y78592800D01*
X19195237Y78592800D02*
X19290475Y78688039D01*
X19290475Y78688039D02*
X19338094Y78783277D01*
X19338094Y78783277D02*
X19385713Y78973753D01*
X19385713Y78973753D02*
X19385713Y79116610D01*
X19385713Y79116610D02*
X19338094Y79307086D01*
X19338094Y79307086D02*
X19290475Y79402324D01*
X19290475Y79402324D02*
X19195237Y79497562D01*
X19195237Y79497562D02*
X19052380Y79545181D01*
X19052380Y79545181D02*
X18957142Y79545181D01*
X18957142Y79545181D02*
X18814285Y79497562D01*
X18814285Y79497562D02*
X18766666Y79449943D01*
X18433332Y79545181D02*
X17814285Y79545181D01*
X17814285Y79545181D02*
X18147618Y79164229D01*
X18147618Y79164229D02*
X18004761Y79164229D01*
X18004761Y79164229D02*
X17909523Y79116610D01*
X17909523Y79116610D02*
X17861904Y79068991D01*
X17861904Y79068991D02*
X17814285Y78973753D01*
X17814285Y78973753D02*
X17814285Y78735658D01*
X17814285Y78735658D02*
X17861904Y78640420D01*
X17861904Y78640420D02*
X17909523Y78592800D01*
X17909523Y78592800D02*
X18004761Y78545181D01*
X18004761Y78545181D02*
X18290475Y78545181D01*
X18290475Y78545181D02*
X18385713Y78592800D01*
X18385713Y78592800D02*
X18433332Y78640420D01*
X35716666Y11195181D02*
X36049999Y11671372D01*
X36288094Y11195181D02*
X36288094Y12195181D01*
X36288094Y12195181D02*
X35907142Y12195181D01*
X35907142Y12195181D02*
X35811904Y12147562D01*
X35811904Y12147562D02*
X35764285Y12099943D01*
X35764285Y12099943D02*
X35716666Y12004705D01*
X35716666Y12004705D02*
X35716666Y11861848D01*
X35716666Y11861848D02*
X35764285Y11766610D01*
X35764285Y11766610D02*
X35811904Y11718991D01*
X35811904Y11718991D02*
X35907142Y11671372D01*
X35907142Y11671372D02*
X36288094Y11671372D01*
X34859523Y11861848D02*
X34859523Y11195181D01*
X35097618Y12242800D02*
X35335713Y11528515D01*
X35335713Y11528515D02*
X34716666Y11528515D01*
X52833333Y18468991D02*
X53166666Y18468991D01*
X53166666Y17945181D02*
X53166666Y18945181D01*
X53166666Y18945181D02*
X52690476Y18945181D01*
X51976190Y18468991D02*
X51833333Y18421372D01*
X51833333Y18421372D02*
X51785714Y18373753D01*
X51785714Y18373753D02*
X51738095Y18278515D01*
X51738095Y18278515D02*
X51738095Y18135658D01*
X51738095Y18135658D02*
X51785714Y18040420D01*
X51785714Y18040420D02*
X51833333Y17992800D01*
X51833333Y17992800D02*
X51928571Y17945181D01*
X51928571Y17945181D02*
X52309523Y17945181D01*
X52309523Y17945181D02*
X52309523Y18945181D01*
X52309523Y18945181D02*
X51976190Y18945181D01*
X51976190Y18945181D02*
X51880952Y18897562D01*
X51880952Y18897562D02*
X51833333Y18849943D01*
X51833333Y18849943D02*
X51785714Y18754705D01*
X51785714Y18754705D02*
X51785714Y18659467D01*
X51785714Y18659467D02*
X51833333Y18564229D01*
X51833333Y18564229D02*
X51880952Y18516610D01*
X51880952Y18516610D02*
X51976190Y18468991D01*
X51976190Y18468991D02*
X52309523Y18468991D01*
X50880952Y18611848D02*
X50880952Y17945181D01*
X51119047Y18992800D02*
X51357142Y18278515D01*
X51357142Y18278515D02*
X50738095Y18278515D01*
X23366666Y67625181D02*
X23699999Y68101372D01*
X23938094Y67625181D02*
X23938094Y68625181D01*
X23938094Y68625181D02*
X23557142Y68625181D01*
X23557142Y68625181D02*
X23461904Y68577562D01*
X23461904Y68577562D02*
X23414285Y68529943D01*
X23414285Y68529943D02*
X23366666Y68434705D01*
X23366666Y68434705D02*
X23366666Y68291848D01*
X23366666Y68291848D02*
X23414285Y68196610D01*
X23414285Y68196610D02*
X23461904Y68148991D01*
X23461904Y68148991D02*
X23557142Y68101372D01*
X23557142Y68101372D02*
X23938094Y68101372D01*
X22461904Y68625181D02*
X22938094Y68625181D01*
X22938094Y68625181D02*
X22985713Y68148991D01*
X22985713Y68148991D02*
X22938094Y68196610D01*
X22938094Y68196610D02*
X22842856Y68244229D01*
X22842856Y68244229D02*
X22604761Y68244229D01*
X22604761Y68244229D02*
X22509523Y68196610D01*
X22509523Y68196610D02*
X22461904Y68148991D01*
X22461904Y68148991D02*
X22414285Y68053753D01*
X22414285Y68053753D02*
X22414285Y67815658D01*
X22414285Y67815658D02*
X22461904Y67720420D01*
X22461904Y67720420D02*
X22509523Y67672800D01*
X22509523Y67672800D02*
X22604761Y67625181D01*
X22604761Y67625181D02*
X22842856Y67625181D01*
X22842856Y67625181D02*
X22938094Y67672800D01*
X22938094Y67672800D02*
X22985713Y67720420D01*
X43595714Y12515181D02*
X43595714Y11705658D01*
X43595714Y11705658D02*
X43548095Y11610420D01*
X43548095Y11610420D02*
X43500476Y11562800D01*
X43500476Y11562800D02*
X43405238Y11515181D01*
X43405238Y11515181D02*
X43214762Y11515181D01*
X43214762Y11515181D02*
X43119524Y11562800D01*
X43119524Y11562800D02*
X43071905Y11610420D01*
X43071905Y11610420D02*
X43024286Y11705658D01*
X43024286Y11705658D02*
X43024286Y12515181D01*
X42643333Y12515181D02*
X42024286Y12515181D01*
X42024286Y12515181D02*
X42357619Y12134229D01*
X42357619Y12134229D02*
X42214762Y12134229D01*
X42214762Y12134229D02*
X42119524Y12086610D01*
X42119524Y12086610D02*
X42071905Y12038991D01*
X42071905Y12038991D02*
X42024286Y11943753D01*
X42024286Y11943753D02*
X42024286Y11705658D01*
X42024286Y11705658D02*
X42071905Y11610420D01*
X42071905Y11610420D02*
X42119524Y11562800D01*
X42119524Y11562800D02*
X42214762Y11515181D01*
X42214762Y11515181D02*
X42500476Y11515181D01*
X42500476Y11515181D02*
X42595714Y11562800D01*
X42595714Y11562800D02*
X42643333Y11610420D01*
X48216666Y23440420D02*
X48264285Y23392800D01*
X48264285Y23392800D02*
X48407142Y23345181D01*
X48407142Y23345181D02*
X48502380Y23345181D01*
X48502380Y23345181D02*
X48645237Y23392800D01*
X48645237Y23392800D02*
X48740475Y23488039D01*
X48740475Y23488039D02*
X48788094Y23583277D01*
X48788094Y23583277D02*
X48835713Y23773753D01*
X48835713Y23773753D02*
X48835713Y23916610D01*
X48835713Y23916610D02*
X48788094Y24107086D01*
X48788094Y24107086D02*
X48740475Y24202324D01*
X48740475Y24202324D02*
X48645237Y24297562D01*
X48645237Y24297562D02*
X48502380Y24345181D01*
X48502380Y24345181D02*
X48407142Y24345181D01*
X48407142Y24345181D02*
X48264285Y24297562D01*
X48264285Y24297562D02*
X48216666Y24249943D01*
X47311904Y24345181D02*
X47788094Y24345181D01*
X47788094Y24345181D02*
X47835713Y23868991D01*
X47835713Y23868991D02*
X47788094Y23916610D01*
X47788094Y23916610D02*
X47692856Y23964229D01*
X47692856Y23964229D02*
X47454761Y23964229D01*
X47454761Y23964229D02*
X47359523Y23916610D01*
X47359523Y23916610D02*
X47311904Y23868991D01*
X47311904Y23868991D02*
X47264285Y23773753D01*
X47264285Y23773753D02*
X47264285Y23535658D01*
X47264285Y23535658D02*
X47311904Y23440420D01*
X47311904Y23440420D02*
X47359523Y23392800D01*
X47359523Y23392800D02*
X47454761Y23345181D01*
X47454761Y23345181D02*
X47692856Y23345181D01*
X47692856Y23345181D02*
X47788094Y23392800D01*
X47788094Y23392800D02*
X47835713Y23440420D01*
X18766666Y81640420D02*
X18814285Y81592800D01*
X18814285Y81592800D02*
X18957142Y81545181D01*
X18957142Y81545181D02*
X19052380Y81545181D01*
X19052380Y81545181D02*
X19195237Y81592800D01*
X19195237Y81592800D02*
X19290475Y81688039D01*
X19290475Y81688039D02*
X19338094Y81783277D01*
X19338094Y81783277D02*
X19385713Y81973753D01*
X19385713Y81973753D02*
X19385713Y82116610D01*
X19385713Y82116610D02*
X19338094Y82307086D01*
X19338094Y82307086D02*
X19290475Y82402324D01*
X19290475Y82402324D02*
X19195237Y82497562D01*
X19195237Y82497562D02*
X19052380Y82545181D01*
X19052380Y82545181D02*
X18957142Y82545181D01*
X18957142Y82545181D02*
X18814285Y82497562D01*
X18814285Y82497562D02*
X18766666Y82449943D01*
X17909523Y82211848D02*
X17909523Y81545181D01*
X18147618Y82592800D02*
X18385713Y81878515D01*
X18385713Y81878515D02*
X17766666Y81878515D01*
X23366666Y41025181D02*
X23699999Y41501372D01*
X23938094Y41025181D02*
X23938094Y42025181D01*
X23938094Y42025181D02*
X23557142Y42025181D01*
X23557142Y42025181D02*
X23461904Y41977562D01*
X23461904Y41977562D02*
X23414285Y41929943D01*
X23414285Y41929943D02*
X23366666Y41834705D01*
X23366666Y41834705D02*
X23366666Y41691848D01*
X23366666Y41691848D02*
X23414285Y41596610D01*
X23414285Y41596610D02*
X23461904Y41548991D01*
X23461904Y41548991D02*
X23557142Y41501372D01*
X23557142Y41501372D02*
X23938094Y41501372D01*
X22509523Y42025181D02*
X22699999Y42025181D01*
X22699999Y42025181D02*
X22795237Y41977562D01*
X22795237Y41977562D02*
X22842856Y41929943D01*
X22842856Y41929943D02*
X22938094Y41787086D01*
X22938094Y41787086D02*
X22985713Y41596610D01*
X22985713Y41596610D02*
X22985713Y41215658D01*
X22985713Y41215658D02*
X22938094Y41120420D01*
X22938094Y41120420D02*
X22890475Y41072800D01*
X22890475Y41072800D02*
X22795237Y41025181D01*
X22795237Y41025181D02*
X22604761Y41025181D01*
X22604761Y41025181D02*
X22509523Y41072800D01*
X22509523Y41072800D02*
X22461904Y41120420D01*
X22461904Y41120420D02*
X22414285Y41215658D01*
X22414285Y41215658D02*
X22414285Y41453753D01*
X22414285Y41453753D02*
X22461904Y41548991D01*
X22461904Y41548991D02*
X22509523Y41596610D01*
X22509523Y41596610D02*
X22604761Y41644229D01*
X22604761Y41644229D02*
X22795237Y41644229D01*
X22795237Y41644229D02*
X22890475Y41596610D01*
X22890475Y41596610D02*
X22938094Y41548991D01*
X22938094Y41548991D02*
X22985713Y41453753D01*
X18666666Y75245181D02*
X19142856Y75245181D01*
X19142856Y75245181D02*
X19142856Y76245181D01*
X17809523Y75245181D02*
X18380951Y75245181D01*
X18095237Y75245181D02*
X18095237Y76245181D01*
X18095237Y76245181D02*
X18190475Y76102324D01*
X18190475Y76102324D02*
X18285713Y76007086D01*
X18285713Y76007086D02*
X18380951Y75959467D01*
X10066666Y80490420D02*
X10114285Y80442800D01*
X10114285Y80442800D02*
X10257142Y80395181D01*
X10257142Y80395181D02*
X10352380Y80395181D01*
X10352380Y80395181D02*
X10495237Y80442800D01*
X10495237Y80442800D02*
X10590475Y80538039D01*
X10590475Y80538039D02*
X10638094Y80633277D01*
X10638094Y80633277D02*
X10685713Y80823753D01*
X10685713Y80823753D02*
X10685713Y80966610D01*
X10685713Y80966610D02*
X10638094Y81157086D01*
X10638094Y81157086D02*
X10590475Y81252324D01*
X10590475Y81252324D02*
X10495237Y81347562D01*
X10495237Y81347562D02*
X10352380Y81395181D01*
X10352380Y81395181D02*
X10257142Y81395181D01*
X10257142Y81395181D02*
X10114285Y81347562D01*
X10114285Y81347562D02*
X10066666Y81299943D01*
X9114285Y80395181D02*
X9685713Y80395181D01*
X9399999Y80395181D02*
X9399999Y81395181D01*
X9399999Y81395181D02*
X9495237Y81252324D01*
X9495237Y81252324D02*
X9590475Y81157086D01*
X9590475Y81157086D02*
X9685713Y81109467D01*
X52583333Y30618991D02*
X52916666Y30618991D01*
X52916666Y30095181D02*
X52916666Y31095181D01*
X52916666Y31095181D02*
X52440476Y31095181D01*
X51726190Y30618991D02*
X51583333Y30571372D01*
X51583333Y30571372D02*
X51535714Y30523753D01*
X51535714Y30523753D02*
X51488095Y30428515D01*
X51488095Y30428515D02*
X51488095Y30285658D01*
X51488095Y30285658D02*
X51535714Y30190420D01*
X51535714Y30190420D02*
X51583333Y30142800D01*
X51583333Y30142800D02*
X51678571Y30095181D01*
X51678571Y30095181D02*
X52059523Y30095181D01*
X52059523Y30095181D02*
X52059523Y31095181D01*
X52059523Y31095181D02*
X51726190Y31095181D01*
X51726190Y31095181D02*
X51630952Y31047562D01*
X51630952Y31047562D02*
X51583333Y30999943D01*
X51583333Y30999943D02*
X51535714Y30904705D01*
X51535714Y30904705D02*
X51535714Y30809467D01*
X51535714Y30809467D02*
X51583333Y30714229D01*
X51583333Y30714229D02*
X51630952Y30666610D01*
X51630952Y30666610D02*
X51726190Y30618991D01*
X51726190Y30618991D02*
X52059523Y30618991D01*
X51107142Y30999943D02*
X51059523Y31047562D01*
X51059523Y31047562D02*
X50964285Y31095181D01*
X50964285Y31095181D02*
X50726190Y31095181D01*
X50726190Y31095181D02*
X50630952Y31047562D01*
X50630952Y31047562D02*
X50583333Y30999943D01*
X50583333Y30999943D02*
X50535714Y30904705D01*
X50535714Y30904705D02*
X50535714Y30809467D01*
X50535714Y30809467D02*
X50583333Y30666610D01*
X50583333Y30666610D02*
X51154761Y30095181D01*
X51154761Y30095181D02*
X50535714Y30095181D01*
X25761904Y48895181D02*
X25761904Y48085658D01*
X25761904Y48085658D02*
X25714285Y47990420D01*
X25714285Y47990420D02*
X25666666Y47942800D01*
X25666666Y47942800D02*
X25571428Y47895181D01*
X25571428Y47895181D02*
X25380952Y47895181D01*
X25380952Y47895181D02*
X25285714Y47942800D01*
X25285714Y47942800D02*
X25238095Y47990420D01*
X25238095Y47990420D02*
X25190476Y48085658D01*
X25190476Y48085658D02*
X25190476Y48895181D01*
X24238095Y48895181D02*
X24714285Y48895181D01*
X24714285Y48895181D02*
X24761904Y48418991D01*
X24761904Y48418991D02*
X24714285Y48466610D01*
X24714285Y48466610D02*
X24619047Y48514229D01*
X24619047Y48514229D02*
X24380952Y48514229D01*
X24380952Y48514229D02*
X24285714Y48466610D01*
X24285714Y48466610D02*
X24238095Y48418991D01*
X24238095Y48418991D02*
X24190476Y48323753D01*
X24190476Y48323753D02*
X24190476Y48085658D01*
X24190476Y48085658D02*
X24238095Y47990420D01*
X24238095Y47990420D02*
X24285714Y47942800D01*
X24285714Y47942800D02*
X24380952Y47895181D01*
X24380952Y47895181D02*
X24619047Y47895181D01*
X24619047Y47895181D02*
X24714285Y47942800D01*
X24714285Y47942800D02*
X24761904Y47990420D01*
X39411904Y24295181D02*
X39411904Y23485658D01*
X39411904Y23485658D02*
X39364285Y23390420D01*
X39364285Y23390420D02*
X39316666Y23342800D01*
X39316666Y23342800D02*
X39221428Y23295181D01*
X39221428Y23295181D02*
X39030952Y23295181D01*
X39030952Y23295181D02*
X38935714Y23342800D01*
X38935714Y23342800D02*
X38888095Y23390420D01*
X38888095Y23390420D02*
X38840476Y23485658D01*
X38840476Y23485658D02*
X38840476Y24295181D01*
X38411904Y24199943D02*
X38364285Y24247562D01*
X38364285Y24247562D02*
X38269047Y24295181D01*
X38269047Y24295181D02*
X38030952Y24295181D01*
X38030952Y24295181D02*
X37935714Y24247562D01*
X37935714Y24247562D02*
X37888095Y24199943D01*
X37888095Y24199943D02*
X37840476Y24104705D01*
X37840476Y24104705D02*
X37840476Y24009467D01*
X37840476Y24009467D02*
X37888095Y23866610D01*
X37888095Y23866610D02*
X38459523Y23295181D01*
X38459523Y23295181D02*
X37840476Y23295181D01*
X9861904Y73845181D02*
X9861904Y73035658D01*
X9861904Y73035658D02*
X9814285Y72940420D01*
X9814285Y72940420D02*
X9766666Y72892800D01*
X9766666Y72892800D02*
X9671428Y72845181D01*
X9671428Y72845181D02*
X9480952Y72845181D01*
X9480952Y72845181D02*
X9385714Y72892800D01*
X9385714Y72892800D02*
X9338095Y72940420D01*
X9338095Y72940420D02*
X9290476Y73035658D01*
X9290476Y73035658D02*
X9290476Y73845181D01*
X8290476Y72845181D02*
X8861904Y72845181D01*
X8576190Y72845181D02*
X8576190Y73845181D01*
X8576190Y73845181D02*
X8671428Y73702324D01*
X8671428Y73702324D02*
X8766666Y73607086D01*
X8766666Y73607086D02*
X8861904Y73559467D01*
X52583333Y24258991D02*
X52916666Y24258991D01*
X52916666Y23735181D02*
X52916666Y24735181D01*
X52916666Y24735181D02*
X52440476Y24735181D01*
X51726190Y24258991D02*
X51583333Y24211372D01*
X51583333Y24211372D02*
X51535714Y24163753D01*
X51535714Y24163753D02*
X51488095Y24068515D01*
X51488095Y24068515D02*
X51488095Y23925658D01*
X51488095Y23925658D02*
X51535714Y23830420D01*
X51535714Y23830420D02*
X51583333Y23782800D01*
X51583333Y23782800D02*
X51678571Y23735181D01*
X51678571Y23735181D02*
X52059523Y23735181D01*
X52059523Y23735181D02*
X52059523Y24735181D01*
X52059523Y24735181D02*
X51726190Y24735181D01*
X51726190Y24735181D02*
X51630952Y24687562D01*
X51630952Y24687562D02*
X51583333Y24639943D01*
X51583333Y24639943D02*
X51535714Y24544705D01*
X51535714Y24544705D02*
X51535714Y24449467D01*
X51535714Y24449467D02*
X51583333Y24354229D01*
X51583333Y24354229D02*
X51630952Y24306610D01*
X51630952Y24306610D02*
X51726190Y24258991D01*
X51726190Y24258991D02*
X52059523Y24258991D01*
X50535714Y23735181D02*
X51107142Y23735181D01*
X50821428Y23735181D02*
X50821428Y24735181D01*
X50821428Y24735181D02*
X50916666Y24592324D01*
X50916666Y24592324D02*
X51011904Y24497086D01*
X51011904Y24497086D02*
X51107142Y24449467D01*
X12666666Y70140420D02*
X12714285Y70092800D01*
X12714285Y70092800D02*
X12857142Y70045181D01*
X12857142Y70045181D02*
X12952380Y70045181D01*
X12952380Y70045181D02*
X13095237Y70092800D01*
X13095237Y70092800D02*
X13190475Y70188039D01*
X13190475Y70188039D02*
X13238094Y70283277D01*
X13238094Y70283277D02*
X13285713Y70473753D01*
X13285713Y70473753D02*
X13285713Y70616610D01*
X13285713Y70616610D02*
X13238094Y70807086D01*
X13238094Y70807086D02*
X13190475Y70902324D01*
X13190475Y70902324D02*
X13095237Y70997562D01*
X13095237Y70997562D02*
X12952380Y71045181D01*
X12952380Y71045181D02*
X12857142Y71045181D01*
X12857142Y71045181D02*
X12714285Y70997562D01*
X12714285Y70997562D02*
X12666666Y70949943D01*
X12285713Y70949943D02*
X12238094Y70997562D01*
X12238094Y70997562D02*
X12142856Y71045181D01*
X12142856Y71045181D02*
X11904761Y71045181D01*
X11904761Y71045181D02*
X11809523Y70997562D01*
X11809523Y70997562D02*
X11761904Y70949943D01*
X11761904Y70949943D02*
X11714285Y70854705D01*
X11714285Y70854705D02*
X11714285Y70759467D01*
X11714285Y70759467D02*
X11761904Y70616610D01*
X11761904Y70616610D02*
X12333332Y70045181D01*
X12333332Y70045181D02*
X11714285Y70045181D01*
X40466666Y20895181D02*
X40799999Y21371372D01*
X41038094Y20895181D02*
X41038094Y21895181D01*
X41038094Y21895181D02*
X40657142Y21895181D01*
X40657142Y21895181D02*
X40561904Y21847562D01*
X40561904Y21847562D02*
X40514285Y21799943D01*
X40514285Y21799943D02*
X40466666Y21704705D01*
X40466666Y21704705D02*
X40466666Y21561848D01*
X40466666Y21561848D02*
X40514285Y21466610D01*
X40514285Y21466610D02*
X40561904Y21418991D01*
X40561904Y21418991D02*
X40657142Y21371372D01*
X40657142Y21371372D02*
X41038094Y21371372D01*
X39514285Y20895181D02*
X40085713Y20895181D01*
X39799999Y20895181D02*
X39799999Y21895181D01*
X39799999Y21895181D02*
X39895237Y21752324D01*
X39895237Y21752324D02*
X39990475Y21657086D01*
X39990475Y21657086D02*
X40085713Y21609467D01*
X48266666Y11790420D02*
X48314285Y11742800D01*
X48314285Y11742800D02*
X48457142Y11695181D01*
X48457142Y11695181D02*
X48552380Y11695181D01*
X48552380Y11695181D02*
X48695237Y11742800D01*
X48695237Y11742800D02*
X48790475Y11838039D01*
X48790475Y11838039D02*
X48838094Y11933277D01*
X48838094Y11933277D02*
X48885713Y12123753D01*
X48885713Y12123753D02*
X48885713Y12266610D01*
X48885713Y12266610D02*
X48838094Y12457086D01*
X48838094Y12457086D02*
X48790475Y12552324D01*
X48790475Y12552324D02*
X48695237Y12647562D01*
X48695237Y12647562D02*
X48552380Y12695181D01*
X48552380Y12695181D02*
X48457142Y12695181D01*
X48457142Y12695181D02*
X48314285Y12647562D01*
X48314285Y12647562D02*
X48266666Y12599943D01*
X47409523Y12695181D02*
X47599999Y12695181D01*
X47599999Y12695181D02*
X47695237Y12647562D01*
X47695237Y12647562D02*
X47742856Y12599943D01*
X47742856Y12599943D02*
X47838094Y12457086D01*
X47838094Y12457086D02*
X47885713Y12266610D01*
X47885713Y12266610D02*
X47885713Y11885658D01*
X47885713Y11885658D02*
X47838094Y11790420D01*
X47838094Y11790420D02*
X47790475Y11742800D01*
X47790475Y11742800D02*
X47695237Y11695181D01*
X47695237Y11695181D02*
X47504761Y11695181D01*
X47504761Y11695181D02*
X47409523Y11742800D01*
X47409523Y11742800D02*
X47361904Y11790420D01*
X47361904Y11790420D02*
X47314285Y11885658D01*
X47314285Y11885658D02*
X47314285Y12123753D01*
X47314285Y12123753D02*
X47361904Y12218991D01*
X47361904Y12218991D02*
X47409523Y12266610D01*
X47409523Y12266610D02*
X47504761Y12314229D01*
X47504761Y12314229D02*
X47695237Y12314229D01*
X47695237Y12314229D02*
X47790475Y12266610D01*
X47790475Y12266610D02*
X47838094Y12218991D01*
X47838094Y12218991D02*
X47885713Y12123753D01*
D10*
%TO.C,U4*%
X22690000Y74310000D02*
X25000000Y74310000D01*
X22690000Y74095000D02*
X22690000Y74310000D01*
X22690000Y71705000D02*
X22690000Y71490000D01*
X22690000Y71490000D02*
X25000000Y71490000D01*
X27310000Y74310000D02*
X25000000Y74310000D01*
X27310000Y74095000D02*
X27310000Y74310000D01*
X27310000Y71705000D02*
X27310000Y71490000D01*
X27310000Y71490000D02*
X25000000Y71490000D01*
X28100000Y74095000D02*
X27860000Y74425000D01*
X28340000Y74425000D01*
X28100000Y74095000D01*
G36*
X28100000Y74095000D02*
G01*
X27860000Y74425000D01*
X28340000Y74425000D01*
X28100000Y74095000D01*
G37*
%TO.C,R3*%
X39273810Y10937064D02*
X39273810Y9482936D01*
X41093810Y10937064D02*
X41093810Y9482936D01*
%TO.C,R2*%
X36490000Y31677064D02*
X36490000Y30222936D01*
X38310000Y31677064D02*
X38310000Y30222936D01*
%TO.C,J1*%
X16900000Y5185000D02*
X17950000Y5185000D01*
X16900000Y2685000D02*
X16900000Y5185000D01*
X21950000Y715000D02*
X18070000Y715000D01*
X22070000Y5185000D02*
X22070000Y6175000D01*
X23120000Y5185000D02*
X22070000Y5185000D01*
X23120000Y2685000D02*
X23120000Y5185000D01*
%TO.C,FB3*%
X52560874Y15120000D02*
X51106746Y15120000D01*
X52560874Y13300000D02*
X51106746Y13300000D01*
%TO.C,C3*%
X14488748Y79910000D02*
X15911252Y79910000D01*
X14488748Y78090000D02*
X15911252Y78090000D01*
%TO.C,R4*%
X36673810Y10982936D02*
X36673810Y12437064D01*
X38493810Y10982936D02*
X38493810Y12437064D01*
%TO.C,FB4*%
X52560874Y17810000D02*
X51106746Y17810000D01*
X52560874Y15990000D02*
X51106746Y15990000D01*
%TO.C,R5*%
X23927064Y70810000D02*
X22472936Y70810000D01*
X23927064Y68990000D02*
X22472936Y68990000D01*
%TO.C,U3*%
X40833810Y18070000D02*
X42783810Y18070000D01*
X40833810Y12950000D02*
X42783810Y12950000D01*
X44733810Y18070000D02*
X42783810Y18070000D01*
X44733810Y12950000D02*
X42783810Y12950000D01*
X45483810Y17975000D02*
X45243810Y18305000D01*
X45723810Y18305000D01*
X45483810Y17975000D01*
G36*
X45483810Y17975000D02*
G01*
X45243810Y18305000D01*
X45723810Y18305000D01*
X45483810Y17975000D01*
G37*
%TO.C,C5*%
X47040000Y28011252D02*
X47040000Y26588748D01*
X48860000Y28011252D02*
X48860000Y26588748D01*
%TO.C,C4*%
X14488748Y82910000D02*
X15911252Y82910000D01*
X14488748Y81090000D02*
X15911252Y81090000D01*
%TO.C,R6*%
X23927064Y44210000D02*
X22472936Y44210000D01*
X23927064Y42390000D02*
X22472936Y42390000D01*
%TO.C,L1*%
X14597936Y77060000D02*
X15802064Y77060000D01*
X14597936Y74340000D02*
X15802064Y74340000D01*
%TO.C,C1*%
X10611252Y79910000D02*
X9188748Y79910000D01*
X10611252Y78090000D02*
X9188748Y78090000D01*
%TO.C,FB2*%
X52477064Y29610000D02*
X51022936Y29610000D01*
X52477064Y27790000D02*
X51022936Y27790000D01*
%TO.C,U5*%
X22690000Y47510000D02*
X25000000Y47510000D01*
X22690000Y47295000D02*
X22690000Y47510000D01*
X22690000Y44905000D02*
X22690000Y44690000D01*
X22690000Y44690000D02*
X25000000Y44690000D01*
X27310000Y47510000D02*
X25000000Y47510000D01*
X27310000Y47295000D02*
X27310000Y47510000D01*
X27310000Y44905000D02*
X27310000Y44690000D01*
X27310000Y44690000D02*
X25000000Y44690000D01*
X28100000Y47295000D02*
X27860000Y47625000D01*
X28340000Y47625000D01*
X28100000Y47295000D01*
G36*
X28100000Y47295000D02*
G01*
X27860000Y47625000D01*
X28340000Y47625000D01*
X28100000Y47295000D01*
G37*
%TO.C,U2*%
X40750000Y29870000D02*
X42700000Y29870000D01*
X40750000Y24750000D02*
X42700000Y24750000D01*
X44650000Y29870000D02*
X42700000Y29870000D01*
X44650000Y24750000D02*
X42700000Y24750000D01*
X45400000Y29775000D02*
X45160000Y30105000D01*
X45640000Y30105000D01*
X45400000Y29775000D01*
G36*
X45400000Y29775000D02*
G01*
X45160000Y30105000D01*
X45640000Y30105000D01*
X45400000Y29775000D01*
G37*
%TO.C,U1*%
X10100000Y77260000D02*
X9300000Y77260000D01*
X10100000Y77260000D02*
X10900000Y77260000D01*
X10100000Y74140000D02*
X8300000Y74140000D01*
X10100000Y74140000D02*
X10900000Y74140000D01*
%TO.C,FB1*%
X52477064Y26920000D02*
X51022936Y26920000D01*
X52477064Y25100000D02*
X51022936Y25100000D01*
%TO.C,C2*%
X13211252Y73110000D02*
X11788748Y73110000D01*
X13211252Y71290000D02*
X11788748Y71290000D01*
%TO.C,R1*%
X41472936Y24110000D02*
X42927064Y24110000D01*
X41472936Y22290000D02*
X42927064Y22290000D01*
%TO.C,C6*%
X47123810Y16211252D02*
X47123810Y14788748D01*
X48943810Y16211252D02*
X48943810Y14788748D01*
%TD*%
M02*
