%TF.GenerationSoftware,KiCad,Pcbnew,8.0.5*%
%TF.CreationDate,2024-09-29T22:12:38-04:00*%
%TF.ProjectId,BREAD_Slice,42524541-445f-4536-9c69-63652e6b6963,rev?*%
%TF.SameCoordinates,PX74eba40PY8552dc0*%
%TF.FileFunction,Soldermask,Bot*%
%TF.FilePolarity,Negative*%
%FSLAX46Y46*%
G04 Gerber Fmt 4.6, Leading zero omitted, Abs format (unit mm)*
G04 Created by KiCad (PCBNEW 8.0.5) date 2024-09-29 22:12:38*
%MOMM*%
%LPD*%
G01*
G04 APERTURE LIST*
G04 Aperture macros list*
%AMRoundRect*
0 Rectangle with rounded corners*
0 $1 Rounding radius*
0 $2 $3 $4 $5 $6 $7 $8 $9 X,Y pos of 4 corners*
0 Add a 4 corners polygon primitive as box body*
4,1,4,$2,$3,$4,$5,$6,$7,$8,$9,$2,$3,0*
0 Add four circle primitives for the rounded corners*
1,1,$1+$1,$2,$3*
1,1,$1+$1,$4,$5*
1,1,$1+$1,$6,$7*
1,1,$1+$1,$8,$9*
0 Add four rect primitives between the rounded corners*
20,1,$1+$1,$2,$3,$4,$5,0*
20,1,$1+$1,$4,$5,$6,$7,0*
20,1,$1+$1,$6,$7,$8,$9,0*
20,1,$1+$1,$8,$9,$2,$3,0*%
G04 Aperture macros list end*
%ADD10C,5.100000*%
%ADD11RoundRect,0.050000X-0.800000X-0.800000X0.800000X-0.800000X0.800000X0.800000X-0.800000X0.800000X0*%
%ADD12O,1.700000X1.700000*%
%ADD13RoundRect,0.050000X-0.850000X-0.850000X0.850000X-0.850000X0.850000X0.850000X-0.850000X0.850000X0*%
%ADD14O,1.800000X1.800000*%
%ADD15RoundRect,0.050000X-0.800000X0.800000X-0.800000X-0.800000X0.800000X-0.800000X0.800000X0.800000X0*%
%ADD16C,1.200000*%
%ADD17RoundRect,0.050000X1.100000X-1.100000X1.100000X1.100000X-1.100000X1.100000X-1.100000X-1.100000X0*%
%ADD18C,2.300000*%
%ADD19RoundRect,0.575000X-0.575000X-0.575000X0.575000X-0.575000X0.575000X0.575000X-0.575000X0.575000X0*%
%ADD20RoundRect,0.050000X1.150000X1.150000X-1.150000X1.150000X-1.150000X-1.150000X1.150000X-1.150000X0*%
%ADD21C,2.400000*%
%ADD22RoundRect,0.050000X-1.300000X1.300000X-1.300000X-1.300000X1.300000X-1.300000X1.300000X1.300000X0*%
%ADD23C,2.700000*%
%ADD24RoundRect,0.175000X0.687500X0.175000X-0.687500X0.175000X-0.687500X-0.175000X0.687500X-0.175000X0*%
%ADD25RoundRect,0.269231X0.655769X-0.430769X0.655769X0.430769X-0.655769X0.430769X-0.655769X-0.430769X0*%
%ADD26RoundRect,0.175000X0.175000X0.650000X-0.175000X0.650000X-0.175000X-0.650000X0.175000X-0.650000X0*%
%ADD27RoundRect,0.270833X0.379167X0.679167X-0.379167X0.679167X-0.379167X-0.679167X0.379167X-0.679167X0*%
%ADD28RoundRect,0.269231X-0.430769X-0.655769X0.430769X-0.655769X0.430769X0.655769X-0.430769X0.655769X0*%
%ADD29RoundRect,0.271739X-0.353261X-0.678261X0.353261X-0.678261X0.353261X0.678261X-0.353261X0.678261X0*%
%ADD30RoundRect,0.269231X-0.655769X0.430769X-0.655769X-0.430769X0.655769X-0.430769X0.655769X0.430769X0*%
%ADD31RoundRect,0.175000X0.850000X0.175000X-0.850000X0.175000X-0.850000X-0.175000X0.850000X-0.175000X0*%
%ADD32RoundRect,0.268868X0.681132X-0.443632X0.681132X0.443632X-0.681132X0.443632X-0.681132X-0.443632X0*%
%ADD33RoundRect,0.270000X-0.405000X-1.105000X0.405000X-1.105000X0.405000X1.105000X-0.405000X1.105000X0*%
%ADD34RoundRect,0.271739X0.353261X0.678261X-0.353261X0.678261X-0.353261X-0.678261X0.353261X-0.678261X0*%
%ADD35RoundRect,0.175000X-0.537500X-0.175000X0.537500X-0.175000X0.537500X0.175000X-0.537500X0.175000X0*%
%ADD36RoundRect,0.269231X0.430769X0.655769X-0.430769X0.655769X-0.430769X-0.655769X0.430769X-0.655769X0*%
G04 APERTURE END LIST*
D10*
%TO.C,H1*%
X5000000Y95000000D03*
%TD*%
%TO.C,H3*%
X65000000Y95000000D03*
%TD*%
%TO.C,H2*%
X5000000Y5000000D03*
%TD*%
%TO.C,H4*%
X65000000Y5000000D03*
%TD*%
D11*
%TO.C,A1*%
X12400000Y39800000D03*
D12*
X12400000Y37260000D03*
X12400000Y34720000D03*
X12400000Y32180000D03*
X12400000Y29640000D03*
X12400000Y27100000D03*
X12400000Y24560000D03*
X12400000Y22020000D03*
X12400000Y19480000D03*
X12400000Y16940000D03*
X12400000Y14400000D03*
X12400000Y11860000D03*
X12400000Y9320000D03*
X12400000Y6780000D03*
X12400000Y4240000D03*
X27640000Y4240000D03*
X27640000Y6780000D03*
X27640000Y9320000D03*
X27640000Y11860000D03*
X27640000Y14400000D03*
X27640000Y16940000D03*
X27640000Y19480000D03*
X27640000Y22020000D03*
X27640000Y24560000D03*
X27640000Y27100000D03*
X27640000Y29640000D03*
X27640000Y32180000D03*
X27640000Y34720000D03*
X27640000Y37260000D03*
X27640000Y39800000D03*
%TD*%
D13*
%TO.C,J2*%
X3600000Y61450000D03*
D14*
X3600000Y58910000D03*
X3600000Y56370000D03*
X3600000Y53830000D03*
X3600000Y51290000D03*
X3600000Y48750000D03*
X3600000Y46210000D03*
X3600000Y43670000D03*
X3600000Y41130000D03*
X3600000Y38590000D03*
%TD*%
D15*
%TO.C,D3*%
X23400000Y57910000D03*
D12*
X23400000Y50290000D03*
%TD*%
D16*
%TO.C,J3*%
X66040000Y20800000D03*
X66040000Y23340000D03*
D17*
X63500000Y20800000D03*
D18*
X63500000Y23340000D03*
%TD*%
D19*
%TO.C,F2*%
X24700000Y66900000D03*
X24700000Y61900000D03*
D18*
X42500000Y66900000D03*
X42500000Y61900000D03*
%TD*%
D20*
%TO.C,K2*%
X27425000Y50300000D03*
D21*
X37585000Y50300000D03*
X45205000Y50300000D03*
X42665000Y57920000D03*
X27425000Y57920000D03*
%TD*%
D19*
%TO.C,F1*%
X25800000Y95100000D03*
X25800000Y90100000D03*
D18*
X43600000Y95100000D03*
X43600000Y90100000D03*
%TD*%
D15*
%TO.C,D2*%
X23400000Y84510000D03*
D12*
X23400000Y76890000D03*
%TD*%
D22*
%TO.C,J5*%
X64000000Y86100000D03*
D23*
X64000000Y81020000D03*
X64000000Y75940000D03*
X64000000Y70860000D03*
X64000000Y65780000D03*
X64000000Y60700000D03*
%TD*%
D16*
%TO.C,J4*%
X66040000Y12960000D03*
X66040000Y15500000D03*
D17*
X63500000Y12960000D03*
D18*
X63500000Y15500000D03*
%TD*%
D20*
%TO.C,K1*%
X27425000Y76900000D03*
D21*
X37585000Y76900000D03*
X45205000Y76900000D03*
X42665000Y84520000D03*
X27425000Y84520000D03*
%TD*%
D22*
%TO.C,J6*%
X63995000Y54200000D03*
D23*
X63995000Y49120000D03*
X63995000Y44040000D03*
X63995000Y38960000D03*
X63995000Y33880000D03*
X63995000Y28800000D03*
%TD*%
D24*
%TO.C,U4*%
X28187500Y73535000D03*
X28187500Y72265000D03*
X21812500Y72265000D03*
X21812500Y73535000D03*
%TD*%
D25*
%TO.C,R3*%
X40183810Y8660000D03*
X40183810Y11760000D03*
%TD*%
%TO.C,R2*%
X37400000Y29400000D03*
X37400000Y32500000D03*
%TD*%
D26*
%TO.C,J1*%
X21510000Y5400000D03*
X20510000Y5400000D03*
X19510000Y5400000D03*
X18510000Y5400000D03*
D27*
X22810000Y1525000D03*
X17210000Y1525000D03*
%TD*%
D28*
%TO.C,FB3*%
X50283810Y14210000D03*
X53383810Y14210000D03*
%TD*%
D29*
%TO.C,C3*%
X13725000Y79000000D03*
X16675000Y79000000D03*
%TD*%
D30*
%TO.C,R4*%
X37583810Y13260000D03*
X37583810Y10160000D03*
%TD*%
D28*
%TO.C,FB4*%
X50283810Y16900000D03*
X53383810Y16900000D03*
%TD*%
%TO.C,R5*%
X21650000Y69900000D03*
X24750000Y69900000D03*
%TD*%
D31*
%TO.C,U3*%
X45258810Y17415000D03*
X45258810Y16145000D03*
X45258810Y14875000D03*
X45258810Y13605000D03*
X40308810Y13605000D03*
X40308810Y14875000D03*
X40308810Y16145000D03*
X40308810Y17415000D03*
%TD*%
D32*
%TO.C,C5*%
X47950000Y25737500D03*
X47950000Y28862500D03*
%TD*%
D29*
%TO.C,C4*%
X13725000Y82000000D03*
X16675000Y82000000D03*
%TD*%
D28*
%TO.C,R6*%
X21650000Y43300000D03*
X24750000Y43300000D03*
%TD*%
D33*
%TO.C,L1*%
X13800000Y75700000D03*
X16600000Y75700000D03*
%TD*%
D34*
%TO.C,C1*%
X11375000Y79000000D03*
X8425000Y79000000D03*
%TD*%
D28*
%TO.C,FB2*%
X50200000Y28700000D03*
X53300000Y28700000D03*
%TD*%
D24*
%TO.C,U5*%
X28187500Y46735000D03*
X28187500Y45465000D03*
X21812500Y45465000D03*
X21812500Y46735000D03*
%TD*%
D31*
%TO.C,U2*%
X45175000Y29215000D03*
X45175000Y27945000D03*
X45175000Y26675000D03*
X45175000Y25405000D03*
X40225000Y25405000D03*
X40225000Y26675000D03*
X40225000Y27945000D03*
X40225000Y29215000D03*
%TD*%
D35*
%TO.C,U1*%
X8962500Y74750000D03*
X8962500Y75700000D03*
X8962500Y76650000D03*
X11237500Y76650000D03*
X11237500Y75700000D03*
X11237500Y74750000D03*
%TD*%
D28*
%TO.C,FB1*%
X50200000Y26010000D03*
X53300000Y26010000D03*
%TD*%
D34*
%TO.C,C2*%
X13975000Y72200000D03*
X11025000Y72200000D03*
%TD*%
D36*
%TO.C,R1*%
X43750000Y23200000D03*
X40650000Y23200000D03*
%TD*%
D32*
%TO.C,C6*%
X48033810Y13937500D03*
X48033810Y17062500D03*
%TD*%
M02*
