%TF.GenerationSoftware,KiCad,Pcbnew,8.0.5*%
%TF.CreationDate,2024-09-29T22:12:38-04:00*%
%TF.ProjectId,BREAD_Slice,42524541-445f-4536-9c69-63652e6b6963,rev?*%
%TF.SameCoordinates,PX74eba40PY8552dc0*%
%TF.FileFunction,Copper,L2,Bot*%
%TF.FilePolarity,Positive*%
%FSLAX46Y46*%
G04 Gerber Fmt 4.6, Leading zero omitted, Abs format (unit mm)*
G04 Created by KiCad (PCBNEW 8.0.5) date 2024-09-29 22:12:38*
%MOMM*%
%LPD*%
G01*
G04 APERTURE LIST*
G04 Aperture macros list*
%AMRoundRect*
0 Rectangle with rounded corners*
0 $1 Rounding radius*
0 $2 $3 $4 $5 $6 $7 $8 $9 X,Y pos of 4 corners*
0 Add a 4 corners polygon primitive as box body*
4,1,4,$2,$3,$4,$5,$6,$7,$8,$9,$2,$3,0*
0 Add four circle primitives for the rounded corners*
1,1,$1+$1,$2,$3*
1,1,$1+$1,$4,$5*
1,1,$1+$1,$6,$7*
1,1,$1+$1,$8,$9*
0 Add four rect primitives between the rounded corners*
20,1,$1+$1,$2,$3,$4,$5,0*
20,1,$1+$1,$4,$5,$6,$7,0*
20,1,$1+$1,$6,$7,$8,$9,0*
20,1,$1+$1,$8,$9,$2,$3,0*%
G04 Aperture macros list end*
%TA.AperFunction,ComponentPad*%
%ADD10R,1.600000X1.600000*%
%TD*%
%TA.AperFunction,ComponentPad*%
%ADD11O,1.600000X1.600000*%
%TD*%
%TA.AperFunction,ComponentPad*%
%ADD12R,1.700000X1.700000*%
%TD*%
%TA.AperFunction,ComponentPad*%
%ADD13O,1.700000X1.700000*%
%TD*%
%TA.AperFunction,ComponentPad*%
%ADD14R,2.200000X2.200000*%
%TD*%
%TA.AperFunction,ComponentPad*%
%ADD15C,2.200000*%
%TD*%
%TA.AperFunction,ComponentPad*%
%ADD16RoundRect,0.550000X-0.550000X-0.550000X0.550000X-0.550000X0.550000X0.550000X-0.550000X0.550000X0*%
%TD*%
%TA.AperFunction,ComponentPad*%
%ADD17R,2.300000X2.300000*%
%TD*%
%TA.AperFunction,ComponentPad*%
%ADD18C,2.300000*%
%TD*%
%TA.AperFunction,ComponentPad*%
%ADD19R,2.600000X2.600000*%
%TD*%
%TA.AperFunction,ComponentPad*%
%ADD20C,2.600000*%
%TD*%
%TA.AperFunction,SMDPad,CuDef*%
%ADD21RoundRect,0.150000X0.662500X0.150000X-0.662500X0.150000X-0.662500X-0.150000X0.662500X-0.150000X0*%
%TD*%
%TA.AperFunction,SMDPad,CuDef*%
%ADD22RoundRect,0.250000X0.625000X-0.400000X0.625000X0.400000X-0.625000X0.400000X-0.625000X-0.400000X0*%
%TD*%
%TA.AperFunction,SMDPad,CuDef*%
%ADD23RoundRect,0.150000X0.150000X0.625000X-0.150000X0.625000X-0.150000X-0.625000X0.150000X-0.625000X0*%
%TD*%
%TA.AperFunction,SMDPad,CuDef*%
%ADD24RoundRect,0.250000X0.350000X0.650000X-0.350000X0.650000X-0.350000X-0.650000X0.350000X-0.650000X0*%
%TD*%
%TA.AperFunction,SMDPad,CuDef*%
%ADD25RoundRect,0.250000X-0.400000X-0.625000X0.400000X-0.625000X0.400000X0.625000X-0.400000X0.625000X0*%
%TD*%
%TA.AperFunction,SMDPad,CuDef*%
%ADD26RoundRect,0.250000X-0.325000X-0.650000X0.325000X-0.650000X0.325000X0.650000X-0.325000X0.650000X0*%
%TD*%
%TA.AperFunction,SMDPad,CuDef*%
%ADD27RoundRect,0.250000X-0.625000X0.400000X-0.625000X-0.400000X0.625000X-0.400000X0.625000X0.400000X0*%
%TD*%
%TA.AperFunction,SMDPad,CuDef*%
%ADD28RoundRect,0.150000X0.825000X0.150000X-0.825000X0.150000X-0.825000X-0.150000X0.825000X-0.150000X0*%
%TD*%
%TA.AperFunction,SMDPad,CuDef*%
%ADD29RoundRect,0.250000X0.650000X-0.412500X0.650000X0.412500X-0.650000X0.412500X-0.650000X-0.412500X0*%
%TD*%
%TA.AperFunction,SMDPad,CuDef*%
%ADD30RoundRect,0.250000X-0.375000X-1.075000X0.375000X-1.075000X0.375000X1.075000X-0.375000X1.075000X0*%
%TD*%
%TA.AperFunction,SMDPad,CuDef*%
%ADD31RoundRect,0.250000X0.325000X0.650000X-0.325000X0.650000X-0.325000X-0.650000X0.325000X-0.650000X0*%
%TD*%
%TA.AperFunction,SMDPad,CuDef*%
%ADD32RoundRect,0.150000X-0.512500X-0.150000X0.512500X-0.150000X0.512500X0.150000X-0.512500X0.150000X0*%
%TD*%
%TA.AperFunction,SMDPad,CuDef*%
%ADD33RoundRect,0.250000X0.400000X0.625000X-0.400000X0.625000X-0.400000X-0.625000X0.400000X-0.625000X0*%
%TD*%
%TA.AperFunction,ViaPad*%
%ADD34C,0.800000*%
%TD*%
%TA.AperFunction,ViaPad*%
%ADD35C,0.500000*%
%TD*%
%TA.AperFunction,ViaPad*%
%ADD36C,1.500000*%
%TD*%
%TA.AperFunction,Conductor*%
%ADD37C,0.500000*%
%TD*%
%TA.AperFunction,Conductor*%
%ADD38C,1.500000*%
%TD*%
%TA.AperFunction,Conductor*%
%ADD39C,1.000000*%
%TD*%
%TA.AperFunction,Conductor*%
%ADD40C,3.000000*%
%TD*%
G04 APERTURE END LIST*
D10*
%TO.P,A1,1,D1/TX*%
%TO.N,unconnected-(A1-D1{slash}TX-Pad1)*%
X12400000Y39800000D03*
D11*
%TO.P,A1,2,D0/RX*%
%TO.N,unconnected-(A1-D0{slash}RX-Pad2)*%
X12400000Y37260000D03*
%TO.P,A1,3,~{RESET}*%
%TO.N,unconnected-(A1-~{RESET}-Pad3)*%
X12400000Y34720000D03*
%TO.P,A1,4,GND*%
%TO.N,GND*%
X12400000Y32180000D03*
%TO.P,A1,5,D2*%
%TO.N,/E_STOP*%
X12400000Y29640000D03*
%TO.P,A1,6,D3*%
%TO.N,/INT*%
X12400000Y27100000D03*
%TO.P,A1,7,D4*%
%TO.N,/SYNC*%
X12400000Y24560000D03*
%TO.P,A1,8,D5*%
%TO.N,/LED*%
X12400000Y22020000D03*
%TO.P,A1,9,D6*%
%TO.N,/Relay1*%
X12400000Y19480000D03*
%TO.P,A1,10,D7*%
%TO.N,/Relay2*%
X12400000Y16940000D03*
%TO.P,A1,11,D8*%
%TO.N,unconnected-(A1-D8-Pad11)*%
X12400000Y14400000D03*
%TO.P,A1,12,D9*%
%TO.N,unconnected-(A1-D9-Pad12)*%
X12400000Y11860000D03*
%TO.P,A1,13,D10*%
%TO.N,/SS1*%
X12400000Y9320000D03*
%TO.P,A1,14,D11*%
%TO.N,/TC_DATA*%
X12400000Y6780000D03*
%TO.P,A1,15,D12*%
%TO.N,/SS2*%
X12400000Y4240000D03*
%TO.P,A1,16,D13*%
%TO.N,/TC_CLK*%
X27640000Y4240000D03*
%TO.P,A1,17,3V3*%
%TO.N,unconnected-(A1-3V3-Pad17)*%
X27640000Y6780000D03*
%TO.P,A1,18,AREF*%
%TO.N,unconnected-(A1-AREF-Pad18)*%
X27640000Y9320000D03*
%TO.P,A1,19,A0*%
%TO.N,unconnected-(A1-A0-Pad19)*%
X27640000Y11860000D03*
%TO.P,A1,20,A1*%
%TO.N,unconnected-(A1-A1-Pad20)*%
X27640000Y14400000D03*
%TO.P,A1,21,A2*%
%TO.N,unconnected-(A1-A2-Pad21)*%
X27640000Y16940000D03*
%TO.P,A1,22,A3*%
%TO.N,unconnected-(A1-A3-Pad22)*%
X27640000Y19480000D03*
%TO.P,A1,23,A4*%
%TO.N,/I2C_DAT*%
X27640000Y22020000D03*
%TO.P,A1,24,A5*%
%TO.N,/I2C_TC_CLK*%
X27640000Y24560000D03*
%TO.P,A1,25,A6*%
%TO.N,unconnected-(A1-A6-Pad25)*%
X27640000Y27100000D03*
%TO.P,A1,26,A7*%
%TO.N,unconnected-(A1-A7-Pad26)*%
X27640000Y29640000D03*
%TO.P,A1,27,+5V*%
%TO.N,+5V*%
X27640000Y32180000D03*
%TO.P,A1,28,~{RESET}*%
%TO.N,unconnected-(A1-~{RESET}-Pad28)*%
X27640000Y34720000D03*
%TO.P,A1,29,GND*%
%TO.N,GND*%
X27640000Y37260000D03*
%TO.P,A1,30,VIN*%
%TO.N,unconnected-(A1-VIN-Pad30)*%
X27640000Y39800000D03*
%TD*%
D12*
%TO.P,J2,1,Pin_1*%
%TO.N,GND*%
X3600000Y61450000D03*
D13*
%TO.P,J2,2,Pin_2*%
%TO.N,+12V*%
X3600000Y58910000D03*
%TO.P,J2,3,Pin_3*%
%TO.N,/I2C_TC_CLK*%
X3600000Y56370000D03*
%TO.P,J2,4,Pin_4*%
%TO.N,/I2C_DAT*%
X3600000Y53830000D03*
%TO.P,J2,5,Pin_5*%
%TO.N,GND*%
X3600000Y51290000D03*
%TO.P,J2,6,Pin_6*%
%TO.N,/E_STOP*%
X3600000Y48750000D03*
%TO.P,J2,7,Pin_7*%
%TO.N,/INT*%
X3600000Y46210000D03*
%TO.P,J2,8,Pin_8*%
%TO.N,/SYNC*%
X3600000Y43670000D03*
%TO.P,J2,9,Pin_9*%
%TO.N,+12V*%
X3600000Y41130000D03*
%TO.P,J2,10,Pin_10*%
%TO.N,GND*%
X3600000Y38590000D03*
%TD*%
D10*
%TO.P,D3,1,K*%
%TO.N,+12V*%
X23400000Y57910000D03*
D11*
%TO.P,D3,2,A*%
%TO.N,Net-(D3-A)*%
X23400000Y50290000D03*
%TD*%
D14*
%TO.P,J3,1,Pin_1*%
%TO.N,/MAX31855K/T+*%
X63500000Y20800000D03*
D15*
%TO.P,J3,2,Pin_2*%
%TO.N,/MAX31855K/T-*%
X63500000Y23340000D03*
%TD*%
D16*
%TO.P,F2,1*%
%TO.N,Net-(J6-Pin_6)*%
X24700000Y66900000D03*
X24700000Y61900000D03*
D15*
%TO.P,F2,2*%
%TO.N,/Relay1/IN*%
X42500000Y66900000D03*
X42500000Y61900000D03*
%TD*%
D17*
%TO.P,K2,1*%
%TO.N,Net-(D3-A)*%
X27425000Y50300000D03*
D18*
%TO.P,K2,2*%
%TO.N,/Relay1/IN*%
X37585000Y50300000D03*
%TO.P,K2,3*%
%TO.N,/Relay1/NO*%
X45205000Y50300000D03*
%TO.P,K2,4*%
%TO.N,/Relay1/NC*%
X42665000Y57920000D03*
%TO.P,K2,5*%
%TO.N,+12V*%
X27425000Y57920000D03*
%TD*%
D16*
%TO.P,F1,1*%
%TO.N,Net-(J5-Pin_6)*%
X25800000Y95100000D03*
X25800000Y90100000D03*
D15*
%TO.P,F1,2*%
%TO.N,/Relay/IN*%
X43600000Y95100000D03*
X43600000Y90100000D03*
%TD*%
D10*
%TO.P,D2,1,K*%
%TO.N,+12V*%
X23400000Y84510000D03*
D11*
%TO.P,D2,2,A*%
%TO.N,Net-(D2-A)*%
X23400000Y76890000D03*
%TD*%
D19*
%TO.P,J5,1,Pin_1*%
%TO.N,/Relay/NC*%
X64000000Y86100000D03*
D20*
%TO.P,J5,2,Pin_2*%
%TO.N,/Relay/NO*%
X64000000Y81020000D03*
%TO.P,J5,3,Pin_3*%
%TO.N,Net-(J5-Pin_3)*%
X64000000Y75940000D03*
%TO.P,J5,4,Pin_4*%
%TO.N,GND*%
X64000000Y70860000D03*
%TO.P,J5,5,Pin_5*%
%TO.N,Net-(J5-Pin_3)*%
X64000000Y65780000D03*
%TO.P,J5,6,Pin_6*%
%TO.N,Net-(J5-Pin_6)*%
X64000000Y60700000D03*
%TD*%
D14*
%TO.P,J4,1,Pin_1*%
%TO.N,/MAX31855K1/T+*%
X63500000Y12960000D03*
D15*
%TO.P,J4,2,Pin_2*%
%TO.N,/MAX31855K1/T-*%
X63500000Y15500000D03*
%TD*%
D17*
%TO.P,K1,1*%
%TO.N,Net-(D2-A)*%
X27425000Y76900000D03*
D18*
%TO.P,K1,2*%
%TO.N,/Relay/IN*%
X37585000Y76900000D03*
%TO.P,K1,3*%
%TO.N,/Relay/NO*%
X45205000Y76900000D03*
%TO.P,K1,4*%
%TO.N,/Relay/NC*%
X42665000Y84520000D03*
%TO.P,K1,5*%
%TO.N,+12V*%
X27425000Y84520000D03*
%TD*%
D19*
%TO.P,J6,1,Pin_1*%
%TO.N,/Relay1/NC*%
X63995000Y54200000D03*
D20*
%TO.P,J6,2,Pin_2*%
%TO.N,/Relay1/NO*%
X63995000Y49120000D03*
%TO.P,J6,3,Pin_3*%
%TO.N,Net-(J6-Pin_3)*%
X63995000Y44040000D03*
%TO.P,J6,4,Pin_4*%
%TO.N,GND*%
X63995000Y38960000D03*
%TO.P,J6,5,Pin_5*%
%TO.N,Net-(J6-Pin_3)*%
X63995000Y33880000D03*
%TO.P,J6,6,Pin_6*%
%TO.N,Net-(J6-Pin_6)*%
X63995000Y28800000D03*
%TD*%
D21*
%TO.P,U4,1*%
%TO.N,Net-(R5-Pad2)*%
X28187500Y73535000D03*
%TO.P,U4,2*%
%TO.N,GND*%
X28187500Y72265000D03*
%TO.P,U4,3*%
X21812500Y72265000D03*
%TO.P,U4,4*%
%TO.N,Net-(D2-A)*%
X21812500Y73535000D03*
%TD*%
D22*
%TO.P,R3,1*%
%TO.N,+5V*%
X40183810Y8660000D03*
%TO.P,R3,2*%
%TO.N,/TC_CLK*%
X40183810Y11760000D03*
%TD*%
%TO.P,R2,1*%
%TO.N,/SS1*%
X37400000Y29400000D03*
%TO.P,R2,2*%
%TO.N,+5V*%
X37400000Y32500000D03*
%TD*%
D23*
%TO.P,J1,1,Pin_1*%
%TO.N,GND*%
X21510000Y5400000D03*
%TO.P,J1,2,Pin_2*%
%TO.N,+5V*%
X20510000Y5400000D03*
%TO.P,J1,3,Pin_3*%
%TO.N,/I2C_DAT*%
X19510000Y5400000D03*
%TO.P,J1,4,Pin_4*%
%TO.N,/I2C_TC_CLK*%
X18510000Y5400000D03*
D24*
%TO.P,J1,MP*%
%TO.N,N/C*%
X22810000Y1525000D03*
X17210000Y1525000D03*
%TD*%
D25*
%TO.P,FB3,1*%
%TO.N,Net-(U3-T+)*%
X50283810Y14210000D03*
%TO.P,FB3,2*%
%TO.N,/MAX31855K1/T+*%
X53383810Y14210000D03*
%TD*%
D26*
%TO.P,C3,1*%
%TO.N,GND*%
X13725000Y79000000D03*
%TO.P,C3,2*%
%TO.N,+5V*%
X16675000Y79000000D03*
%TD*%
D27*
%TO.P,R4,1*%
%TO.N,/SS2*%
X37583810Y13260000D03*
%TO.P,R4,2*%
%TO.N,+5V*%
X37583810Y10160000D03*
%TD*%
D25*
%TO.P,FB4,1*%
%TO.N,Net-(U3-T-)*%
X50283810Y16900000D03*
%TO.P,FB4,2*%
%TO.N,/MAX31855K1/T-*%
X53383810Y16900000D03*
%TD*%
%TO.P,R5,1*%
%TO.N,/Relay1*%
X21650000Y69900000D03*
%TO.P,R5,2*%
%TO.N,Net-(R5-Pad2)*%
X24750000Y69900000D03*
%TD*%
D28*
%TO.P,U3,1,GND*%
%TO.N,GND*%
X45258810Y17415000D03*
%TO.P,U3,2,T-*%
%TO.N,Net-(U3-T-)*%
X45258810Y16145000D03*
%TO.P,U3,3,T+*%
%TO.N,Net-(U3-T+)*%
X45258810Y14875000D03*
%TO.P,U3,4,VCC*%
%TO.N,+5V*%
X45258810Y13605000D03*
%TO.P,U3,5,SCK*%
%TO.N,/TC_CLK*%
X40308810Y13605000D03*
%TO.P,U3,6,~{CS}*%
%TO.N,/SS2*%
X40308810Y14875000D03*
%TO.P,U3,7,SO*%
%TO.N,/TC_DATA*%
X40308810Y16145000D03*
%TO.P,U3,8*%
%TO.N,N/C*%
X40308810Y17415000D03*
%TD*%
D29*
%TO.P,C5,1*%
%TO.N,Net-(U2-T+)*%
X47950000Y25737500D03*
%TO.P,C5,2*%
%TO.N,Net-(U2-T-)*%
X47950000Y28862500D03*
%TD*%
D26*
%TO.P,C4,1*%
%TO.N,GND*%
X13725000Y82000000D03*
%TO.P,C4,2*%
%TO.N,+5V*%
X16675000Y82000000D03*
%TD*%
D25*
%TO.P,R6,1*%
%TO.N,/Relay2*%
X21650000Y43300000D03*
%TO.P,R6,2*%
%TO.N,Net-(R6-Pad2)*%
X24750000Y43300000D03*
%TD*%
D30*
%TO.P,L1,1*%
%TO.N,Net-(U1-SW)*%
X13800000Y75700000D03*
%TO.P,L1,2*%
%TO.N,+5V*%
X16600000Y75700000D03*
%TD*%
D31*
%TO.P,C1,1*%
%TO.N,GND*%
X11375000Y79000000D03*
%TO.P,C1,2*%
%TO.N,+12V*%
X8425000Y79000000D03*
%TD*%
D25*
%TO.P,FB2,1*%
%TO.N,Net-(U2-T-)*%
X50200000Y28700000D03*
%TO.P,FB2,2*%
%TO.N,/MAX31855K/T-*%
X53300000Y28700000D03*
%TD*%
D21*
%TO.P,U5,1*%
%TO.N,Net-(R6-Pad2)*%
X28187500Y46735000D03*
%TO.P,U5,2*%
%TO.N,GND*%
X28187500Y45465000D03*
%TO.P,U5,3*%
X21812500Y45465000D03*
%TO.P,U5,4*%
%TO.N,Net-(D3-A)*%
X21812500Y46735000D03*
%TD*%
D28*
%TO.P,U2,1,GND*%
%TO.N,GND*%
X45175000Y29215000D03*
%TO.P,U2,2,T-*%
%TO.N,Net-(U2-T-)*%
X45175000Y27945000D03*
%TO.P,U2,3,T+*%
%TO.N,Net-(U2-T+)*%
X45175000Y26675000D03*
%TO.P,U2,4,VCC*%
%TO.N,+5V*%
X45175000Y25405000D03*
%TO.P,U2,5,SCK*%
%TO.N,/TC_CLK*%
X40225000Y25405000D03*
%TO.P,U2,6,~{CS}*%
%TO.N,/SS1*%
X40225000Y26675000D03*
%TO.P,U2,7,SO*%
%TO.N,/TC_DATA*%
X40225000Y27945000D03*
%TO.P,U2,8*%
%TO.N,N/C*%
X40225000Y29215000D03*
%TD*%
D32*
%TO.P,U1,1,FB*%
%TO.N,+5V*%
X8962500Y74750000D03*
%TO.P,U1,2,EN*%
%TO.N,+12V*%
X8962500Y75700000D03*
%TO.P,U1,3,VIN*%
X8962500Y76650000D03*
%TO.P,U1,4,GND*%
%TO.N,GND*%
X11237500Y76650000D03*
%TO.P,U1,5,SW*%
%TO.N,Net-(U1-SW)*%
X11237500Y75700000D03*
%TO.P,U1,6,BST*%
%TO.N,Net-(U1-BST)*%
X11237500Y74750000D03*
%TD*%
D25*
%TO.P,FB1,1*%
%TO.N,Net-(U2-T+)*%
X50200000Y26010000D03*
%TO.P,FB1,2*%
%TO.N,/MAX31855K/T+*%
X53300000Y26010000D03*
%TD*%
D31*
%TO.P,C2,1*%
%TO.N,Net-(U1-SW)*%
X13975000Y72200000D03*
%TO.P,C2,2*%
%TO.N,Net-(U1-BST)*%
X11025000Y72200000D03*
%TD*%
D33*
%TO.P,R1,1*%
%TO.N,+5V*%
X43750000Y23200000D03*
%TO.P,R1,2*%
%TO.N,/TC_CLK*%
X40650000Y23200000D03*
%TD*%
D29*
%TO.P,C6,1*%
%TO.N,Net-(U3-T+)*%
X48033810Y13937500D03*
%TO.P,C6,2*%
%TO.N,Net-(U3-T-)*%
X48033810Y17062500D03*
%TD*%
D34*
%TO.N,GND*%
X18200000Y77650000D03*
X18200000Y80550000D03*
D35*
X12100000Y77500000D03*
D34*
X7700000Y72000000D03*
X7500000Y75250000D03*
D35*
X12500000Y79700000D03*
X11200000Y77500000D03*
D34*
X11300000Y82250000D03*
X50200000Y2100000D03*
D35*
X11400000Y80500000D03*
X13700000Y80500000D03*
X10100000Y74800000D03*
D34*
X18200000Y72650000D03*
D35*
X12500000Y78400000D03*
D34*
%TO.N,+5V*%
X46200000Y6300000D03*
D36*
X16600000Y51100000D03*
D34*
X20500000Y3249500D03*
%TO.N,/I2C_TC_CLK*%
X18500000Y7200000D03*
X23800000Y24500000D03*
%TO.N,/I2C_DAT*%
X23800000Y22000000D03*
X19600000Y7200000D03*
%TD*%
D37*
%TO.N,GND*%
X12500000Y78400000D02*
X12500000Y78200000D01*
X11200000Y77500000D02*
X10300000Y77500000D01*
X10100000Y77300000D02*
X10100000Y76600000D01*
X11200000Y77500000D02*
X11200000Y76687500D01*
X12500000Y77900000D02*
X12100000Y77500000D01*
X12350000Y76650000D02*
X12500000Y76800000D01*
X12100000Y77500000D02*
X11200000Y77500000D01*
X12500000Y76800000D02*
X12500000Y78200000D01*
X13725000Y79000000D02*
X11375000Y79000000D01*
X12900000Y80500000D02*
X14600000Y80500000D01*
X13700000Y80500000D02*
X12900000Y80500000D01*
X12500000Y79000000D02*
X12500000Y79700000D01*
X10100000Y76600000D02*
X10100000Y74800000D01*
X11237500Y76650000D02*
X12350000Y76650000D01*
X12500000Y79000000D02*
X12500000Y78400000D01*
X12500000Y78200000D02*
X12500000Y77900000D01*
X10150000Y76650000D02*
X10100000Y76600000D01*
X11200000Y76687500D02*
X11237500Y76650000D01*
X11237500Y76650000D02*
X10150000Y76650000D01*
X10300000Y77500000D02*
X10100000Y77300000D01*
%TO.N,+5V*%
X43750000Y23980000D02*
X45175000Y25405000D01*
X43840000Y8660000D02*
X40183810Y8660000D01*
X44200001Y25405000D02*
X42500000Y27105001D01*
X45300000Y13563810D02*
X45300000Y10120000D01*
X43795000Y13605000D02*
X45258810Y13605000D01*
D38*
X16600000Y51100000D02*
X16600000Y70800000D01*
D37*
X42500000Y14900000D02*
X43795000Y13605000D01*
X45300000Y10120000D02*
X43840000Y8660000D01*
X42500000Y30889950D02*
X40889950Y32500000D01*
D38*
X16650000Y78975000D02*
X16650000Y75750000D01*
D37*
X45175000Y25405000D02*
X44200001Y25405000D01*
X43750000Y23050000D02*
X42500000Y21800000D01*
D38*
X16650000Y75750000D02*
X16600000Y75700000D01*
D37*
X8962500Y72290622D02*
X10453122Y70800000D01*
X46200000Y6300000D02*
X43840000Y8660000D01*
X8962500Y74750000D02*
X8962500Y72290622D01*
D38*
X16600000Y70800000D02*
X16600000Y75700000D01*
X16650000Y79025000D02*
X16675000Y79000000D01*
X16650000Y81975000D02*
X16650000Y79025000D01*
D37*
X27640000Y32180000D02*
X37080000Y32180000D01*
X43750000Y23200000D02*
X43750000Y23980000D01*
X10453122Y70800000D02*
X16600000Y70800000D01*
X42500000Y21800000D02*
X42500000Y14900000D01*
D39*
X16675000Y75775000D02*
X16600000Y75700000D01*
D37*
X43750000Y23200000D02*
X43750000Y23050000D01*
D38*
X16675000Y82000000D02*
X16650000Y81975000D01*
D37*
X20510000Y3259500D02*
X20510000Y5400000D01*
X45258810Y13605000D02*
X45300000Y13563810D01*
D38*
X16675000Y79000000D02*
X16650000Y78975000D01*
D37*
X20500000Y3249500D02*
X20510000Y3259500D01*
X42500000Y27105001D02*
X42500000Y30889950D01*
X40889950Y32500000D02*
X37400000Y32500000D01*
X27820000Y32000000D02*
X27640000Y32180000D01*
X37080000Y32180000D02*
X37400000Y32500000D01*
X40183810Y8660000D02*
X39083810Y8660000D01*
X39083810Y8660000D02*
X37583810Y10160000D01*
%TO.N,/I2C_TC_CLK*%
X27580000Y24500000D02*
X27640000Y24560000D01*
X18510000Y7190000D02*
X18500000Y7200000D01*
X18510000Y5400000D02*
X18510000Y7190000D01*
X23800000Y24500000D02*
X27580000Y24500000D01*
%TO.N,/I2C_DAT*%
X27620000Y22000000D02*
X27640000Y22020000D01*
X23800000Y22000000D02*
X27620000Y22000000D01*
X19510000Y7110000D02*
X19600000Y7200000D01*
X19510000Y5400000D02*
X19510000Y7110000D01*
D39*
%TO.N,+12V*%
X6200000Y61000000D02*
X4110000Y58910000D01*
X8425000Y80930635D02*
X12004365Y84510000D01*
X4110000Y58910000D02*
X3600000Y58910000D01*
X12004365Y84510000D02*
X23400000Y84510000D01*
X27415000Y84510000D02*
X27425000Y84520000D01*
X8425000Y79000000D02*
X6200000Y76775000D01*
X6200000Y76775000D02*
X6200000Y61000000D01*
X27415000Y57910000D02*
X27425000Y57920000D01*
X8425000Y79000000D02*
X8425000Y77187500D01*
X27015000Y57910000D02*
X27025000Y57920000D01*
X8962500Y76650000D02*
X8962500Y75750000D01*
X8425000Y79000000D02*
X8425000Y80930635D01*
X8425000Y77187500D02*
X8962500Y76650000D01*
D37*
%TO.N,/TC_DATA*%
X38500000Y27400000D02*
X38500000Y16200000D01*
X13769950Y6780000D02*
X22639950Y15650000D01*
X38445000Y16145000D02*
X40308810Y16145000D01*
X12400000Y6780000D02*
X13769950Y6780000D01*
X37950000Y15650000D02*
X38445000Y16145000D01*
X40225000Y27945000D02*
X39045000Y27945000D01*
X39045000Y27945000D02*
X38500000Y27400000D01*
X38500000Y16200000D02*
X37950000Y15650000D01*
X22639950Y15650000D02*
X37950000Y15650000D01*
%TO.N,/TC_CLK*%
X40225000Y25405000D02*
X40225000Y23625000D01*
X41800000Y22050000D02*
X40650000Y23200000D01*
X40100000Y25280000D02*
X40225000Y25405000D01*
X41800000Y14121191D02*
X41800000Y22050000D01*
X35160000Y11760000D02*
X27640000Y4240000D01*
X40183810Y11760000D02*
X35160000Y11760000D01*
X40183810Y13480000D02*
X40308810Y13605000D01*
X40308810Y13605000D02*
X41283809Y13605000D01*
X40183810Y11760000D02*
X40183810Y13480000D01*
X41283809Y13605000D02*
X41800000Y14121191D01*
X40225000Y23625000D02*
X40650000Y23200000D01*
%TO.N,/SS1*%
X41199999Y26675000D02*
X40225000Y26675000D01*
X37400000Y29400000D02*
X37400000Y19800000D01*
X23830000Y18230000D02*
X14920000Y9320000D01*
X38900000Y30900000D02*
X41500000Y30900000D01*
X35830000Y18230000D02*
X23830000Y18230000D01*
X41800000Y27275001D02*
X41199999Y26675000D01*
X37400000Y19800000D02*
X35830000Y18230000D01*
X14920000Y9320000D02*
X12400000Y9320000D01*
X41800000Y30600000D02*
X41800000Y27275001D01*
X37300000Y29300000D02*
X38900000Y30900000D01*
X41500000Y30900000D02*
X41800000Y30600000D01*
%TO.N,/SS2*%
X37433810Y13110000D02*
X37583810Y13260000D01*
X12400000Y4420100D02*
X12400000Y4240000D01*
X37583810Y13260000D02*
X39198810Y14875000D01*
X21270000Y13110000D02*
X37433810Y13110000D01*
X39198810Y14875000D02*
X40308810Y14875000D01*
X12400000Y4240000D02*
X21270000Y13110000D01*
%TO.N,/Relay1*%
X18600000Y66850000D02*
X18600000Y25680000D01*
X21650000Y69900000D02*
X18600000Y66850000D01*
X18600000Y25680000D02*
X12400000Y19480000D01*
%TO.N,/Relay2*%
X19300000Y23840000D02*
X12400000Y16940000D01*
X21650000Y43300000D02*
X19300000Y40950000D01*
X19300000Y40950000D02*
X19300000Y23840000D01*
D39*
%TO.N,Net-(U1-SW)*%
X13800000Y72375000D02*
X13975000Y72200000D01*
X13800000Y75700000D02*
X12156238Y75700000D01*
X13800000Y75700000D02*
X13800000Y72375000D01*
D37*
%TO.N,Net-(U1-BST)*%
X11025000Y74537500D02*
X11237500Y74750000D01*
X11025000Y72200000D02*
X11025000Y74537500D01*
D38*
%TO.N,unconnected-(A1-VIN-Pad30)*%
X27657000Y39783000D02*
X27640000Y39800000D01*
D37*
%TO.N,Net-(D2-A)*%
X23400000Y75122500D02*
X23400000Y76890000D01*
X21812500Y73535000D02*
X23400000Y75122500D01*
D39*
X27415000Y76890000D02*
X27425000Y76900000D01*
D37*
%TO.N,Net-(D3-A)*%
X21812500Y46735000D02*
X21812500Y48702500D01*
D39*
X27015000Y50290000D02*
X27025000Y50300000D01*
X27415000Y50290000D02*
X27425000Y50300000D01*
D37*
X21812500Y48702500D02*
X23400000Y50290000D01*
%TO.N,Net-(U2-T+)*%
X48222500Y26010000D02*
X47950000Y25737500D01*
X45175000Y26675000D02*
X47012500Y26675000D01*
X50200000Y26010000D02*
X48222500Y26010000D01*
X47012500Y26675000D02*
X47950000Y25737500D01*
%TO.N,Net-(U2-T-)*%
X48112500Y28700000D02*
X47950000Y28862500D01*
X47950000Y28862500D02*
X47032500Y27945000D01*
X47032500Y27945000D02*
X45175000Y27945000D01*
X50200000Y28700000D02*
X48112500Y28700000D01*
%TO.N,Net-(U3-T-)*%
X48196310Y16900000D02*
X48033810Y17062500D01*
X47116310Y16145000D02*
X45258810Y16145000D01*
X50283810Y16900000D02*
X48196310Y16900000D01*
X48033810Y17062500D02*
X47116310Y16145000D01*
%TO.N,Net-(U3-T+)*%
X47096310Y14875000D02*
X45258810Y14875000D01*
X48306310Y14210000D02*
X48033810Y13937500D01*
X48033810Y13937500D02*
X47096310Y14875000D01*
X50283810Y14210000D02*
X48306310Y14210000D01*
D40*
%TO.N,Net-(J6-Pin_6)*%
X24700000Y61900000D02*
X29342700Y61900000D01*
X60100000Y28800000D02*
X63995000Y28800000D01*
X36300000Y45600000D02*
X43300000Y45600000D01*
X29342700Y61900000D02*
X33300000Y57942700D01*
X33300000Y48600000D02*
X36300000Y45600000D01*
X24700000Y61900000D02*
X24700000Y66900000D01*
X33300000Y57942700D02*
X33300000Y48600000D01*
%TO.N,/Relay/IN*%
X43600000Y90100000D02*
X43600000Y95100000D01*
X43600000Y90100000D02*
X41757300Y90100000D01*
X37585000Y85927700D02*
X37585000Y76900000D01*
X41757300Y90100000D02*
X37585000Y85927700D01*
%TO.N,/Relay1/IN*%
X40257300Y61900000D02*
X37550000Y59192700D01*
X37550000Y50560408D02*
X37697704Y50412704D01*
X42500000Y61900000D02*
X42500000Y66900000D01*
X42500000Y61900000D02*
X40257300Y61900000D01*
X37550000Y59192700D02*
X37550000Y50560408D01*
D37*
%TO.N,/MAX31855K/T+*%
X53300000Y26010000D02*
X58510000Y20800000D01*
X58510000Y20800000D02*
X63500000Y20800000D01*
%TO.N,/MAX31855K/T-*%
X58660000Y23340000D02*
X53300000Y28700000D01*
X63500000Y23340000D02*
X58660000Y23340000D01*
%TO.N,/MAX31855K1/T+*%
X53383810Y14210000D02*
X62250000Y14210000D01*
X62250000Y14210000D02*
X63500000Y12960000D01*
%TO.N,/MAX31855K1/T-*%
X61900000Y16900000D02*
X53383810Y16900000D01*
X63500000Y15500000D02*
X63300000Y15500000D01*
X63300000Y15500000D02*
X61900000Y16900000D01*
D40*
%TO.N,/Relay/NO*%
X63920000Y81100000D02*
X64000000Y81020000D01*
X49405000Y81100000D02*
X63920000Y81100000D01*
X45205000Y76900000D02*
X49405000Y81100000D01*
%TO.N,/Relay/NC*%
X44245000Y86100000D02*
X64000000Y86100000D01*
X42665000Y84520000D02*
X44245000Y86100000D01*
%TO.N,Net-(J6-Pin_3)*%
X60740000Y44040000D02*
X63995000Y44040000D01*
X58800000Y36800000D02*
X58800000Y42100000D01*
X58800000Y42100000D02*
X60740000Y44040000D01*
X63995000Y33880000D02*
X61720000Y33880000D01*
X61720000Y33880000D02*
X58800000Y36800000D01*
%TO.N,/Relay1/NC*%
X62095000Y56100000D02*
X63995000Y54200000D01*
X42665000Y57920000D02*
X44485000Y56100000D01*
X44485000Y56100000D02*
X62095000Y56100000D01*
%TO.N,/Relay1/NO*%
X46005000Y51100000D02*
X62015000Y51100000D01*
X62015000Y51100000D02*
X63995000Y49120000D01*
X45205000Y50300000D02*
X46005000Y51100000D01*
D37*
%TO.N,Net-(R5-Pad2)*%
X24750000Y69900000D02*
X24750000Y71450000D01*
X24750000Y71450000D02*
X26835000Y73535000D01*
X28187500Y73535000D02*
X26835000Y73535000D01*
%TO.N,Net-(R6-Pad2)*%
X27310000Y46735000D02*
X28187500Y46735000D01*
X24750000Y43300000D02*
X24750000Y44175000D01*
X24750000Y44175000D02*
X27310000Y46735000D01*
D40*
%TO.N,Net-(J5-Pin_6)*%
X33335000Y75139592D02*
X33335000Y84607700D01*
X25800000Y90100000D02*
X25800000Y95100000D01*
X54489592Y61100000D02*
X42939592Y72650000D01*
X35824592Y72650000D02*
X33335000Y75139592D01*
X42939592Y72650000D02*
X35824592Y72650000D01*
X63600000Y61100000D02*
X54489592Y61100000D01*
X33335000Y84607700D02*
X27842700Y90100000D01*
X27842700Y90100000D02*
X25800000Y90100000D01*
X64000000Y60700000D02*
X63600000Y61100000D01*
%TO.N,Net-(J5-Pin_3)*%
X60140000Y75940000D02*
X57600000Y73400000D01*
X57600000Y69000000D02*
X60820000Y65780000D01*
X60820000Y65780000D02*
X64000000Y65780000D01*
X64000000Y75940000D02*
X60140000Y75940000D01*
X57600000Y73400000D02*
X57600000Y69000000D01*
%TO.N,Net-(J6-Pin_6)*%
X43300000Y45600000D02*
X60100000Y28800000D01*
%TD*%
%TA.AperFunction,Conductor*%
%TO.N,GND*%
G36*
X12994629Y83489815D02*
G01*
X13040384Y83437011D01*
X13050328Y83367853D01*
X13021303Y83304297D01*
X12992687Y83279962D01*
X12931659Y83242320D01*
X12931655Y83242317D01*
X12807684Y83118346D01*
X12715643Y82969125D01*
X12715641Y82969120D01*
X12660494Y82802698D01*
X12660493Y82802691D01*
X12650000Y82699987D01*
X12650000Y82250000D01*
X14799999Y82250000D01*
X14799999Y82699972D01*
X14799998Y82699987D01*
X14789505Y82802698D01*
X14734358Y82969120D01*
X14734356Y82969125D01*
X14642315Y83118346D01*
X14518344Y83242317D01*
X14518340Y83242320D01*
X14457313Y83279962D01*
X14410588Y83331910D01*
X14399367Y83400872D01*
X14427210Y83464954D01*
X14485279Y83503810D01*
X14522410Y83509500D01*
X15876638Y83509500D01*
X15943677Y83489815D01*
X15989432Y83437011D01*
X15999376Y83367853D01*
X15970351Y83304297D01*
X15941735Y83279961D01*
X15881342Y83242711D01*
X15757289Y83118658D01*
X15665187Y82969337D01*
X15665185Y82969332D01*
X15665115Y82969120D01*
X15610001Y82802797D01*
X15610001Y82802796D01*
X15610000Y82802796D01*
X15599500Y82700017D01*
X15599500Y82696421D01*
X15582180Y82635004D01*
X15582688Y82634745D01*
X15581389Y82632197D01*
X15581232Y82631638D01*
X15580477Y82630407D01*
X15490668Y82454149D01*
X15489608Y82450388D01*
X15430291Y82267831D01*
X15430291Y82267828D01*
X15399500Y82073423D01*
X15399500Y76071586D01*
X15393432Y76033272D01*
X15386944Y76013303D01*
X15386944Y76013302D01*
X15380291Y75992827D01*
X15349500Y75798423D01*
X15349500Y71674500D01*
X15329815Y71607461D01*
X15277011Y71561706D01*
X15225500Y71550500D01*
X15174500Y71550500D01*
X15107461Y71570185D01*
X15061706Y71622989D01*
X15050500Y71674500D01*
X15050499Y72900002D01*
X15050498Y72900019D01*
X15039999Y73002797D01*
X15039998Y73002800D01*
X15034665Y73018895D01*
X14984814Y73169334D01*
X14892712Y73318656D01*
X14836819Y73374549D01*
X14803334Y73435872D01*
X14800500Y73462230D01*
X14800500Y74174337D01*
X14818962Y74239434D01*
X14859809Y74305658D01*
X14859808Y74305658D01*
X14859814Y74305666D01*
X14914999Y74472203D01*
X14925500Y74574991D01*
X14925499Y76825008D01*
X14925326Y76826697D01*
X14914999Y76927797D01*
X14914998Y76927800D01*
X14880761Y77031120D01*
X14859814Y77094334D01*
X14767712Y77243656D01*
X14643656Y77367712D01*
X14514660Y77447277D01*
X14494336Y77459813D01*
X14494335Y77459814D01*
X14494334Y77459814D01*
X14494328Y77459816D01*
X14448221Y77475095D01*
X14390777Y77514868D01*
X14363955Y77579384D01*
X14376271Y77648160D01*
X14422131Y77698339D01*
X14518343Y77757683D01*
X14642315Y77881655D01*
X14734356Y78030876D01*
X14734358Y78030881D01*
X14789505Y78197303D01*
X14789506Y78197310D01*
X14799999Y78300014D01*
X14800000Y78300027D01*
X14800000Y78750000D01*
X13599000Y78750000D01*
X13531961Y78769685D01*
X13486206Y78822489D01*
X13475000Y78874000D01*
X13475000Y79126000D01*
X13494685Y79193039D01*
X13547489Y79238794D01*
X13599000Y79250000D01*
X14799999Y79250000D01*
X14799999Y79699972D01*
X14799998Y79699987D01*
X14789505Y79802698D01*
X14734358Y79969120D01*
X14734356Y79969125D01*
X14642315Y80118346D01*
X14518345Y80242316D01*
X14369124Y80334357D01*
X14369119Y80334359D01*
X14224460Y80382294D01*
X14167015Y80422067D01*
X14140192Y80486583D01*
X14152507Y80555358D01*
X14200050Y80606558D01*
X14224460Y80617706D01*
X14369119Y80665642D01*
X14369124Y80665644D01*
X14518345Y80757685D01*
X14642315Y80881655D01*
X14734356Y81030876D01*
X14734358Y81030881D01*
X14789505Y81197303D01*
X14789506Y81197310D01*
X14799999Y81300014D01*
X14800000Y81300027D01*
X14800000Y81750000D01*
X12650001Y81750000D01*
X12650001Y81300014D01*
X12660494Y81197303D01*
X12715641Y81030881D01*
X12715643Y81030876D01*
X12807684Y80881655D01*
X12931654Y80757685D01*
X13080875Y80665644D01*
X13080880Y80665642D01*
X13225539Y80617707D01*
X13282984Y80577935D01*
X13309807Y80513419D01*
X13297492Y80444643D01*
X13249949Y80393443D01*
X13225540Y80382295D01*
X13080878Y80334358D01*
X13080875Y80334357D01*
X12931654Y80242316D01*
X12807684Y80118346D01*
X12715643Y79969125D01*
X12715641Y79969120D01*
X12667706Y79824461D01*
X12627933Y79767016D01*
X12563417Y79740193D01*
X12494641Y79752508D01*
X12443442Y79800051D01*
X12432294Y79824461D01*
X12384358Y79969120D01*
X12384356Y79969125D01*
X12292315Y80118346D01*
X12168345Y80242316D01*
X12019124Y80334357D01*
X12019119Y80334359D01*
X11852697Y80389506D01*
X11852690Y80389507D01*
X11749986Y80400000D01*
X11625000Y80400000D01*
X11625000Y78874000D01*
X11605315Y78806961D01*
X11552511Y78761206D01*
X11501000Y78750000D01*
X10300001Y78750000D01*
X10300001Y78300014D01*
X10310494Y78197303D01*
X10365641Y78030881D01*
X10365643Y78030876D01*
X10457684Y77881655D01*
X10581656Y77757683D01*
X10709618Y77678756D01*
X10756343Y77626808D01*
X10767566Y77557846D01*
X10739723Y77493763D01*
X10681654Y77454907D01*
X10654253Y77449599D01*
X10622509Y77447101D01*
X10622504Y77447100D01*
X10464806Y77401284D01*
X10464803Y77401283D01*
X10323447Y77317686D01*
X10323438Y77317679D01*
X10207321Y77201562D01*
X10207312Y77201551D01*
X10207017Y77201050D01*
X10206683Y77200739D01*
X10202537Y77195393D01*
X10201674Y77196063D01*
X10155943Y77153371D01*
X10087200Y77140873D01*
X10022614Y77167524D01*
X9998063Y77195860D01*
X9997861Y77195702D01*
X9994967Y77199432D01*
X9993559Y77201058D01*
X9993085Y77201860D01*
X9993076Y77201871D01*
X9876870Y77318077D01*
X9876862Y77318083D01*
X9736179Y77401282D01*
X9735398Y77401744D01*
X9735397Y77401745D01*
X9735396Y77401745D01*
X9735393Y77401747D01*
X9611317Y77437794D01*
X9558231Y77469189D01*
X9461819Y77565601D01*
X9428334Y77626924D01*
X9425500Y77653282D01*
X9425500Y77983202D01*
X9434368Y78023205D01*
X9432542Y78023810D01*
X9434814Y78030666D01*
X9489999Y78197203D01*
X9500500Y78299991D01*
X9500499Y79699987D01*
X10300000Y79699987D01*
X10300000Y79250000D01*
X11125000Y79250000D01*
X11125000Y80400000D01*
X11000027Y80400000D01*
X11000012Y80399999D01*
X10897302Y80389506D01*
X10730880Y80334359D01*
X10730875Y80334357D01*
X10581654Y80242316D01*
X10457684Y80118346D01*
X10365643Y79969125D01*
X10365641Y79969120D01*
X10310494Y79802698D01*
X10310493Y79802691D01*
X10300000Y79699987D01*
X9500499Y79699987D01*
X9500499Y79700008D01*
X9489999Y79802797D01*
X9434814Y79969334D01*
X9434813Y79969336D01*
X9432542Y79976189D01*
X9434364Y79976793D01*
X9425500Y80016798D01*
X9425500Y80464853D01*
X9445185Y80531892D01*
X9461819Y80552534D01*
X12382467Y83473181D01*
X12443790Y83506666D01*
X12470148Y83509500D01*
X12927590Y83509500D01*
X12994629Y83489815D01*
G37*
%TD.AperFunction*%
%TA.AperFunction,Conductor*%
G36*
X12605357Y78247493D02*
G01*
X12656557Y78199951D01*
X12667705Y78175541D01*
X12715642Y78030879D01*
X12715643Y78030876D01*
X12807684Y77881655D01*
X12931654Y77757685D01*
X13087025Y77661851D01*
X13085666Y77659649D01*
X13129026Y77621487D01*
X13148192Y77554298D01*
X13127991Y77487412D01*
X13089293Y77449717D01*
X12956347Y77367715D01*
X12956343Y77367712D01*
X12832289Y77243658D01*
X12740187Y77094337D01*
X12740185Y77094332D01*
X12726755Y77053803D01*
X12685001Y76927797D01*
X12685001Y76927796D01*
X12685000Y76927796D01*
X12674500Y76825017D01*
X12674500Y76824500D01*
X12674468Y76824395D01*
X12674340Y76821861D01*
X12674179Y76821870D01*
X12674179Y76821868D01*
X12674155Y76821871D01*
X12673734Y76821892D01*
X12654815Y76757461D01*
X12602011Y76711706D01*
X12550500Y76700500D01*
X12524000Y76700500D01*
X12456961Y76720185D01*
X12411206Y76772989D01*
X12400000Y76824500D01*
X12400000Y76865635D01*
X12399999Y76865650D01*
X12397100Y76902490D01*
X12397099Y76902496D01*
X12351283Y77060194D01*
X12351282Y77060197D01*
X12267685Y77201553D01*
X12267678Y77201562D01*
X12151561Y77317679D01*
X12151552Y77317686D01*
X12010198Y77401282D01*
X11972957Y77412101D01*
X11914072Y77449708D01*
X11884865Y77513180D01*
X11894611Y77582367D01*
X11940215Y77635301D01*
X11968548Y77648884D01*
X12019119Y77665642D01*
X12019124Y77665644D01*
X12168345Y77757685D01*
X12292315Y77881655D01*
X12384356Y78030876D01*
X12384359Y78030883D01*
X12432293Y78175539D01*
X12472065Y78232984D01*
X12536581Y78259808D01*
X12605357Y78247493D01*
G37*
%TD.AperFunction*%
%TA.AperFunction,Conductor*%
G36*
X61527304Y97904815D02*
G01*
X61573059Y97852011D01*
X61583003Y97782853D01*
X61556774Y97722642D01*
X61459397Y97601939D01*
X61459378Y97601913D01*
X61239476Y97272536D01*
X61239467Y97272521D01*
X61050125Y96924693D01*
X61050118Y96924679D01*
X60892857Y96561195D01*
X60892855Y96561191D01*
X60768960Y96185014D01*
X60768959Y96185011D01*
X60679445Y95799225D01*
X60679441Y95799203D01*
X60625030Y95406925D01*
X60625028Y95406904D01*
X60606161Y95011323D01*
X60606161Y95011298D01*
X60622991Y94615620D01*
X60622991Y94615614D01*
X60675291Y94223751D01*
X60675385Y94223048D01*
X60738216Y93945778D01*
X60762915Y93836786D01*
X60884870Y93459979D01*
X60884871Y93459976D01*
X61031177Y93116979D01*
X61040260Y93095685D01*
X61040265Y93095676D01*
X61227822Y92746863D01*
X61446037Y92416339D01*
X61617341Y92201746D01*
X61693119Y92106819D01*
X61731956Y92066272D01*
X61967075Y91820799D01*
X61967082Y91820793D01*
X62265658Y91560621D01*
X62265675Y91560607D01*
X62586470Y91328375D01*
X62586477Y91328371D01*
X62586481Y91328368D01*
X62756671Y91227127D01*
X62777757Y91214590D01*
X62826612Y91219092D01*
X62826612Y91219093D01*
X62846168Y91220894D01*
X62846187Y91220687D01*
X62864720Y91224501D01*
X69800500Y91224501D01*
X69867539Y91204816D01*
X69913294Y91152012D01*
X69924500Y91100501D01*
X69924500Y8899502D01*
X69904815Y8832463D01*
X69852011Y8786708D01*
X69800500Y8775502D01*
X62859941Y8775502D01*
X62847935Y8777969D01*
X62847788Y8776364D01*
X62779375Y8782658D01*
X62758279Y8770110D01*
X62758278Y8770111D01*
X62588203Y8668908D01*
X62588194Y8668902D01*
X62267586Y8436756D01*
X62267580Y8436752D01*
X62267576Y8436748D01*
X61969148Y8176675D01*
X61969145Y8176672D01*
X61695335Y7890796D01*
X61448366Y7581435D01*
X61230242Y7251101D01*
X61230233Y7251085D01*
X61042737Y6902483D01*
X60887363Y6538388D01*
X60765396Y6161805D01*
X60677813Y5775758D01*
X60625335Y5383423D01*
X60625332Y5383390D01*
X60608378Y4987928D01*
X60608379Y4987902D01*
X60627087Y4592510D01*
X60681304Y4200410D01*
X60681306Y4200398D01*
X60681307Y4200393D01*
X60690995Y4158550D01*
X60770594Y3814760D01*
X60770601Y3814737D01*
X60894230Y3438719D01*
X60894236Y3438704D01*
X60894238Y3438698D01*
X61051220Y3075305D01*
X61051222Y3075302D01*
X61051222Y3075301D01*
X61093700Y2997156D01*
X61226275Y2753265D01*
X61240274Y2727513D01*
X61459852Y2398161D01*
X61459856Y2398155D01*
X61459858Y2398153D01*
X61551750Y2284087D01*
X61557224Y2277293D01*
X61583952Y2212738D01*
X61571537Y2143980D01*
X61523919Y2092850D01*
X61460661Y2075501D01*
X54984982Y2075501D01*
X54957231Y2064006D01*
X54935995Y2042770D01*
X54935994Y2042769D01*
X54935994Y2042768D01*
X54932498Y2034328D01*
X54924500Y2015019D01*
X54924500Y199501D01*
X54904815Y132462D01*
X54852011Y86707D01*
X54800500Y75501D01*
X29484982Y75501D01*
X29457231Y64006D01*
X29455045Y61819D01*
X29449103Y58575D01*
X29447079Y57222D01*
X29446957Y57404D01*
X29393722Y28334D01*
X29367364Y25500D01*
X23649574Y25500D01*
X23582535Y45185D01*
X23536780Y97989D01*
X23526836Y167147D01*
X23555861Y230703D01*
X23584478Y255039D01*
X23628656Y282288D01*
X23752712Y406344D01*
X23844814Y555666D01*
X23899999Y722203D01*
X23910500Y824991D01*
X23910499Y2225008D01*
X23899999Y2327797D01*
X23844814Y2494334D01*
X23752712Y2643656D01*
X23628656Y2767712D01*
X23479334Y2859814D01*
X23312797Y2914999D01*
X23312795Y2915000D01*
X23210010Y2925500D01*
X22409998Y2925500D01*
X22409980Y2925499D01*
X22307203Y2915000D01*
X22307200Y2914999D01*
X22140668Y2859815D01*
X22140663Y2859813D01*
X21991342Y2767711D01*
X21867289Y2643658D01*
X21775187Y2494337D01*
X21775185Y2494332D01*
X21752318Y2425322D01*
X21720001Y2327797D01*
X21720001Y2327796D01*
X21720000Y2327796D01*
X21709500Y2225017D01*
X21709500Y824999D01*
X21709501Y824982D01*
X21720000Y722204D01*
X21720001Y722201D01*
X21752940Y622800D01*
X21775186Y555666D01*
X21844910Y442624D01*
X21867289Y406343D01*
X21991344Y282288D01*
X22035522Y255039D01*
X22082247Y203091D01*
X22093470Y134129D01*
X22065627Y70047D01*
X22007558Y31190D01*
X21970426Y25500D01*
X18049574Y25500D01*
X17982535Y45185D01*
X17936780Y97989D01*
X17926836Y167147D01*
X17955861Y230703D01*
X17984478Y255039D01*
X18028656Y282288D01*
X18152712Y406344D01*
X18244814Y555666D01*
X18299999Y722203D01*
X18310500Y824991D01*
X18310499Y2225008D01*
X18299999Y2327797D01*
X18244814Y2494334D01*
X18152712Y2643656D01*
X18028656Y2767712D01*
X17879334Y2859814D01*
X17712797Y2914999D01*
X17712795Y2915000D01*
X17610010Y2925500D01*
X16809998Y2925500D01*
X16809980Y2925499D01*
X16707203Y2915000D01*
X16707200Y2914999D01*
X16540668Y2859815D01*
X16540663Y2859813D01*
X16391342Y2767711D01*
X16267289Y2643658D01*
X16175187Y2494337D01*
X16175185Y2494332D01*
X16152318Y2425322D01*
X16120001Y2327797D01*
X16120001Y2327796D01*
X16120000Y2327796D01*
X16109500Y2225017D01*
X16109500Y824999D01*
X16109501Y824982D01*
X16120000Y722204D01*
X16120001Y722201D01*
X16152940Y622800D01*
X16175186Y555666D01*
X16244910Y442624D01*
X16267289Y406343D01*
X16391344Y282288D01*
X16435522Y255039D01*
X16482247Y203091D01*
X16493470Y134129D01*
X16465627Y70047D01*
X16407558Y31190D01*
X16370426Y25500D01*
X10699500Y25500D01*
X10632461Y45185D01*
X10586706Y97989D01*
X10575500Y149500D01*
X10575500Y2015018D01*
X10575500Y2015019D01*
X10564006Y2042768D01*
X10542767Y2064007D01*
X10515018Y2075501D01*
X10515017Y2075501D01*
X9499500Y2075501D01*
X9432461Y2095186D01*
X9386706Y2147990D01*
X9375500Y2199501D01*
X9375500Y5202291D01*
X9372001Y5240047D01*
X9353579Y5438858D01*
X9338171Y5605142D01*
X9338171Y5605143D01*
X9338170Y5605150D01*
X9263828Y6002844D01*
X9249209Y6054223D01*
X9187037Y6272735D01*
X9153108Y6391982D01*
X9006956Y6769245D01*
X8826618Y7131413D01*
X8613632Y7475396D01*
X8432004Y7715911D01*
X8369820Y7798256D01*
X8369813Y7798264D01*
X8330285Y7841624D01*
X8097250Y8097251D01*
X7798260Y8369817D01*
X7798257Y8369819D01*
X7798254Y8369822D01*
X7592096Y8525505D01*
X7475396Y8613633D01*
X7457842Y8624502D01*
X7131420Y8826614D01*
X7131413Y8826618D01*
X6769240Y9006958D01*
X6593118Y9075188D01*
X6391982Y9153109D01*
X6391968Y9153113D01*
X6391965Y9153114D01*
X6002850Y9263826D01*
X6002850Y9263827D01*
X5605140Y9338172D01*
X5279842Y9368314D01*
X5202292Y9375500D01*
X5202289Y9375500D01*
X2199500Y9375500D01*
X2132461Y9395185D01*
X2086706Y9447989D01*
X2075500Y9499500D01*
X2075500Y32715017D01*
X2075500Y32715018D01*
X2064006Y32742767D01*
X2042767Y32764006D01*
X2015018Y32775500D01*
X2015017Y32775500D01*
X149500Y32775500D01*
X82461Y32795185D01*
X36706Y32847989D01*
X25500Y32899500D01*
X25500Y58910001D01*
X2244341Y58910001D01*
X2244341Y58910000D01*
X2264936Y58674597D01*
X2264938Y58674587D01*
X2326094Y58446345D01*
X2326096Y58446341D01*
X2326097Y58446337D01*
X2364461Y58364066D01*
X2425965Y58232170D01*
X2425967Y58232166D01*
X2561501Y58038605D01*
X2561506Y58038598D01*
X2728597Y57871507D01*
X2728603Y57871502D01*
X2914158Y57741575D01*
X2957783Y57686998D01*
X2964977Y57617500D01*
X2933454Y57555145D01*
X2914158Y57538425D01*
X2728597Y57408495D01*
X2561505Y57241403D01*
X2425965Y57047831D01*
X2425964Y57047829D01*
X2326098Y56833665D01*
X2326094Y56833656D01*
X2264938Y56605414D01*
X2264936Y56605404D01*
X2244341Y56370001D01*
X2244341Y56370000D01*
X2264936Y56134597D01*
X2264938Y56134587D01*
X2326094Y55906345D01*
X2326096Y55906341D01*
X2326097Y55906337D01*
X2425965Y55692170D01*
X2425967Y55692166D01*
X2561501Y55498605D01*
X2561506Y55498598D01*
X2728597Y55331507D01*
X2728603Y55331502D01*
X2914158Y55201575D01*
X2957783Y55146998D01*
X2964977Y55077500D01*
X2933454Y55015145D01*
X2914158Y54998425D01*
X2728597Y54868495D01*
X2561505Y54701403D01*
X2425965Y54507831D01*
X2425964Y54507829D01*
X2326098Y54293665D01*
X2326094Y54293656D01*
X2264938Y54065414D01*
X2264936Y54065404D01*
X2244341Y53830001D01*
X2244341Y53830000D01*
X2264936Y53594597D01*
X2264938Y53594587D01*
X2326094Y53366345D01*
X2326096Y53366341D01*
X2326097Y53366337D01*
X2359563Y53294570D01*
X2425965Y53152170D01*
X2425967Y53152166D01*
X2561501Y52958605D01*
X2561506Y52958598D01*
X2728597Y52791507D01*
X2728603Y52791502D01*
X2914594Y52661270D01*
X2958219Y52606693D01*
X2965413Y52537195D01*
X2933890Y52474840D01*
X2914595Y52458120D01*
X2728922Y52328110D01*
X2728920Y52328109D01*
X2561891Y52161080D01*
X2561886Y52161074D01*
X2426400Y51967580D01*
X2426399Y51967578D01*
X2326570Y51753493D01*
X2326567Y51753487D01*
X2269364Y51540001D01*
X2269364Y51540000D01*
X3166988Y51540000D01*
X3134075Y51482993D01*
X3100000Y51355826D01*
X3100000Y51224174D01*
X3134075Y51097007D01*
X3166988Y51040000D01*
X2269364Y51040000D01*
X2326567Y50826514D01*
X2326570Y50826508D01*
X2426399Y50612422D01*
X2561894Y50418918D01*
X2728917Y50251895D01*
X2914595Y50121881D01*
X2958219Y50067304D01*
X2965412Y49997805D01*
X2933890Y49935451D01*
X2914595Y49918731D01*
X2728594Y49788492D01*
X2561505Y49621403D01*
X2425965Y49427831D01*
X2425964Y49427829D01*
X2326098Y49213665D01*
X2326094Y49213656D01*
X2264938Y48985414D01*
X2264936Y48985404D01*
X2244341Y48750001D01*
X2244341Y48750000D01*
X2264936Y48514597D01*
X2264938Y48514587D01*
X2326094Y48286345D01*
X2326096Y48286341D01*
X2326097Y48286337D01*
X2425965Y48072170D01*
X2472158Y48006199D01*
X2561501Y47878605D01*
X2561506Y47878598D01*
X2728597Y47711507D01*
X2728603Y47711502D01*
X2914158Y47581575D01*
X2957783Y47526998D01*
X2964977Y47457500D01*
X2933454Y47395145D01*
X2914158Y47378425D01*
X2728597Y47248495D01*
X2561505Y47081403D01*
X2425965Y46887831D01*
X2425964Y46887829D01*
X2326098Y46673665D01*
X2326094Y46673656D01*
X2264938Y46445414D01*
X2264936Y46445404D01*
X2244341Y46210001D01*
X2244341Y46210000D01*
X2264936Y45974597D01*
X2264938Y45974587D01*
X2326094Y45746345D01*
X2326096Y45746341D01*
X2326097Y45746337D01*
X2418921Y45547275D01*
X2425965Y45532170D01*
X2425967Y45532166D01*
X2534281Y45377479D01*
X2545217Y45361860D01*
X2561501Y45338605D01*
X2561506Y45338598D01*
X2728597Y45171507D01*
X2728603Y45171502D01*
X2914158Y45041575D01*
X2957783Y44986998D01*
X2964977Y44917500D01*
X2933454Y44855145D01*
X2914158Y44838425D01*
X2728597Y44708495D01*
X2561505Y44541403D01*
X2425965Y44347831D01*
X2425964Y44347829D01*
X2326098Y44133665D01*
X2326094Y44133656D01*
X2264938Y43905414D01*
X2264936Y43905404D01*
X2244341Y43670001D01*
X2244341Y43670000D01*
X2264936Y43434597D01*
X2264938Y43434587D01*
X2326094Y43206345D01*
X2326096Y43206341D01*
X2326097Y43206337D01*
X2350829Y43153300D01*
X2425965Y42992170D01*
X2425967Y42992166D01*
X2561501Y42798605D01*
X2561506Y42798598D01*
X2728597Y42631507D01*
X2728603Y42631502D01*
X2914158Y42501575D01*
X2957783Y42446998D01*
X2964977Y42377500D01*
X2933454Y42315145D01*
X2914158Y42298425D01*
X2728597Y42168495D01*
X2561505Y42001403D01*
X2425965Y41807831D01*
X2425964Y41807829D01*
X2326098Y41593665D01*
X2326094Y41593656D01*
X2264938Y41365414D01*
X2264936Y41365404D01*
X2244341Y41130001D01*
X2244341Y41130000D01*
X2264936Y40894597D01*
X2264938Y40894587D01*
X2326094Y40666345D01*
X2326096Y40666341D01*
X2326097Y40666337D01*
X2338780Y40639139D01*
X2425965Y40452170D01*
X2425967Y40452166D01*
X2561501Y40258605D01*
X2561506Y40258598D01*
X2728597Y40091507D01*
X2728603Y40091502D01*
X2914594Y39961270D01*
X2958219Y39906693D01*
X2965413Y39837195D01*
X2933890Y39774840D01*
X2914595Y39758120D01*
X2728922Y39628110D01*
X2728920Y39628109D01*
X2561891Y39461080D01*
X2561886Y39461074D01*
X2426400Y39267580D01*
X2426399Y39267578D01*
X2326570Y39053493D01*
X2326567Y39053487D01*
X2269364Y38840001D01*
X2269364Y38840000D01*
X3166988Y38840000D01*
X3134075Y38782993D01*
X3100000Y38655826D01*
X3100000Y38524174D01*
X3134075Y38397007D01*
X3166988Y38340000D01*
X2269364Y38340000D01*
X2326567Y38126514D01*
X2326570Y38126508D01*
X2426399Y37912422D01*
X2561894Y37718918D01*
X2728917Y37551895D01*
X2922421Y37416400D01*
X3136507Y37316571D01*
X3136516Y37316567D01*
X3350000Y37259366D01*
X3350000Y38156988D01*
X3407007Y38124075D01*
X3534174Y38090000D01*
X3665826Y38090000D01*
X3792993Y38124075D01*
X3850000Y38156988D01*
X3850000Y37259367D01*
X4063483Y37316567D01*
X4063492Y37316571D01*
X4277578Y37416400D01*
X4471082Y37551895D01*
X4638105Y37718918D01*
X4773600Y37912422D01*
X4873429Y38126508D01*
X4873432Y38126514D01*
X4930636Y38340000D01*
X4033012Y38340000D01*
X4065925Y38397007D01*
X4100000Y38524174D01*
X4100000Y38655826D01*
X4065925Y38782993D01*
X4033012Y38840000D01*
X4930636Y38840000D01*
X4930635Y38840001D01*
X4873432Y39053487D01*
X4873429Y39053493D01*
X4773600Y39267578D01*
X4773599Y39267580D01*
X4638113Y39461074D01*
X4638108Y39461080D01*
X4471078Y39628110D01*
X4285405Y39758121D01*
X4241780Y39812698D01*
X4234588Y39882196D01*
X4266110Y39944551D01*
X4285406Y39961270D01*
X4378831Y40026687D01*
X4471401Y40091505D01*
X4638495Y40258599D01*
X4774035Y40452170D01*
X4873903Y40666337D01*
X4935063Y40894592D01*
X4955659Y41130000D01*
X4935063Y41365408D01*
X4873903Y41593663D01*
X4774035Y41807829D01*
X4717772Y41888182D01*
X4638494Y42001403D01*
X4471402Y42168494D01*
X4471396Y42168499D01*
X4285842Y42298425D01*
X4242217Y42353002D01*
X4235023Y42422500D01*
X4266546Y42484855D01*
X4285842Y42501575D01*
X4462085Y42624982D01*
X4471401Y42631505D01*
X4638495Y42798599D01*
X4774035Y42992170D01*
X4873903Y43206337D01*
X4935063Y43434592D01*
X4955659Y43670000D01*
X4935063Y43905408D01*
X4873903Y44133663D01*
X4774035Y44347829D01*
X4741946Y44393658D01*
X4638494Y44541403D01*
X4471402Y44708494D01*
X4471396Y44708499D01*
X4285842Y44838425D01*
X4242217Y44893002D01*
X4235023Y44962500D01*
X4266546Y45024855D01*
X4285842Y45041575D01*
X4314322Y45061517D01*
X4471401Y45171505D01*
X4638495Y45338599D01*
X4774035Y45532170D01*
X4873903Y45746337D01*
X4935063Y45974592D01*
X4955659Y46210000D01*
X4935063Y46445408D01*
X4873903Y46673663D01*
X4774035Y46887829D01*
X4704198Y46987568D01*
X4638494Y47081403D01*
X4471402Y47248494D01*
X4471396Y47248499D01*
X4285842Y47378425D01*
X4242217Y47433002D01*
X4235023Y47502500D01*
X4266546Y47564855D01*
X4285842Y47581575D01*
X4364738Y47636819D01*
X4471401Y47711505D01*
X4638495Y47878599D01*
X4774035Y48072170D01*
X4873903Y48286337D01*
X4935063Y48514592D01*
X4955659Y48750000D01*
X4951944Y48792456D01*
X4942061Y48905421D01*
X4935063Y48985408D01*
X4873903Y49213663D01*
X4774035Y49427829D01*
X4773472Y49428634D01*
X4638494Y49621403D01*
X4471402Y49788494D01*
X4471401Y49788495D01*
X4285405Y49918731D01*
X4241781Y49973308D01*
X4234588Y50042807D01*
X4266110Y50105161D01*
X4285405Y50121881D01*
X4471082Y50251895D01*
X4638105Y50418918D01*
X4773600Y50612422D01*
X4873429Y50826508D01*
X4873432Y50826514D01*
X4930636Y51040000D01*
X4033012Y51040000D01*
X4065925Y51097007D01*
X4100000Y51224174D01*
X4100000Y51355826D01*
X4065925Y51482993D01*
X4033012Y51540000D01*
X4930636Y51540000D01*
X4930635Y51540001D01*
X4873432Y51753487D01*
X4873429Y51753493D01*
X4773600Y51967578D01*
X4773599Y51967580D01*
X4638113Y52161074D01*
X4638108Y52161080D01*
X4471078Y52328110D01*
X4285405Y52458121D01*
X4241780Y52512698D01*
X4234588Y52582196D01*
X4266110Y52644551D01*
X4285406Y52661270D01*
X4337308Y52697612D01*
X4471401Y52791505D01*
X4638495Y52958599D01*
X4774035Y53152170D01*
X4873903Y53366337D01*
X4935063Y53594592D01*
X4955659Y53830000D01*
X4935063Y54065408D01*
X4873903Y54293663D01*
X4774035Y54507829D01*
X4638495Y54701401D01*
X4638494Y54701403D01*
X4471402Y54868494D01*
X4471396Y54868499D01*
X4285842Y54998425D01*
X4242217Y55053002D01*
X4235023Y55122500D01*
X4266546Y55184855D01*
X4285842Y55201575D01*
X4308026Y55217109D01*
X4471401Y55331505D01*
X4638495Y55498599D01*
X4774035Y55692170D01*
X4873903Y55906337D01*
X4935063Y56134592D01*
X4955659Y56370000D01*
X4935063Y56605408D01*
X4873903Y56833663D01*
X4774035Y57047829D01*
X4764031Y57062117D01*
X4638494Y57241403D01*
X4471402Y57408494D01*
X4471396Y57408499D01*
X4285842Y57538425D01*
X4242217Y57593002D01*
X4235023Y57662500D01*
X4266546Y57724855D01*
X4285842Y57741575D01*
X4353400Y57788880D01*
X4471401Y57871505D01*
X4638495Y58038599D01*
X4653097Y58059455D01*
X4685781Y58091435D01*
X4747782Y58132861D01*
X4887139Y58272218D01*
X4887139Y58272220D01*
X4897343Y58282423D01*
X4897346Y58282428D01*
X6977139Y60362218D01*
X7050703Y60472315D01*
X7086632Y60526086D01*
X7162051Y60708165D01*
X7200500Y60901459D01*
X7200500Y76309219D01*
X7220185Y76376258D01*
X7236815Y76396896D01*
X7437591Y76597673D01*
X7498914Y76631157D01*
X7568606Y76626173D01*
X7624539Y76584301D01*
X7628374Y76578882D01*
X7647860Y76549718D01*
X7780811Y76416767D01*
X7812206Y76363682D01*
X7848254Y76239606D01*
X7848255Y76239604D01*
X7848256Y76239602D01*
X7849133Y76238119D01*
X7849466Y76236805D01*
X7851353Y76232446D01*
X7850649Y76232142D01*
X7866315Y76170396D01*
X7850861Y76117767D01*
X7851353Y76117554D01*
X7849630Y76113574D01*
X7849133Y76111882D01*
X7848506Y76110823D01*
X7848254Y76110395D01*
X7848254Y76110394D01*
X7802402Y75952574D01*
X7802401Y75952568D01*
X7799500Y75915702D01*
X7799500Y75484299D01*
X7802401Y75447433D01*
X7802402Y75447427D01*
X7848254Y75289607D01*
X7848254Y75289606D01*
X7848255Y75289604D01*
X7848256Y75289602D01*
X7849133Y75288119D01*
X7849466Y75286805D01*
X7851353Y75282446D01*
X7850649Y75282142D01*
X7866315Y75220396D01*
X7850861Y75167767D01*
X7851353Y75167554D01*
X7849630Y75163574D01*
X7849133Y75161882D01*
X7848506Y75160823D01*
X7848254Y75160395D01*
X7848254Y75160394D01*
X7802402Y75002574D01*
X7802401Y75002568D01*
X7799500Y74965702D01*
X7799500Y74534307D01*
X7802401Y74497433D01*
X7802402Y74497427D01*
X7848254Y74339607D01*
X7848255Y74339604D01*
X7931732Y74198450D01*
X7931918Y74198136D01*
X7931923Y74198130D01*
X8048129Y74081924D01*
X8048133Y74081921D01*
X8048135Y74081919D01*
X8048138Y74081918D01*
X8048141Y74081915D01*
X8151120Y74021014D01*
X8198804Y73969946D01*
X8212000Y73914282D01*
X8212000Y72216704D01*
X8212000Y72216702D01*
X8211999Y72216702D01*
X8240840Y72071718D01*
X8240842Y72071709D01*
X8297414Y71935131D01*
X8297418Y71935124D01*
X8325752Y71892718D01*
X8379549Y71812204D01*
X8379552Y71812201D01*
X9974706Y70217048D01*
X9974708Y70217046D01*
X9985254Y70210000D01*
X10048392Y70167814D01*
X10097627Y70134916D01*
X10097628Y70134916D01*
X10097629Y70134915D01*
X10097631Y70134914D01*
X10234204Y70078344D01*
X10234209Y70078342D01*
X10234213Y70078342D01*
X10234214Y70078341D01*
X10379201Y70049500D01*
X10379204Y70049500D01*
X10379205Y70049500D01*
X10527040Y70049500D01*
X15225500Y70049500D01*
X15292539Y70029815D01*
X15338294Y69977011D01*
X15349500Y69925500D01*
X15349500Y51160016D01*
X15349028Y51149209D01*
X15344723Y51100003D01*
X15344723Y51100000D01*
X15349028Y51050794D01*
X15349500Y51039986D01*
X15349500Y51001579D01*
X15357385Y50951799D01*
X15358440Y50943208D01*
X15363792Y50882028D01*
X15363795Y50882015D01*
X15373467Y50845917D01*
X15376165Y50833224D01*
X15380291Y50807172D01*
X15380291Y50807171D01*
X15399578Y50747813D01*
X15401421Y50741590D01*
X15420424Y50670670D01*
X15431136Y50647700D01*
X15436686Y50633610D01*
X15441115Y50619975D01*
X15474894Y50553680D01*
X15476791Y50549791D01*
X15512898Y50472361D01*
X15512901Y50472355D01*
X15520518Y50461478D01*
X15529427Y50446653D01*
X15530476Y50444595D01*
X15530478Y50444591D01*
X15549131Y50418918D01*
X15581257Y50374700D01*
X15582491Y50372971D01*
X15582504Y50372953D01*
X15638402Y50293123D01*
X15793123Y50138402D01*
X15873007Y50082467D01*
X15874608Y50081325D01*
X15944595Y50030476D01*
X15946642Y50029433D01*
X15961474Y50020521D01*
X15972361Y50012898D01*
X16004728Y49997805D01*
X16049790Y49976792D01*
X16053679Y49974895D01*
X16119975Y49941116D01*
X16133617Y49936684D01*
X16147692Y49931141D01*
X16170670Y49920425D01*
X16241583Y49901424D01*
X16241594Y49901421D01*
X16247808Y49899581D01*
X16307174Y49880291D01*
X16333227Y49876166D01*
X16345912Y49873470D01*
X16382023Y49863793D01*
X16443209Y49858441D01*
X16451776Y49857390D01*
X16501583Y49849500D01*
X16539985Y49849500D01*
X16550792Y49849028D01*
X16599998Y49844723D01*
X16600000Y49844723D01*
X16600002Y49844723D01*
X16649208Y49849028D01*
X16660015Y49849500D01*
X16698416Y49849500D01*
X16698417Y49849500D01*
X16748209Y49857387D01*
X16756799Y49858442D01*
X16817977Y49863793D01*
X16854087Y49873470D01*
X16866757Y49876164D01*
X16892826Y49880291D01*
X16952202Y49899585D01*
X16958405Y49901421D01*
X17029330Y49920425D01*
X17052297Y49931136D01*
X17066380Y49936684D01*
X17080025Y49941116D01*
X17146350Y49974911D01*
X17150199Y49976788D01*
X17227639Y50012898D01*
X17238514Y50020515D01*
X17253361Y50029435D01*
X17253367Y50029438D01*
X17255405Y50030476D01*
X17325377Y50081316D01*
X17326983Y50082461D01*
X17406877Y50138402D01*
X17561598Y50293123D01*
X17617539Y50373017D01*
X17618669Y50374602D01*
X17625185Y50383570D01*
X17680513Y50426232D01*
X17750126Y50432211D01*
X17811921Y50399605D01*
X17846278Y50338766D01*
X17849500Y50310681D01*
X17849500Y26042231D01*
X17829815Y25975192D01*
X17813181Y25954550D01*
X13907431Y22048801D01*
X13846108Y22015316D01*
X13776416Y22020300D01*
X13720483Y22062172D01*
X13696222Y22125673D01*
X13685635Y22246692D01*
X13626739Y22466496D01*
X13530568Y22672734D01*
X13400047Y22859139D01*
X13400045Y22859142D01*
X13239141Y23020046D01*
X13052734Y23150568D01*
X13052728Y23150571D01*
X12994725Y23177618D01*
X12942285Y23223790D01*
X12923133Y23290983D01*
X12943348Y23357865D01*
X12994725Y23402382D01*
X13052734Y23429432D01*
X13239139Y23559953D01*
X13400047Y23720861D01*
X13530568Y23907266D01*
X13626739Y24113504D01*
X13685635Y24333308D01*
X13705468Y24560000D01*
X13704756Y24568133D01*
X13693203Y24700188D01*
X13685635Y24786692D01*
X13629926Y24994602D01*
X13626741Y25006489D01*
X13626738Y25006498D01*
X13599146Y25065669D01*
X13530568Y25212734D01*
X13400047Y25399139D01*
X13400045Y25399142D01*
X13239141Y25560046D01*
X13052734Y25690568D01*
X13052728Y25690571D01*
X12994725Y25717618D01*
X12942285Y25763790D01*
X12923133Y25830983D01*
X12943348Y25897865D01*
X12994725Y25942382D01*
X13052734Y25969432D01*
X13239139Y26099953D01*
X13400047Y26260861D01*
X13530568Y26447266D01*
X13626739Y26653504D01*
X13685635Y26873308D01*
X13704098Y27084336D01*
X13705468Y27099999D01*
X13705468Y27100002D01*
X13694369Y27226865D01*
X13685635Y27326692D01*
X13629926Y27534602D01*
X13626741Y27546489D01*
X13626738Y27546498D01*
X13561593Y27686201D01*
X13530568Y27752734D01*
X13432839Y27892307D01*
X13400045Y27939142D01*
X13239141Y28100046D01*
X13052734Y28230568D01*
X13052728Y28230571D01*
X12994725Y28257618D01*
X12942285Y28303790D01*
X12923133Y28370983D01*
X12943348Y28437865D01*
X12994725Y28482382D01*
X13052734Y28509432D01*
X13239139Y28639953D01*
X13400047Y28800861D01*
X13530568Y28987266D01*
X13626739Y29193504D01*
X13685635Y29413308D01*
X13704173Y29625199D01*
X13705468Y29639999D01*
X13705468Y29640002D01*
X13692025Y29793656D01*
X13685635Y29866692D01*
X13626739Y30086496D01*
X13530568Y30292734D01*
X13400047Y30479139D01*
X13400045Y30479142D01*
X13239141Y30640046D01*
X13052734Y30770568D01*
X13052732Y30770569D01*
X12994725Y30797618D01*
X12994132Y30797895D01*
X12941694Y30844066D01*
X12922542Y30911260D01*
X12942758Y30978141D01*
X12994134Y31022659D01*
X13052484Y31049868D01*
X13238820Y31180343D01*
X13399657Y31341180D01*
X13530134Y31527518D01*
X13626265Y31733674D01*
X13626269Y31733683D01*
X13678872Y31930000D01*
X12833012Y31930000D01*
X12865925Y31987007D01*
X12900000Y32114174D01*
X12900000Y32245826D01*
X12865925Y32372993D01*
X12833012Y32430000D01*
X13678872Y32430000D01*
X13678872Y32430001D01*
X13626269Y32626318D01*
X13626265Y32626327D01*
X13530134Y32832483D01*
X13399657Y33018821D01*
X13238820Y33179658D01*
X13052482Y33310135D01*
X12994133Y33337343D01*
X12941694Y33383516D01*
X12922542Y33450709D01*
X12942758Y33517590D01*
X12994129Y33562105D01*
X13052734Y33589432D01*
X13239139Y33719953D01*
X13400047Y33880861D01*
X13530568Y34067266D01*
X13626739Y34273504D01*
X13685635Y34493308D01*
X13705468Y34720000D01*
X13685635Y34946692D01*
X13626739Y35166496D01*
X13530568Y35372734D01*
X13400047Y35559139D01*
X13400045Y35559142D01*
X13239141Y35720046D01*
X13052734Y35850568D01*
X13052728Y35850571D01*
X12994725Y35877618D01*
X12942285Y35923790D01*
X12923133Y35990983D01*
X12943348Y36057865D01*
X12994725Y36102382D01*
X12995319Y36102659D01*
X13052734Y36129432D01*
X13239139Y36259953D01*
X13400047Y36420861D01*
X13530568Y36607266D01*
X13626739Y36813504D01*
X13685635Y37033308D01*
X13705468Y37260000D01*
X13685635Y37486692D01*
X13626739Y37706496D01*
X13530568Y37912734D01*
X13400047Y38099139D01*
X13400045Y38099142D01*
X13239143Y38260044D01*
X13214536Y38277274D01*
X13170912Y38331851D01*
X13163719Y38401350D01*
X13195241Y38463704D01*
X13255471Y38499118D01*
X13272404Y38502139D01*
X13307483Y38505909D01*
X13442331Y38556204D01*
X13557546Y38642454D01*
X13643796Y38757669D01*
X13694091Y38892517D01*
X13700500Y38952127D01*
X13700499Y40647872D01*
X13694091Y40707483D01*
X13689500Y40719791D01*
X13643797Y40842329D01*
X13643793Y40842336D01*
X13557547Y40957545D01*
X13557544Y40957548D01*
X13442335Y41043794D01*
X13442328Y41043798D01*
X13307482Y41094092D01*
X13307483Y41094092D01*
X13247883Y41100499D01*
X13247881Y41100500D01*
X13247873Y41100500D01*
X13247864Y41100500D01*
X11552129Y41100500D01*
X11552123Y41100499D01*
X11492516Y41094092D01*
X11357671Y41043798D01*
X11357664Y41043794D01*
X11242455Y40957548D01*
X11242452Y40957545D01*
X11156206Y40842336D01*
X11156202Y40842329D01*
X11105908Y40707483D01*
X11102465Y40675452D01*
X11099501Y40647877D01*
X11099500Y40647865D01*
X11099500Y38952130D01*
X11099501Y38952124D01*
X11105908Y38892517D01*
X11156202Y38757672D01*
X11156206Y38757665D01*
X11242452Y38642456D01*
X11242455Y38642453D01*
X11357664Y38556207D01*
X11357671Y38556203D01*
X11385968Y38545649D01*
X11492517Y38505909D01*
X11527596Y38502138D01*
X11592144Y38475401D01*
X11631993Y38418009D01*
X11634488Y38348184D01*
X11598836Y38288095D01*
X11585464Y38277275D01*
X11560858Y38260046D01*
X11399954Y38099142D01*
X11269432Y37912735D01*
X11269431Y37912733D01*
X11173261Y37706498D01*
X11173258Y37706489D01*
X11114366Y37486698D01*
X11114364Y37486687D01*
X11094532Y37260002D01*
X11094532Y37259999D01*
X11114364Y37033314D01*
X11114366Y37033303D01*
X11173258Y36813512D01*
X11173261Y36813503D01*
X11269431Y36607268D01*
X11269432Y36607266D01*
X11399954Y36420859D01*
X11560858Y36259955D01*
X11560861Y36259953D01*
X11747266Y36129432D01*
X11804681Y36102659D01*
X11805275Y36102382D01*
X11857714Y36056209D01*
X11876866Y35989016D01*
X11856650Y35922135D01*
X11805275Y35877618D01*
X11747267Y35850569D01*
X11747265Y35850568D01*
X11560858Y35720046D01*
X11399954Y35559142D01*
X11269432Y35372735D01*
X11269431Y35372733D01*
X11173261Y35166498D01*
X11173258Y35166489D01*
X11114366Y34946698D01*
X11114364Y34946687D01*
X11094532Y34720002D01*
X11094532Y34719999D01*
X11114364Y34493314D01*
X11114366Y34493303D01*
X11173258Y34273512D01*
X11173261Y34273503D01*
X11269431Y34067268D01*
X11269432Y34067266D01*
X11399954Y33880859D01*
X11560858Y33719955D01*
X11560861Y33719953D01*
X11747266Y33589432D01*
X11805865Y33562107D01*
X11858305Y33515935D01*
X11877457Y33448742D01*
X11857242Y33381861D01*
X11805867Y33337343D01*
X11747515Y33310133D01*
X11561179Y33179658D01*
X11400342Y33018821D01*
X11269865Y32832483D01*
X11173734Y32626327D01*
X11173730Y32626318D01*
X11121127Y32430001D01*
X11121128Y32430000D01*
X11966988Y32430000D01*
X11934075Y32372993D01*
X11900000Y32245826D01*
X11900000Y32114174D01*
X11934075Y31987007D01*
X11966988Y31930000D01*
X11121128Y31930000D01*
X11173730Y31733683D01*
X11173734Y31733674D01*
X11269865Y31527518D01*
X11400342Y31341180D01*
X11561179Y31180343D01*
X11747518Y31049866D01*
X11747520Y31049865D01*
X11805865Y31022658D01*
X11858305Y30976486D01*
X11877457Y30909293D01*
X11857242Y30842411D01*
X11805867Y30797895D01*
X11747268Y30770569D01*
X11747264Y30770567D01*
X11560858Y30640046D01*
X11399954Y30479142D01*
X11269432Y30292735D01*
X11269431Y30292733D01*
X11173261Y30086498D01*
X11173258Y30086489D01*
X11114366Y29866698D01*
X11114364Y29866687D01*
X11094532Y29640002D01*
X11094532Y29639999D01*
X11114364Y29413314D01*
X11114366Y29413303D01*
X11173258Y29193512D01*
X11173261Y29193503D01*
X11269431Y28987268D01*
X11269432Y28987266D01*
X11399954Y28800859D01*
X11560858Y28639955D01*
X11560861Y28639953D01*
X11747266Y28509432D01*
X11774227Y28496860D01*
X11805275Y28482382D01*
X11857714Y28436209D01*
X11876866Y28369016D01*
X11856650Y28302135D01*
X11805275Y28257618D01*
X11747267Y28230569D01*
X11747265Y28230568D01*
X11560858Y28100046D01*
X11399954Y27939142D01*
X11269432Y27752735D01*
X11269431Y27752733D01*
X11173261Y27546498D01*
X11173258Y27546489D01*
X11114366Y27326698D01*
X11114364Y27326687D01*
X11094532Y27100002D01*
X11094532Y27099999D01*
X11114364Y26873314D01*
X11114366Y26873303D01*
X11173258Y26653512D01*
X11173261Y26653503D01*
X11269431Y26447268D01*
X11269432Y26447266D01*
X11399954Y26260859D01*
X11560858Y26099955D01*
X11560861Y26099953D01*
X11747266Y25969432D01*
X11805275Y25942382D01*
X11857714Y25896209D01*
X11876866Y25829016D01*
X11856650Y25762135D01*
X11805275Y25717618D01*
X11747267Y25690569D01*
X11747265Y25690568D01*
X11560858Y25560046D01*
X11399954Y25399142D01*
X11269432Y25212735D01*
X11269431Y25212733D01*
X11173261Y25006498D01*
X11173258Y25006489D01*
X11114366Y24786698D01*
X11114364Y24786687D01*
X11094532Y24560002D01*
X11094532Y24559999D01*
X11114364Y24333314D01*
X11114366Y24333303D01*
X11173258Y24113512D01*
X11173261Y24113503D01*
X11269431Y23907268D01*
X11269432Y23907266D01*
X11399954Y23720859D01*
X11560858Y23559955D01*
X11560861Y23559953D01*
X11747266Y23429432D01*
X11805275Y23402382D01*
X11857714Y23356209D01*
X11876866Y23289016D01*
X11856650Y23222135D01*
X11805275Y23177618D01*
X11747267Y23150569D01*
X11747265Y23150568D01*
X11560858Y23020046D01*
X11399954Y22859142D01*
X11269432Y22672735D01*
X11269431Y22672733D01*
X11173261Y22466498D01*
X11173258Y22466489D01*
X11114366Y22246698D01*
X11114364Y22246687D01*
X11094532Y22020002D01*
X11094532Y22019999D01*
X11114364Y21793314D01*
X11114366Y21793303D01*
X11173258Y21573512D01*
X11173261Y21573503D01*
X11269431Y21367268D01*
X11269432Y21367266D01*
X11399954Y21180859D01*
X11560858Y21019955D01*
X11560861Y21019953D01*
X11747266Y20889432D01*
X11805275Y20862382D01*
X11857714Y20816209D01*
X11876866Y20749016D01*
X11856650Y20682135D01*
X11805275Y20637618D01*
X11747267Y20610569D01*
X11747265Y20610568D01*
X11560858Y20480046D01*
X11399954Y20319142D01*
X11269432Y20132735D01*
X11269431Y20132733D01*
X11173261Y19926498D01*
X11173258Y19926489D01*
X11114366Y19706698D01*
X11114364Y19706687D01*
X11094532Y19480002D01*
X11094532Y19479999D01*
X11114364Y19253314D01*
X11114366Y19253303D01*
X11173258Y19033512D01*
X11173261Y19033503D01*
X11269431Y18827268D01*
X11269432Y18827266D01*
X11399954Y18640859D01*
X11560858Y18479955D01*
X11560861Y18479953D01*
X11747266Y18349432D01*
X11775102Y18336452D01*
X11805275Y18322382D01*
X11857714Y18276209D01*
X11876866Y18209016D01*
X11856650Y18142135D01*
X11805275Y18097618D01*
X11747267Y18070569D01*
X11747265Y18070568D01*
X11560858Y17940046D01*
X11399954Y17779142D01*
X11269432Y17592735D01*
X11269431Y17592733D01*
X11173261Y17386498D01*
X11173258Y17386489D01*
X11114366Y17166698D01*
X11114364Y17166687D01*
X11094532Y16940002D01*
X11094532Y16939999D01*
X11114364Y16713314D01*
X11114366Y16713303D01*
X11173258Y16493512D01*
X11173261Y16493503D01*
X11269431Y16287268D01*
X11269432Y16287266D01*
X11399954Y16100859D01*
X11560858Y15939955D01*
X11560861Y15939953D01*
X11747266Y15809432D01*
X11805275Y15782382D01*
X11857714Y15736209D01*
X11876866Y15669016D01*
X11856650Y15602135D01*
X11805275Y15557619D01*
X11788272Y15549690D01*
X11747267Y15530569D01*
X11747265Y15530568D01*
X11560858Y15400046D01*
X11399954Y15239142D01*
X11269432Y15052735D01*
X11269431Y15052733D01*
X11173261Y14846498D01*
X11173258Y14846489D01*
X11114366Y14626698D01*
X11114364Y14626687D01*
X11094532Y14400002D01*
X11094532Y14399999D01*
X11114364Y14173314D01*
X11114366Y14173303D01*
X11173258Y13953512D01*
X11173261Y13953503D01*
X11269431Y13747268D01*
X11269432Y13747266D01*
X11399954Y13560859D01*
X11560858Y13399955D01*
X11560861Y13399953D01*
X11747266Y13269432D01*
X11805275Y13242382D01*
X11857714Y13196209D01*
X11876866Y13129016D01*
X11856650Y13062135D01*
X11805275Y13017618D01*
X11747267Y12990569D01*
X11747265Y12990568D01*
X11560858Y12860046D01*
X11399954Y12699142D01*
X11269432Y12512735D01*
X11269431Y12512733D01*
X11173261Y12306498D01*
X11173258Y12306489D01*
X11114366Y12086698D01*
X11114364Y12086687D01*
X11094532Y11860002D01*
X11094532Y11859999D01*
X11114364Y11633314D01*
X11114366Y11633303D01*
X11173258Y11413512D01*
X11173261Y11413503D01*
X11269431Y11207268D01*
X11269432Y11207266D01*
X11399954Y11020859D01*
X11560858Y10859955D01*
X11560861Y10859953D01*
X11747266Y10729432D01*
X11782940Y10712797D01*
X11805275Y10702382D01*
X11857714Y10656209D01*
X11876866Y10589016D01*
X11856650Y10522135D01*
X11805275Y10477618D01*
X11747267Y10450569D01*
X11747265Y10450568D01*
X11560858Y10320046D01*
X11399954Y10159142D01*
X11269432Y9972735D01*
X11269431Y9972733D01*
X11173261Y9766498D01*
X11173258Y9766489D01*
X11114366Y9546698D01*
X11114364Y9546687D01*
X11094532Y9320002D01*
X11094532Y9319999D01*
X11114364Y9093314D01*
X11114366Y9093303D01*
X11173258Y8873512D01*
X11173261Y8873503D01*
X11269431Y8667268D01*
X11269432Y8667266D01*
X11399954Y8480859D01*
X11560858Y8319955D01*
X11560861Y8319953D01*
X11747266Y8189432D01*
X11774630Y8176672D01*
X11805275Y8162382D01*
X11857714Y8116209D01*
X11876866Y8049016D01*
X11856650Y7982135D01*
X11805275Y7937618D01*
X11747267Y7910569D01*
X11747265Y7910568D01*
X11560858Y7780046D01*
X11399954Y7619142D01*
X11269432Y7432735D01*
X11269431Y7432733D01*
X11173261Y7226498D01*
X11173258Y7226489D01*
X11114366Y7006698D01*
X11114364Y7006687D01*
X11094532Y6780002D01*
X11094532Y6779999D01*
X11114364Y6553314D01*
X11114366Y6553303D01*
X11173258Y6333512D01*
X11173261Y6333503D01*
X11269431Y6127268D01*
X11269432Y6127266D01*
X11399954Y5940859D01*
X11560858Y5779955D01*
X11566852Y5775758D01*
X11747266Y5649432D01*
X11805275Y5622382D01*
X11857714Y5576209D01*
X11876866Y5509016D01*
X11856650Y5442135D01*
X11805275Y5397619D01*
X11788485Y5389789D01*
X11747267Y5370569D01*
X11747265Y5370568D01*
X11560858Y5240046D01*
X11399954Y5079142D01*
X11269432Y4892735D01*
X11269431Y4892733D01*
X11173261Y4686498D01*
X11173258Y4686489D01*
X11114366Y4466698D01*
X11114364Y4466687D01*
X11094532Y4240002D01*
X11094532Y4239999D01*
X11114364Y4013314D01*
X11114366Y4013303D01*
X11173258Y3793512D01*
X11173261Y3793503D01*
X11269431Y3587268D01*
X11269432Y3587266D01*
X11399954Y3400859D01*
X11560858Y3239955D01*
X11560861Y3239953D01*
X11747266Y3109432D01*
X11953504Y3013261D01*
X11953509Y3013260D01*
X11953511Y3013259D01*
X11996404Y3001766D01*
X12173308Y2954365D01*
X12335230Y2940199D01*
X12399998Y2934532D01*
X12400000Y2934532D01*
X12400002Y2934532D01*
X12456673Y2939491D01*
X12626692Y2954365D01*
X12846496Y3013261D01*
X13052734Y3109432D01*
X13239139Y3239953D01*
X13400047Y3400861D01*
X13530568Y3587266D01*
X13626739Y3793504D01*
X13685635Y4013308D01*
X13705468Y4240000D01*
X13690869Y4406863D01*
X13704635Y4475361D01*
X13726713Y4505347D01*
X16421366Y7200000D01*
X17594540Y7200000D01*
X17614326Y7011744D01*
X17614327Y7011741D01*
X17672818Y6831723D01*
X17672821Y6831716D01*
X17742887Y6710359D01*
X17759500Y6648359D01*
X17759500Y6307330D01*
X17754576Y6272735D01*
X17712402Y6127574D01*
X17712401Y6127568D01*
X17709500Y6090702D01*
X17709500Y4709299D01*
X17712401Y4672433D01*
X17712402Y4672427D01*
X17758254Y4514607D01*
X17758255Y4514604D01*
X17841917Y4373138D01*
X17841923Y4373130D01*
X17958129Y4256924D01*
X17958133Y4256921D01*
X17958135Y4256919D01*
X18099602Y4173256D01*
X18141224Y4161164D01*
X18257426Y4127403D01*
X18257429Y4127403D01*
X18257431Y4127402D01*
X18294306Y4124500D01*
X18294314Y4124500D01*
X18725686Y4124500D01*
X18725694Y4124500D01*
X18762569Y4127402D01*
X18762571Y4127403D01*
X18762573Y4127403D01*
X18804191Y4139495D01*
X18920398Y4173256D01*
X18942471Y4186310D01*
X18946878Y4188916D01*
X19014601Y4206100D01*
X19073122Y4188916D01*
X19099598Y4173258D01*
X19099599Y4173258D01*
X19099602Y4173256D01*
X19141224Y4161164D01*
X19257426Y4127403D01*
X19257429Y4127403D01*
X19257431Y4127402D01*
X19294306Y4124500D01*
X19294314Y4124500D01*
X19635500Y4124500D01*
X19702539Y4104815D01*
X19748294Y4052011D01*
X19759500Y4000500D01*
X19759500Y3801143D01*
X19742888Y3739144D01*
X19672820Y3617782D01*
X19672818Y3617778D01*
X19614639Y3438719D01*
X19614326Y3437756D01*
X19594540Y3249500D01*
X19614326Y3061244D01*
X19614327Y3061241D01*
X19672818Y2881223D01*
X19672821Y2881216D01*
X19767467Y2717284D01*
X19839738Y2637019D01*
X19894129Y2576612D01*
X20047265Y2465352D01*
X20047270Y2465349D01*
X20220192Y2388358D01*
X20220197Y2388356D01*
X20405354Y2349000D01*
X20405355Y2349000D01*
X20594644Y2349000D01*
X20594646Y2349000D01*
X20779803Y2388356D01*
X20952730Y2465349D01*
X21105871Y2576612D01*
X21232533Y2717284D01*
X21327179Y2881216D01*
X21385674Y3061244D01*
X21405460Y3249500D01*
X21385674Y3437756D01*
X21327179Y3617784D01*
X21277111Y3704504D01*
X21260500Y3766502D01*
X21260500Y4127705D01*
X21760000Y4127705D01*
X21760001Y4127705D01*
X21762486Y4127900D01*
X21920198Y4173719D01*
X22061552Y4257315D01*
X22061561Y4257322D01*
X22177678Y4373439D01*
X22177685Y4373448D01*
X22261282Y4514804D01*
X22261283Y4514807D01*
X22307099Y4672505D01*
X22307100Y4672511D01*
X22309999Y4709351D01*
X22310000Y4709366D01*
X22310000Y5150000D01*
X21760000Y5150000D01*
X21760000Y4127705D01*
X21260500Y4127705D01*
X21260500Y4492672D01*
X21265424Y4527267D01*
X21307597Y4672427D01*
X21307598Y4672433D01*
X21310499Y4709299D01*
X21310500Y4709306D01*
X21310500Y5650000D01*
X21760000Y5650000D01*
X22310000Y5650000D01*
X22310000Y6090635D01*
X22309999Y6090650D01*
X22307100Y6127490D01*
X22307099Y6127496D01*
X22261283Y6285194D01*
X22261282Y6285197D01*
X22177685Y6426553D01*
X22177678Y6426562D01*
X22061561Y6542679D01*
X22061552Y6542686D01*
X21920196Y6626283D01*
X21920193Y6626284D01*
X21762494Y6672100D01*
X21762497Y6672100D01*
X21760000Y6672297D01*
X21760000Y5650000D01*
X21310500Y5650000D01*
X21310500Y6090694D01*
X21307598Y6127569D01*
X21300934Y6150507D01*
X21264924Y6274455D01*
X21260000Y6309050D01*
X21260000Y6672297D01*
X21257504Y6672100D01*
X21099806Y6626284D01*
X21099798Y6626281D01*
X21073608Y6610792D01*
X21005884Y6593612D01*
X20947371Y6610793D01*
X20920398Y6626744D01*
X20920393Y6626746D01*
X20762573Y6672598D01*
X20762567Y6672599D01*
X20725701Y6675500D01*
X20725694Y6675500D01*
X20547093Y6675500D01*
X20480054Y6695185D01*
X20434299Y6747989D01*
X20424355Y6817147D01*
X20429162Y6837818D01*
X20450173Y6902483D01*
X20485674Y7011744D01*
X20505460Y7200000D01*
X20485674Y7388256D01*
X20427179Y7568284D01*
X20332533Y7732216D01*
X20205871Y7872888D01*
X20172242Y7897321D01*
X20052734Y7984149D01*
X20052729Y7984152D01*
X19879807Y8061143D01*
X19879802Y8061145D01*
X19709931Y8097251D01*
X19694646Y8100500D01*
X19505354Y8100500D01*
X19490069Y8097251D01*
X19320197Y8061145D01*
X19320192Y8061143D01*
X19147270Y7984152D01*
X19147265Y7984149D01*
X19122885Y7966435D01*
X19057079Y7942955D01*
X18989025Y7958781D01*
X18977115Y7966435D01*
X18952734Y7984149D01*
X18952729Y7984152D01*
X18779807Y8061143D01*
X18779802Y8061145D01*
X18609931Y8097251D01*
X18594646Y8100500D01*
X18405354Y8100500D01*
X18390069Y8097251D01*
X18220197Y8061145D01*
X18220192Y8061143D01*
X18047270Y7984152D01*
X18047265Y7984149D01*
X17894129Y7872889D01*
X17767466Y7732215D01*
X17672821Y7568285D01*
X17672818Y7568278D01*
X17614327Y7388260D01*
X17614326Y7388256D01*
X17594540Y7200000D01*
X16421366Y7200000D01*
X21544548Y12323181D01*
X21605871Y12356666D01*
X21632229Y12359500D01*
X26265863Y12359500D01*
X26332902Y12339815D01*
X26378657Y12287011D01*
X26388601Y12217853D01*
X26385638Y12203407D01*
X26354366Y12086698D01*
X26354364Y12086687D01*
X26334532Y11860002D01*
X26334532Y11859999D01*
X26354364Y11633314D01*
X26354366Y11633303D01*
X26413258Y11413512D01*
X26413261Y11413503D01*
X26509431Y11207268D01*
X26509432Y11207266D01*
X26639954Y11020859D01*
X26800858Y10859955D01*
X26800861Y10859953D01*
X26987266Y10729432D01*
X27022940Y10712797D01*
X27045275Y10702382D01*
X27097714Y10656209D01*
X27116866Y10589016D01*
X27096650Y10522135D01*
X27045275Y10477618D01*
X26987267Y10450569D01*
X26987265Y10450568D01*
X26800858Y10320046D01*
X26639954Y10159142D01*
X26509432Y9972735D01*
X26509431Y9972733D01*
X26413261Y9766498D01*
X26413258Y9766489D01*
X26354366Y9546698D01*
X26354364Y9546687D01*
X26334532Y9320002D01*
X26334532Y9319999D01*
X26354364Y9093314D01*
X26354366Y9093303D01*
X26413258Y8873512D01*
X26413261Y8873503D01*
X26509431Y8667268D01*
X26509432Y8667266D01*
X26639954Y8480859D01*
X26800858Y8319955D01*
X26800861Y8319953D01*
X26987266Y8189432D01*
X27014630Y8176672D01*
X27045275Y8162382D01*
X27097714Y8116209D01*
X27116866Y8049016D01*
X27096650Y7982135D01*
X27045275Y7937618D01*
X26987267Y7910569D01*
X26987265Y7910568D01*
X26800858Y7780046D01*
X26639954Y7619142D01*
X26509432Y7432735D01*
X26509431Y7432733D01*
X26413261Y7226498D01*
X26413258Y7226489D01*
X26354366Y7006698D01*
X26354364Y7006687D01*
X26334532Y6780002D01*
X26334532Y6779999D01*
X26354364Y6553314D01*
X26354366Y6553303D01*
X26413258Y6333512D01*
X26413261Y6333503D01*
X26509431Y6127268D01*
X26509432Y6127266D01*
X26639954Y5940859D01*
X26800858Y5779955D01*
X26806852Y5775758D01*
X26987266Y5649432D01*
X27045275Y5622382D01*
X27097714Y5576209D01*
X27116866Y5509016D01*
X27096650Y5442135D01*
X27045275Y5397619D01*
X27028485Y5389789D01*
X26987267Y5370569D01*
X26987265Y5370568D01*
X26800858Y5240046D01*
X26639954Y5079142D01*
X26509432Y4892735D01*
X26509431Y4892733D01*
X26413261Y4686498D01*
X26413258Y4686489D01*
X26354366Y4466698D01*
X26354364Y4466687D01*
X26334532Y4240002D01*
X26334532Y4239999D01*
X26354364Y4013314D01*
X26354366Y4013303D01*
X26413258Y3793512D01*
X26413261Y3793503D01*
X26509431Y3587268D01*
X26509432Y3587266D01*
X26639954Y3400859D01*
X26800858Y3239955D01*
X26800861Y3239953D01*
X26987266Y3109432D01*
X27193504Y3013261D01*
X27193509Y3013260D01*
X27193511Y3013259D01*
X27236404Y3001766D01*
X27413308Y2954365D01*
X27575230Y2940199D01*
X27639998Y2934532D01*
X27640000Y2934532D01*
X27640002Y2934532D01*
X27696673Y2939491D01*
X27866692Y2954365D01*
X28086496Y3013261D01*
X28292734Y3109432D01*
X28479139Y3239953D01*
X28640047Y3400861D01*
X28770568Y3587266D01*
X28866739Y3793504D01*
X28925635Y4013308D01*
X28945237Y4237364D01*
X28945468Y4239999D01*
X28945468Y4240001D01*
X28943400Y4263634D01*
X28930869Y4406863D01*
X28944635Y4475361D01*
X28966713Y4505347D01*
X35434549Y10973181D01*
X35495872Y11006666D01*
X35522230Y11009500D01*
X36145409Y11009500D01*
X36212448Y10989815D01*
X36258203Y10937011D01*
X36268147Y10867853D01*
X36263116Y10846501D01*
X36218811Y10712797D01*
X36218811Y10712796D01*
X36218810Y10712796D01*
X36208310Y10610017D01*
X36208310Y9709999D01*
X36208311Y9709981D01*
X36218810Y9607204D01*
X36218811Y9607201D01*
X36238860Y9546698D01*
X36273996Y9440666D01*
X36366098Y9291344D01*
X36490154Y9167288D01*
X36639476Y9075186D01*
X36806013Y9020001D01*
X36908801Y9009500D01*
X37621579Y9009501D01*
X37688618Y8989817D01*
X37709260Y8973182D01*
X38605390Y8077052D01*
X38605394Y8077049D01*
X38728308Y7994920D01*
X38728321Y7994913D01*
X38842002Y7947825D01*
X38896406Y7903984D01*
X38900088Y7898361D01*
X38966095Y7791348D01*
X38966098Y7791344D01*
X39090154Y7667288D01*
X39239476Y7575186D01*
X39406013Y7520001D01*
X39508801Y7509500D01*
X40858818Y7509501D01*
X40961607Y7520001D01*
X41128144Y7575186D01*
X41277466Y7667288D01*
X41401522Y7791344D01*
X41438069Y7850598D01*
X41490017Y7897321D01*
X41543608Y7909500D01*
X43477770Y7909500D01*
X43544809Y7889815D01*
X43565451Y7873181D01*
X45287228Y6151404D01*
X45317478Y6102042D01*
X45372819Y5931720D01*
X45372821Y5931716D01*
X45467467Y5767784D01*
X45574031Y5649433D01*
X45594129Y5627112D01*
X45747265Y5515852D01*
X45747270Y5515849D01*
X45920192Y5438858D01*
X45920197Y5438856D01*
X46105354Y5399500D01*
X46105355Y5399500D01*
X46294644Y5399500D01*
X46294646Y5399500D01*
X46479803Y5438856D01*
X46652730Y5515849D01*
X46805871Y5627112D01*
X46932533Y5767784D01*
X47027179Y5931716D01*
X47085674Y6111744D01*
X47105460Y6300000D01*
X47085674Y6488256D01*
X47027179Y6668284D01*
X46932533Y6832216D01*
X46805871Y6972888D01*
X46761282Y7005284D01*
X46652734Y7084149D01*
X46652729Y7084152D01*
X46479807Y7161143D01*
X46479803Y7161144D01*
X46414669Y7174989D01*
X46353188Y7208182D01*
X46352770Y7208598D01*
X44989049Y8572319D01*
X44955564Y8633642D01*
X44960548Y8703334D01*
X44989049Y8747681D01*
X45882947Y9641579D01*
X45882952Y9641584D01*
X45951927Y9744814D01*
X45965084Y9764505D01*
X46021658Y9901087D01*
X46050500Y10046082D01*
X46050500Y12682084D01*
X46070185Y12749123D01*
X46122989Y12794878D01*
X46164772Y12805702D01*
X46186379Y12807402D01*
X46186381Y12807403D01*
X46186383Y12807403D01*
X46228001Y12819495D01*
X46344208Y12853256D01*
X46485675Y12936919D01*
X46541046Y12992290D01*
X46607408Y13058651D01*
X46608987Y13057072D01*
X46656431Y13091343D01*
X46726197Y13095140D01*
X46785802Y13061263D01*
X46785991Y13061451D01*
X46786674Y13060768D01*
X46786941Y13060616D01*
X46787745Y13059697D01*
X46791098Y13056344D01*
X46915154Y12932288D01*
X47064476Y12840186D01*
X47231013Y12785001D01*
X47333801Y12774500D01*
X48733818Y12774501D01*
X48836607Y12785001D01*
X49003144Y12840186D01*
X49152466Y12932288D01*
X49226129Y13005951D01*
X49287452Y13039436D01*
X49357144Y13034452D01*
X49401491Y13005951D01*
X49415154Y12992288D01*
X49564476Y12900186D01*
X49731013Y12845001D01*
X49833801Y12834500D01*
X50733818Y12834501D01*
X50733826Y12834502D01*
X50733829Y12834502D01*
X50790112Y12840252D01*
X50836607Y12845001D01*
X51003144Y12900186D01*
X51152466Y12992288D01*
X51276522Y13116344D01*
X51368624Y13265666D01*
X51423809Y13432203D01*
X51434310Y13534991D01*
X51434309Y14885008D01*
X51423809Y14987797D01*
X51368624Y15154334D01*
X51276522Y15303656D01*
X51152466Y15427712D01*
X51152465Y15427713D01*
X51117205Y15449461D01*
X51070480Y15501409D01*
X51059257Y15570371D01*
X51087100Y15634453D01*
X51117205Y15660539D01*
X51152466Y15682288D01*
X51276522Y15806344D01*
X51368624Y15955666D01*
X51423809Y16122203D01*
X51434310Y16224991D01*
X51434309Y17575008D01*
X51434308Y17575017D01*
X52233310Y17575017D01*
X52233310Y16224999D01*
X52233311Y16224982D01*
X52243810Y16122204D01*
X52243811Y16122201D01*
X52298995Y15955669D01*
X52298997Y15955664D01*
X52308688Y15939953D01*
X52391097Y15806345D01*
X52391099Y15806343D01*
X52515153Y15682289D01*
X52515157Y15682286D01*
X52550415Y15660538D01*
X52597140Y15608590D01*
X52608361Y15539628D01*
X52580518Y15475546D01*
X52550415Y15449462D01*
X52515157Y15427715D01*
X52515153Y15427712D01*
X52391099Y15303658D01*
X52298997Y15154337D01*
X52298995Y15154332D01*
X52287893Y15120828D01*
X52243811Y14987797D01*
X52243811Y14987796D01*
X52243810Y14987796D01*
X52233310Y14885017D01*
X52233310Y13534999D01*
X52233311Y13534982D01*
X52243810Y13432204D01*
X52243811Y13432201D01*
X52298995Y13265669D01*
X52298997Y13265664D01*
X52325860Y13222112D01*
X52391098Y13116344D01*
X52515154Y12992288D01*
X52664476Y12900186D01*
X52831013Y12845001D01*
X52933801Y12834500D01*
X53833818Y12834501D01*
X53833826Y12834502D01*
X53833829Y12834502D01*
X53890112Y12840252D01*
X53936607Y12845001D01*
X54103144Y12900186D01*
X54252466Y12992288D01*
X54376522Y13116344D01*
X54468624Y13265666D01*
X54504689Y13374506D01*
X54544462Y13431949D01*
X54608977Y13458772D01*
X54622395Y13459500D01*
X61775500Y13459500D01*
X61842539Y13439815D01*
X61888294Y13387011D01*
X61899500Y13335500D01*
X61899500Y11812130D01*
X61899501Y11812124D01*
X61905908Y11752517D01*
X61956202Y11617672D01*
X61956206Y11617665D01*
X62042452Y11502456D01*
X62042455Y11502453D01*
X62157664Y11416207D01*
X62157671Y11416203D01*
X62292517Y11365909D01*
X62292516Y11365909D01*
X62299444Y11365165D01*
X62352127Y11359500D01*
X64647872Y11359501D01*
X64707483Y11365909D01*
X64842331Y11416204D01*
X64957546Y11502454D01*
X65043796Y11617669D01*
X65094091Y11752517D01*
X65100500Y11812127D01*
X65100499Y12516429D01*
X65120183Y12583465D01*
X65172987Y12629220D01*
X65242146Y12639164D01*
X65305702Y12610139D01*
X65327601Y12585317D01*
X65418210Y12449712D01*
X65418213Y12449708D01*
X65529707Y12338214D01*
X65529711Y12338211D01*
X65660814Y12250610D01*
X65660827Y12250603D01*
X65758848Y12210002D01*
X65806503Y12190263D01*
X65961153Y12159501D01*
X65961156Y12159500D01*
X65961158Y12159500D01*
X66118844Y12159500D01*
X66118845Y12159501D01*
X66273497Y12190263D01*
X66419179Y12250606D01*
X66550289Y12338211D01*
X66661789Y12449711D01*
X66749394Y12580821D01*
X66809737Y12726503D01*
X66840500Y12881158D01*
X66840500Y13038842D01*
X66840500Y13038845D01*
X66840499Y13038847D01*
X66835867Y13062135D01*
X66809737Y13193497D01*
X66807928Y13197865D01*
X66749397Y13339173D01*
X66749390Y13339186D01*
X66661789Y13470289D01*
X66661786Y13470293D01*
X66550292Y13581787D01*
X66550288Y13581790D01*
X66419185Y13669391D01*
X66419172Y13669398D01*
X66273501Y13729736D01*
X66273489Y13729739D01*
X66118845Y13760500D01*
X66118842Y13760500D01*
X65961158Y13760500D01*
X65961155Y13760500D01*
X65806510Y13729739D01*
X65806498Y13729736D01*
X65660827Y13669398D01*
X65660814Y13669391D01*
X65529711Y13581790D01*
X65529707Y13581787D01*
X65418213Y13470293D01*
X65418210Y13470289D01*
X65327601Y13334684D01*
X65273988Y13289879D01*
X65204663Y13281172D01*
X65141636Y13311327D01*
X65104917Y13370770D01*
X65100499Y13403575D01*
X65100499Y14107871D01*
X65100498Y14107877D01*
X65098711Y14124500D01*
X65094091Y14167483D01*
X65091920Y14173303D01*
X65043797Y14302329D01*
X65043793Y14302336D01*
X64957547Y14417545D01*
X64880894Y14474928D01*
X64839024Y14530862D01*
X64834040Y14600554D01*
X64849476Y14638979D01*
X64930466Y14771141D01*
X65026873Y15003889D01*
X65067003Y15171046D01*
X65101792Y15231635D01*
X65163818Y15263800D01*
X65233387Y15257324D01*
X65288411Y15214265D01*
X65302137Y15189550D01*
X65330604Y15120825D01*
X65330609Y15120815D01*
X65418210Y14989712D01*
X65418213Y14989708D01*
X65529707Y14878214D01*
X65529711Y14878211D01*
X65660814Y14790610D01*
X65660827Y14790603D01*
X65739894Y14757853D01*
X65806503Y14730263D01*
X65961153Y14699501D01*
X65961156Y14699500D01*
X65961158Y14699500D01*
X66118844Y14699500D01*
X66118845Y14699501D01*
X66273497Y14730263D01*
X66419179Y14790606D01*
X66550289Y14878211D01*
X66661789Y14989711D01*
X66749394Y15120821D01*
X66809737Y15266503D01*
X66840500Y15421158D01*
X66840500Y15578842D01*
X66840500Y15578845D01*
X66840499Y15578847D01*
X66838742Y15587682D01*
X66809737Y15733497D01*
X66809279Y15734602D01*
X66749397Y15879173D01*
X66749390Y15879186D01*
X66661789Y16010289D01*
X66661786Y16010293D01*
X66550292Y16121787D01*
X66550288Y16121790D01*
X66419185Y16209391D01*
X66419172Y16209398D01*
X66273501Y16269736D01*
X66273489Y16269739D01*
X66118845Y16300500D01*
X66118842Y16300500D01*
X65961158Y16300500D01*
X65961155Y16300500D01*
X65806510Y16269739D01*
X65806498Y16269736D01*
X65660827Y16209398D01*
X65660814Y16209391D01*
X65529711Y16121790D01*
X65529707Y16121787D01*
X65418213Y16010293D01*
X65418210Y16010289D01*
X65330609Y15879186D01*
X65330606Y15879180D01*
X65302137Y15810450D01*
X65258295Y15756047D01*
X65192001Y15733983D01*
X65124302Y15751263D01*
X65076692Y15802400D01*
X65067003Y15828954D01*
X65026873Y15996111D01*
X64963639Y16148772D01*
X64930466Y16228860D01*
X64798839Y16443654D01*
X64798838Y16443657D01*
X64756264Y16493504D01*
X64635224Y16635224D01*
X64508571Y16743396D01*
X64443656Y16798839D01*
X64443653Y16798840D01*
X64228859Y16930467D01*
X63996110Y17026874D01*
X63751151Y17085683D01*
X63500000Y17105449D01*
X63248848Y17085683D01*
X63003887Y17026873D01*
X63003885Y17026873D01*
X62960655Y17008966D01*
X62891185Y17001497D01*
X62828706Y17032773D01*
X62825522Y17035846D01*
X62378421Y17482948D01*
X62378414Y17482954D01*
X62291665Y17540917D01*
X62291664Y17540917D01*
X62255500Y17565081D01*
X62255488Y17565088D01*
X62118917Y17621657D01*
X62118907Y17621660D01*
X61973920Y17650500D01*
X61973918Y17650500D01*
X54622395Y17650500D01*
X54555356Y17670185D01*
X54509601Y17722989D01*
X54504689Y17735496D01*
X54468624Y17844334D01*
X54376522Y17993656D01*
X54252466Y18117712D01*
X54103144Y18209814D01*
X53936607Y18264999D01*
X53936605Y18265000D01*
X53833820Y18275500D01*
X52933808Y18275500D01*
X52933790Y18275499D01*
X52831013Y18265000D01*
X52831010Y18264999D01*
X52664478Y18209815D01*
X52664473Y18209813D01*
X52515152Y18117711D01*
X52391099Y17993658D01*
X52298997Y17844337D01*
X52298995Y17844332D01*
X52277393Y17779142D01*
X52243811Y17677797D01*
X52243811Y17677796D01*
X52243810Y17677796D01*
X52233310Y17575017D01*
X51434308Y17575017D01*
X51429543Y17621660D01*
X51423809Y17677797D01*
X51423808Y17677800D01*
X51404689Y17735496D01*
X51368624Y17844334D01*
X51276522Y17993656D01*
X51152466Y18117712D01*
X51003144Y18209814D01*
X50836607Y18264999D01*
X50836605Y18265000D01*
X50733820Y18275500D01*
X49833808Y18275500D01*
X49833790Y18275499D01*
X49731013Y18265000D01*
X49731010Y18264999D01*
X49564478Y18209815D01*
X49564473Y18209813D01*
X49415152Y18117711D01*
X49346489Y18049049D01*
X49285165Y18015564D01*
X49215474Y18020550D01*
X49171128Y18049050D01*
X49152467Y18067711D01*
X49152466Y18067712D01*
X49059698Y18124931D01*
X49003146Y18159813D01*
X49003141Y18159815D01*
X48982246Y18166739D01*
X48836607Y18214999D01*
X48836605Y18215000D01*
X48733820Y18225500D01*
X47333808Y18225500D01*
X47333791Y18225499D01*
X47231013Y18215000D01*
X47231010Y18214999D01*
X47064478Y18159815D01*
X47064473Y18159813D01*
X46915155Y18067713D01*
X46793502Y17946060D01*
X46732179Y17912576D01*
X46662487Y17917560D01*
X46606554Y17959432D01*
X46603697Y17963714D01*
X46601488Y17966562D01*
X46485371Y18082679D01*
X46485362Y18082686D01*
X46344006Y18166283D01*
X46344003Y18166284D01*
X46186305Y18212100D01*
X46186299Y18212101D01*
X46149459Y18215000D01*
X45508810Y18215000D01*
X45508810Y17289000D01*
X45489125Y17221961D01*
X45436321Y17176206D01*
X45384810Y17165000D01*
X43786515Y17165000D01*
X43786514Y17164999D01*
X43786709Y17162514D01*
X43832528Y17004802D01*
X43916124Y16863448D01*
X43920910Y16857278D01*
X43918450Y16855371D01*
X43945020Y16806712D01*
X43940036Y16737020D01*
X43918972Y16704219D01*
X43920509Y16703026D01*
X43915725Y16696860D01*
X43832065Y16555397D01*
X43832064Y16555394D01*
X43786212Y16397574D01*
X43786211Y16397568D01*
X43783310Y16360702D01*
X43783310Y15929299D01*
X43786211Y15892433D01*
X43786212Y15892427D01*
X43832064Y15734607D01*
X43832065Y15734604D01*
X43832066Y15734602D01*
X43832724Y15733490D01*
X43915727Y15593138D01*
X43920512Y15586969D01*
X43918066Y15585073D01*
X43944667Y15536358D01*
X43939683Y15466666D01*
X43918879Y15434297D01*
X43920512Y15433031D01*
X43915727Y15426863D01*
X43832065Y15285397D01*
X43832064Y15285394D01*
X43786212Y15127574D01*
X43786211Y15127568D01*
X43783310Y15090702D01*
X43783310Y14977420D01*
X43763625Y14910381D01*
X43710821Y14864626D01*
X43641663Y14854682D01*
X43578107Y14883707D01*
X43571629Y14889739D01*
X43286819Y15174549D01*
X43253334Y15235872D01*
X43250500Y15262230D01*
X43250500Y17665002D01*
X43786514Y17665002D01*
X43786515Y17665000D01*
X45008810Y17665000D01*
X45008810Y18215000D01*
X44368160Y18215000D01*
X44331320Y18212101D01*
X44331314Y18212100D01*
X44173616Y18166284D01*
X44173613Y18166283D01*
X44032257Y18082686D01*
X44032248Y18082679D01*
X43916131Y17966562D01*
X43916124Y17966553D01*
X43832528Y17825199D01*
X43786709Y17667487D01*
X43786514Y17665002D01*
X43250500Y17665002D01*
X43250500Y21437771D01*
X43270185Y21504810D01*
X43286815Y21525448D01*
X43549549Y21788183D01*
X43610872Y21821667D01*
X43637230Y21824501D01*
X44200002Y21824501D01*
X44200008Y21824501D01*
X44302797Y21835001D01*
X44469334Y21890186D01*
X44618656Y21982288D01*
X44742712Y22106344D01*
X44834814Y22255666D01*
X44889999Y22422203D01*
X44900500Y22524991D01*
X44900499Y23875008D01*
X44889999Y23977797D01*
X44889995Y23977807D01*
X44889866Y23978413D01*
X44889895Y23978810D01*
X44889311Y23984533D01*
X44890330Y23984638D01*
X44895071Y24048089D01*
X44923432Y24092066D01*
X45399548Y24568181D01*
X45460871Y24601666D01*
X45487229Y24604500D01*
X46065686Y24604500D01*
X46065694Y24604500D01*
X46102569Y24607402D01*
X46102571Y24607403D01*
X46102573Y24607403D01*
X46144191Y24619495D01*
X46260398Y24653256D01*
X46401865Y24736919D01*
X46457236Y24792290D01*
X46523598Y24858651D01*
X46525177Y24857072D01*
X46572621Y24891343D01*
X46642387Y24895140D01*
X46701992Y24861263D01*
X46702181Y24861451D01*
X46702864Y24860768D01*
X46703131Y24860616D01*
X46703935Y24859697D01*
X46707288Y24856344D01*
X46831344Y24732288D01*
X46980666Y24640186D01*
X47147203Y24585001D01*
X47249991Y24574500D01*
X48650008Y24574501D01*
X48752797Y24585001D01*
X48919334Y24640186D01*
X49068656Y24732288D01*
X49142319Y24805951D01*
X49203642Y24839436D01*
X49273334Y24834452D01*
X49317681Y24805951D01*
X49331344Y24792288D01*
X49480666Y24700186D01*
X49647203Y24645001D01*
X49749991Y24634500D01*
X50650008Y24634501D01*
X50650016Y24634502D01*
X50650019Y24634502D01*
X50706302Y24640252D01*
X50752797Y24645001D01*
X50919334Y24700186D01*
X51068656Y24792288D01*
X51192712Y24916344D01*
X51284814Y25065666D01*
X51339999Y25232203D01*
X51350500Y25334991D01*
X51350499Y26685008D01*
X51339999Y26787797D01*
X51284814Y26954334D01*
X51192712Y27103656D01*
X51068656Y27227712D01*
X51068655Y27227713D01*
X51033395Y27249461D01*
X50986670Y27301409D01*
X50975447Y27370371D01*
X51003290Y27434453D01*
X51033395Y27460539D01*
X51068656Y27482288D01*
X51192712Y27606344D01*
X51284814Y27755666D01*
X51339999Y27922203D01*
X51350500Y28024991D01*
X51350499Y29375008D01*
X51350498Y29375017D01*
X52149500Y29375017D01*
X52149500Y28024999D01*
X52149501Y28024982D01*
X52160000Y27922204D01*
X52160001Y27922201D01*
X52199363Y27803416D01*
X52215186Y27755666D01*
X52307287Y27606345D01*
X52307289Y27606343D01*
X52431343Y27482289D01*
X52431347Y27482286D01*
X52466605Y27460538D01*
X52513330Y27408590D01*
X52524551Y27339628D01*
X52496708Y27275546D01*
X52466605Y27249462D01*
X52431347Y27227715D01*
X52431343Y27227712D01*
X52307289Y27103658D01*
X52215187Y26954337D01*
X52215186Y26954334D01*
X52160001Y26787797D01*
X52160001Y26787796D01*
X52160000Y26787796D01*
X52149500Y26685017D01*
X52149500Y25334999D01*
X52149501Y25334982D01*
X52160000Y25232204D01*
X52160001Y25232201D01*
X52179656Y25172888D01*
X52215186Y25065666D01*
X52307288Y24916344D01*
X52431344Y24792288D01*
X52580666Y24700186D01*
X52747203Y24645001D01*
X52849991Y24634500D01*
X53562769Y24634501D01*
X53629808Y24614817D01*
X53650450Y24598182D01*
X55808079Y22440554D01*
X57927049Y20321584D01*
X58031584Y20217049D01*
X58031585Y20217048D01*
X58154498Y20134920D01*
X58154511Y20134913D01*
X58195869Y20117782D01*
X58195870Y20117782D01*
X58291088Y20078341D01*
X58407241Y20055237D01*
X58426468Y20051413D01*
X58436081Y20049500D01*
X58436082Y20049500D01*
X58436083Y20049500D01*
X58583918Y20049500D01*
X61775501Y20049500D01*
X61842540Y20029815D01*
X61888295Y19977011D01*
X61899501Y19925500D01*
X61899501Y19652124D01*
X61905908Y19592517D01*
X61956202Y19457672D01*
X61956206Y19457665D01*
X62042452Y19342456D01*
X62042455Y19342453D01*
X62157664Y19256207D01*
X62157671Y19256203D01*
X62292517Y19205909D01*
X62292516Y19205909D01*
X62299444Y19205165D01*
X62352127Y19199500D01*
X64647872Y19199501D01*
X64707483Y19205909D01*
X64842331Y19256204D01*
X64957546Y19342454D01*
X65043796Y19457669D01*
X65094091Y19592517D01*
X65100500Y19652127D01*
X65100499Y20356429D01*
X65120183Y20423465D01*
X65172987Y20469220D01*
X65242146Y20479164D01*
X65305702Y20450139D01*
X65327601Y20425317D01*
X65418210Y20289712D01*
X65418213Y20289708D01*
X65529707Y20178214D01*
X65529711Y20178211D01*
X65660814Y20090610D01*
X65660827Y20090603D01*
X65760060Y20049500D01*
X65806503Y20030263D01*
X65961153Y19999501D01*
X65961156Y19999500D01*
X65961158Y19999500D01*
X66118844Y19999500D01*
X66118845Y19999501D01*
X66273497Y20030263D01*
X66419179Y20090606D01*
X66550289Y20178211D01*
X66661789Y20289711D01*
X66749394Y20420821D01*
X66809737Y20566503D01*
X66840500Y20721158D01*
X66840500Y20878842D01*
X66840500Y20878845D01*
X66840499Y20878847D01*
X66838394Y20889430D01*
X66809737Y21033497D01*
X66769815Y21129879D01*
X66749397Y21179173D01*
X66749390Y21179186D01*
X66661789Y21310289D01*
X66661786Y21310293D01*
X66550292Y21421787D01*
X66550288Y21421790D01*
X66419185Y21509391D01*
X66419172Y21509398D01*
X66273501Y21569736D01*
X66273489Y21569739D01*
X66118845Y21600500D01*
X66118842Y21600500D01*
X65961158Y21600500D01*
X65961155Y21600500D01*
X65806510Y21569739D01*
X65806498Y21569736D01*
X65660827Y21509398D01*
X65660814Y21509391D01*
X65529711Y21421790D01*
X65529707Y21421787D01*
X65418213Y21310293D01*
X65418210Y21310289D01*
X65327601Y21174684D01*
X65273988Y21129879D01*
X65204663Y21121172D01*
X65141636Y21151327D01*
X65104917Y21210770D01*
X65100499Y21243575D01*
X65100499Y21947871D01*
X65100498Y21947877D01*
X65100497Y21947884D01*
X65094091Y22007483D01*
X65091169Y22015316D01*
X65043797Y22142329D01*
X65043793Y22142336D01*
X64957547Y22257545D01*
X64880894Y22314928D01*
X64839024Y22370862D01*
X64834040Y22440554D01*
X64849476Y22478979D01*
X64930466Y22611141D01*
X65026873Y22843889D01*
X65067003Y23011046D01*
X65101792Y23071635D01*
X65163818Y23103800D01*
X65233387Y23097324D01*
X65288411Y23054265D01*
X65302137Y23029550D01*
X65330604Y22960825D01*
X65330609Y22960815D01*
X65418210Y22829712D01*
X65418213Y22829708D01*
X65529707Y22718214D01*
X65529711Y22718211D01*
X65660814Y22630610D01*
X65660827Y22630603D01*
X65760060Y22589500D01*
X65806503Y22570263D01*
X65961153Y22539501D01*
X65961156Y22539500D01*
X65961158Y22539500D01*
X66118844Y22539500D01*
X66118845Y22539501D01*
X66273497Y22570263D01*
X66419179Y22630606D01*
X66550289Y22718211D01*
X66661789Y22829711D01*
X66749394Y22960821D01*
X66809737Y23106503D01*
X66840500Y23261158D01*
X66840500Y23418842D01*
X66840500Y23418845D01*
X66840499Y23418847D01*
X66838394Y23429430D01*
X66809737Y23573497D01*
X66798966Y23599500D01*
X66749397Y23719173D01*
X66749390Y23719186D01*
X66661789Y23850289D01*
X66661786Y23850293D01*
X66550292Y23961787D01*
X66550288Y23961790D01*
X66419185Y24049391D01*
X66419172Y24049398D01*
X66273501Y24109736D01*
X66273489Y24109739D01*
X66118845Y24140500D01*
X66118842Y24140500D01*
X65961158Y24140500D01*
X65961155Y24140500D01*
X65806510Y24109739D01*
X65806498Y24109736D01*
X65660827Y24049398D01*
X65660814Y24049391D01*
X65529711Y23961790D01*
X65529707Y23961787D01*
X65418213Y23850293D01*
X65418210Y23850289D01*
X65330609Y23719186D01*
X65330606Y23719180D01*
X65302137Y23650450D01*
X65258295Y23596047D01*
X65192001Y23573983D01*
X65124302Y23591263D01*
X65076692Y23642400D01*
X65067003Y23668954D01*
X65026873Y23836111D01*
X64974815Y23961790D01*
X64930466Y24068860D01*
X64798839Y24283654D01*
X64798838Y24283657D01*
X64736665Y24356452D01*
X64635224Y24475224D01*
X64491259Y24598182D01*
X64443656Y24638839D01*
X64443653Y24638840D01*
X64228859Y24770467D01*
X63996110Y24866874D01*
X63751151Y24925683D01*
X63500000Y24945449D01*
X63248848Y24925683D01*
X63003889Y24866874D01*
X62771140Y24770467D01*
X62556346Y24638840D01*
X62556343Y24638839D01*
X62364776Y24475224D01*
X62201162Y24283657D01*
X62119081Y24149711D01*
X62067269Y24102835D01*
X62013353Y24090500D01*
X59022230Y24090500D01*
X58955191Y24110185D01*
X58934549Y24126819D01*
X54486818Y28574550D01*
X54453333Y28635873D01*
X54450499Y28662231D01*
X54450499Y29375002D01*
X54450498Y29375019D01*
X54439999Y29477797D01*
X54439998Y29477800D01*
X54401382Y29594334D01*
X54384814Y29644334D01*
X54292712Y29793656D01*
X54168656Y29917712D01*
X54019334Y30009814D01*
X53852797Y30064999D01*
X53852795Y30065000D01*
X53750010Y30075500D01*
X52849998Y30075500D01*
X52849980Y30075499D01*
X52747203Y30065000D01*
X52747200Y30064999D01*
X52580668Y30009815D01*
X52580663Y30009813D01*
X52431342Y29917711D01*
X52307289Y29793658D01*
X52215187Y29644337D01*
X52215185Y29644332D01*
X52187349Y29560330D01*
X52160001Y29477797D01*
X52160001Y29477796D01*
X52160000Y29477796D01*
X52149500Y29375017D01*
X51350498Y29375017D01*
X51339999Y29477797D01*
X51284814Y29644334D01*
X51192712Y29793656D01*
X51068656Y29917712D01*
X50919334Y30009814D01*
X50752797Y30064999D01*
X50752795Y30065000D01*
X50650010Y30075500D01*
X49749998Y30075500D01*
X49749980Y30075499D01*
X49647203Y30065000D01*
X49647200Y30064999D01*
X49480668Y30009815D01*
X49480663Y30009813D01*
X49331342Y29917711D01*
X49262679Y29849049D01*
X49201355Y29815564D01*
X49131664Y29820550D01*
X49087318Y29849050D01*
X49068657Y29867711D01*
X49068656Y29867712D01*
X48930712Y29952796D01*
X48919336Y29959813D01*
X48919331Y29959815D01*
X48899809Y29966284D01*
X48752797Y30014999D01*
X48752795Y30015000D01*
X48650010Y30025500D01*
X47249998Y30025500D01*
X47249981Y30025499D01*
X47147203Y30015000D01*
X47147200Y30014999D01*
X46980668Y29959815D01*
X46980663Y29959813D01*
X46831345Y29867713D01*
X46709692Y29746060D01*
X46648369Y29712576D01*
X46578677Y29717560D01*
X46522744Y29759432D01*
X46519887Y29763714D01*
X46517678Y29766562D01*
X46401561Y29882679D01*
X46401552Y29882686D01*
X46260196Y29966283D01*
X46260193Y29966284D01*
X46102495Y30012100D01*
X46102489Y30012101D01*
X46065649Y30015000D01*
X45425000Y30015000D01*
X45425000Y29089000D01*
X45405315Y29021961D01*
X45352511Y28976206D01*
X45301000Y28965000D01*
X43702705Y28965000D01*
X43702704Y28964999D01*
X43702899Y28962514D01*
X43748718Y28804802D01*
X43832314Y28663448D01*
X43837100Y28657278D01*
X43834640Y28655371D01*
X43861210Y28606712D01*
X43856226Y28537020D01*
X43835162Y28504219D01*
X43836699Y28503026D01*
X43831915Y28496860D01*
X43748255Y28355397D01*
X43748254Y28355394D01*
X43702402Y28197574D01*
X43702401Y28197568D01*
X43699500Y28160702D01*
X43699500Y27729299D01*
X43702401Y27692433D01*
X43702402Y27692427D01*
X43748254Y27534607D01*
X43748255Y27534604D01*
X43831917Y27393138D01*
X43836702Y27386969D01*
X43834256Y27385073D01*
X43860857Y27336358D01*
X43855873Y27266666D01*
X43835069Y27234297D01*
X43836702Y27233031D01*
X43831916Y27226862D01*
X43767464Y27117878D01*
X43716395Y27070194D01*
X43647653Y27057691D01*
X43583064Y27084336D01*
X43573051Y27093318D01*
X43286819Y27379550D01*
X43253334Y27440873D01*
X43250500Y27467231D01*
X43250500Y29465002D01*
X43702704Y29465002D01*
X43702705Y29465000D01*
X44925000Y29465000D01*
X44925000Y30015000D01*
X44284350Y30015000D01*
X44247510Y30012101D01*
X44247504Y30012100D01*
X44089806Y29966284D01*
X44089803Y29966283D01*
X43948447Y29882686D01*
X43948438Y29882679D01*
X43832321Y29766562D01*
X43832314Y29766553D01*
X43748718Y29625199D01*
X43702899Y29467487D01*
X43702704Y29465002D01*
X43250500Y29465002D01*
X43250500Y30963870D01*
X43243692Y30998094D01*
X43233480Y31049432D01*
X43233393Y31049868D01*
X43221660Y31108855D01*
X43221659Y31108862D01*
X43167408Y31239833D01*
X43165764Y31244428D01*
X43094889Y31350501D01*
X43094888Y31350501D01*
X43088540Y31360001D01*
X43082952Y31368365D01*
X43082950Y31368368D01*
X43082949Y31368369D01*
X41368371Y33082948D01*
X41368370Y33082949D01*
X41279916Y33142051D01*
X41245445Y33165084D01*
X41245443Y33165085D01*
X41245440Y33165087D01*
X41108867Y33221657D01*
X41108857Y33221660D01*
X40963870Y33250500D01*
X40963868Y33250500D01*
X38759798Y33250500D01*
X38692759Y33270185D01*
X38654259Y33309403D01*
X38653809Y33310133D01*
X38617712Y33368656D01*
X38493656Y33492712D01*
X38344334Y33584814D01*
X38177797Y33639999D01*
X38177795Y33640000D01*
X38075010Y33650500D01*
X36724998Y33650500D01*
X36724981Y33650499D01*
X36622203Y33640000D01*
X36622200Y33639999D01*
X36455668Y33584815D01*
X36455663Y33584813D01*
X36306342Y33492711D01*
X36182289Y33368658D01*
X36090187Y33219337D01*
X36090185Y33219332D01*
X36035001Y33052797D01*
X36033887Y33041894D01*
X36007489Y32977203D01*
X35950307Y32937053D01*
X35910529Y32930500D01*
X28766663Y32930500D01*
X28699624Y32950185D01*
X28665088Y32983377D01*
X28640045Y33019142D01*
X28479141Y33180046D01*
X28292734Y33310568D01*
X28292728Y33310571D01*
X28234725Y33337618D01*
X28182285Y33383790D01*
X28163133Y33450983D01*
X28183348Y33517865D01*
X28234725Y33562382D01*
X28292734Y33589432D01*
X28479139Y33719953D01*
X28640047Y33880861D01*
X28770568Y34067266D01*
X28866739Y34273504D01*
X28925635Y34493308D01*
X28945468Y34720000D01*
X28925635Y34946692D01*
X28866739Y35166496D01*
X28770568Y35372734D01*
X28640047Y35559139D01*
X28640045Y35559142D01*
X28479141Y35720046D01*
X28292734Y35850568D01*
X28292732Y35850569D01*
X28234725Y35877618D01*
X28234132Y35877895D01*
X28181694Y35924066D01*
X28162542Y35991260D01*
X28182758Y36058141D01*
X28234134Y36102659D01*
X28292484Y36129868D01*
X28478820Y36260343D01*
X28639657Y36421180D01*
X28770134Y36607518D01*
X28866265Y36813674D01*
X28866269Y36813683D01*
X28918872Y37010000D01*
X28073012Y37010000D01*
X28105925Y37067007D01*
X28140000Y37194174D01*
X28140000Y37325826D01*
X28105925Y37452993D01*
X28073012Y37510000D01*
X28918872Y37510000D01*
X28918872Y37510001D01*
X28866269Y37706318D01*
X28866265Y37706327D01*
X28770134Y37912483D01*
X28639657Y38098821D01*
X28478820Y38259658D01*
X28292482Y38390135D01*
X28234133Y38417343D01*
X28181694Y38463516D01*
X28162542Y38530709D01*
X28182758Y38597590D01*
X28234129Y38642105D01*
X28292734Y38669432D01*
X28479139Y38799953D01*
X28640047Y38960861D01*
X28770568Y39147266D01*
X28866739Y39353504D01*
X28925635Y39573308D01*
X28945468Y39800000D01*
X28925635Y40026692D01*
X28866739Y40246496D01*
X28770568Y40452734D01*
X28640047Y40639139D01*
X28640045Y40639142D01*
X28479141Y40800046D01*
X28292734Y40930568D01*
X28292732Y40930569D01*
X28086497Y41026739D01*
X28086488Y41026742D01*
X27866697Y41085634D01*
X27866693Y41085635D01*
X27866692Y41085635D01*
X27866691Y41085636D01*
X27866686Y41085636D01*
X27640002Y41105468D01*
X27639998Y41105468D01*
X27413313Y41085636D01*
X27413302Y41085634D01*
X27193511Y41026742D01*
X27193502Y41026739D01*
X26987267Y40930569D01*
X26987265Y40930568D01*
X26800858Y40800046D01*
X26639954Y40639142D01*
X26509432Y40452735D01*
X26509431Y40452733D01*
X26413261Y40246498D01*
X26413258Y40246489D01*
X26354366Y40026698D01*
X26354364Y40026687D01*
X26334532Y39800002D01*
X26334532Y39799999D01*
X26354364Y39573314D01*
X26354366Y39573303D01*
X26413258Y39353512D01*
X26413261Y39353503D01*
X26509431Y39147268D01*
X26509432Y39147266D01*
X26639954Y38960859D01*
X26800858Y38799955D01*
X26800861Y38799953D01*
X26987266Y38669432D01*
X27045865Y38642107D01*
X27098305Y38595935D01*
X27117457Y38528742D01*
X27097242Y38461861D01*
X27045867Y38417343D01*
X26987515Y38390133D01*
X26801179Y38259658D01*
X26640342Y38098821D01*
X26509865Y37912483D01*
X26413734Y37706327D01*
X26413730Y37706318D01*
X26361127Y37510001D01*
X26361128Y37510000D01*
X27206988Y37510000D01*
X27174075Y37452993D01*
X27140000Y37325826D01*
X27140000Y37194174D01*
X27174075Y37067007D01*
X27206988Y37010000D01*
X26361128Y37010000D01*
X26413730Y36813683D01*
X26413734Y36813674D01*
X26509865Y36607518D01*
X26640342Y36421180D01*
X26801179Y36260343D01*
X26987518Y36129866D01*
X26987520Y36129865D01*
X27045865Y36102658D01*
X27098305Y36056486D01*
X27117457Y35989293D01*
X27097242Y35922411D01*
X27045867Y35877895D01*
X26987268Y35850569D01*
X26987264Y35850567D01*
X26800858Y35720046D01*
X26639954Y35559142D01*
X26509432Y35372735D01*
X26509431Y35372733D01*
X26413261Y35166498D01*
X26413258Y35166489D01*
X26354366Y34946698D01*
X26354364Y34946687D01*
X26334532Y34720002D01*
X26334532Y34719999D01*
X26354364Y34493314D01*
X26354366Y34493303D01*
X26413258Y34273512D01*
X26413261Y34273503D01*
X26509431Y34067268D01*
X26509432Y34067266D01*
X26639954Y33880859D01*
X26800858Y33719955D01*
X26800861Y33719953D01*
X26987266Y33589432D01*
X27045275Y33562382D01*
X27097714Y33516209D01*
X27116866Y33449016D01*
X27096650Y33382135D01*
X27045275Y33337618D01*
X26987267Y33310569D01*
X26987265Y33310568D01*
X26800858Y33180046D01*
X26639954Y33019142D01*
X26509432Y32832735D01*
X26509431Y32832733D01*
X26413261Y32626498D01*
X26413258Y32626489D01*
X26354366Y32406698D01*
X26354364Y32406687D01*
X26334532Y32180002D01*
X26334532Y32179999D01*
X26354364Y31953314D01*
X26354366Y31953303D01*
X26413258Y31733512D01*
X26413261Y31733503D01*
X26509431Y31527268D01*
X26509432Y31527266D01*
X26639954Y31340859D01*
X26800858Y31179955D01*
X26800861Y31179953D01*
X26987266Y31049432D01*
X27044681Y31022659D01*
X27045275Y31022382D01*
X27097714Y30976209D01*
X27116866Y30909016D01*
X27096650Y30842135D01*
X27045275Y30797618D01*
X26987267Y30770569D01*
X26987265Y30770568D01*
X26800858Y30640046D01*
X26639954Y30479142D01*
X26509432Y30292735D01*
X26509431Y30292733D01*
X26413261Y30086498D01*
X26413258Y30086489D01*
X26354366Y29866698D01*
X26354364Y29866687D01*
X26334532Y29640002D01*
X26334532Y29639999D01*
X26354364Y29413314D01*
X26354366Y29413303D01*
X26413258Y29193512D01*
X26413261Y29193503D01*
X26509431Y28987268D01*
X26509432Y28987266D01*
X26639954Y28800859D01*
X26800858Y28639955D01*
X26800861Y28639953D01*
X26987266Y28509432D01*
X27014227Y28496860D01*
X27045275Y28482382D01*
X27097714Y28436209D01*
X27116866Y28369016D01*
X27096650Y28302135D01*
X27045275Y28257618D01*
X26987267Y28230569D01*
X26987265Y28230568D01*
X26800858Y28100046D01*
X26639954Y27939142D01*
X26509432Y27752735D01*
X26509431Y27752733D01*
X26413261Y27546498D01*
X26413258Y27546489D01*
X26354366Y27326698D01*
X26354364Y27326687D01*
X26334532Y27100002D01*
X26334532Y27099999D01*
X26354364Y26873314D01*
X26354366Y26873303D01*
X26413258Y26653512D01*
X26413261Y26653503D01*
X26509431Y26447268D01*
X26509432Y26447266D01*
X26639954Y26260859D01*
X26800858Y26099955D01*
X26800861Y26099953D01*
X26987266Y25969432D01*
X27045275Y25942382D01*
X27097714Y25896209D01*
X27116866Y25829016D01*
X27096650Y25762135D01*
X27045275Y25717618D01*
X26987267Y25690569D01*
X26987265Y25690568D01*
X26800858Y25560046D01*
X26639954Y25399142D01*
X26572900Y25303377D01*
X26518323Y25259752D01*
X26471325Y25250500D01*
X24339337Y25250500D01*
X24272298Y25270185D01*
X24266452Y25274182D01*
X24252734Y25284149D01*
X24252729Y25284152D01*
X24079807Y25361143D01*
X24079802Y25361145D01*
X23934001Y25392135D01*
X23894646Y25400500D01*
X23705354Y25400500D01*
X23672897Y25393602D01*
X23520197Y25361145D01*
X23520192Y25361143D01*
X23347270Y25284152D01*
X23347265Y25284149D01*
X23194129Y25172889D01*
X23067466Y25032215D01*
X22972821Y24868285D01*
X22972818Y24868278D01*
X22919876Y24705338D01*
X22914326Y24688256D01*
X22894540Y24500000D01*
X22914326Y24311744D01*
X22914327Y24311741D01*
X22972818Y24131723D01*
X22972821Y24131716D01*
X23067467Y23967784D01*
X23121956Y23907268D01*
X23194129Y23827112D01*
X23347265Y23715852D01*
X23347270Y23715849D01*
X23520192Y23638858D01*
X23520197Y23638856D01*
X23705354Y23599500D01*
X23705355Y23599500D01*
X23894644Y23599500D01*
X23894646Y23599500D01*
X24079803Y23638856D01*
X24252730Y23715849D01*
X24257305Y23719173D01*
X24266452Y23725818D01*
X24332258Y23749298D01*
X24339337Y23749500D01*
X26559951Y23749500D01*
X26626990Y23729815D01*
X26647632Y23713181D01*
X26800858Y23559955D01*
X26800861Y23559953D01*
X26987266Y23429432D01*
X27045275Y23402382D01*
X27097714Y23356209D01*
X27116866Y23289016D01*
X27096650Y23222135D01*
X27045275Y23177618D01*
X26987267Y23150569D01*
X26987265Y23150568D01*
X26800858Y23020046D01*
X26639954Y22859142D01*
X26600908Y22803377D01*
X26546331Y22759752D01*
X26499333Y22750500D01*
X24339337Y22750500D01*
X24272298Y22770185D01*
X24266452Y22774182D01*
X24252734Y22784149D01*
X24252729Y22784152D01*
X24079807Y22861143D01*
X24079802Y22861145D01*
X23934001Y22892135D01*
X23894646Y22900500D01*
X23705354Y22900500D01*
X23672897Y22893602D01*
X23520197Y22861145D01*
X23520192Y22861143D01*
X23347270Y22784152D01*
X23347265Y22784149D01*
X23194129Y22672889D01*
X23067466Y22532215D01*
X22972821Y22368285D01*
X22972818Y22368278D01*
X22936228Y22255664D01*
X22914326Y22188256D01*
X22894540Y22000000D01*
X22914326Y21811744D01*
X22914327Y21811741D01*
X22972818Y21631723D01*
X22972821Y21631716D01*
X23067467Y21467784D01*
X23157974Y21367266D01*
X23194129Y21327112D01*
X23347265Y21215852D01*
X23347270Y21215849D01*
X23520192Y21138858D01*
X23520197Y21138856D01*
X23705354Y21099500D01*
X23705355Y21099500D01*
X23894644Y21099500D01*
X23894646Y21099500D01*
X24079803Y21138856D01*
X24252730Y21215849D01*
X24254776Y21217336D01*
X24266452Y21225818D01*
X24332258Y21249298D01*
X24339337Y21249500D01*
X26527341Y21249500D01*
X26594380Y21229815D01*
X26628916Y21196623D01*
X26639954Y21180859D01*
X26800858Y21019955D01*
X26800861Y21019953D01*
X26987266Y20889432D01*
X27045275Y20862382D01*
X27097714Y20816209D01*
X27116866Y20749016D01*
X27096650Y20682135D01*
X27045275Y20637618D01*
X26987267Y20610569D01*
X26987265Y20610568D01*
X26800858Y20480046D01*
X26639954Y20319142D01*
X26509432Y20132735D01*
X26509431Y20132733D01*
X26413261Y19926498D01*
X26413258Y19926489D01*
X26354366Y19706698D01*
X26354364Y19706687D01*
X26334532Y19480002D01*
X26334532Y19479999D01*
X26354364Y19253314D01*
X26354366Y19253303D01*
X26385638Y19136593D01*
X26383975Y19066743D01*
X26344812Y19008881D01*
X26280583Y18981377D01*
X26265863Y18980500D01*
X23756080Y18980500D01*
X23611092Y18951660D01*
X23611086Y18951658D01*
X23474508Y18895086D01*
X23474496Y18895079D01*
X23425269Y18862187D01*
X23351588Y18812956D01*
X23351580Y18812950D01*
X14645451Y10106819D01*
X14584128Y10073334D01*
X14557770Y10070500D01*
X13526663Y10070500D01*
X13459624Y10090185D01*
X13425088Y10123377D01*
X13400045Y10159142D01*
X13239141Y10320046D01*
X13052734Y10450568D01*
X13052728Y10450571D01*
X12994725Y10477618D01*
X12942285Y10523790D01*
X12923133Y10590983D01*
X12943348Y10657865D01*
X12994725Y10702382D01*
X13052734Y10729432D01*
X13239139Y10859953D01*
X13400047Y11020861D01*
X13530568Y11207266D01*
X13626739Y11413504D01*
X13685635Y11633308D01*
X13705468Y11860000D01*
X13685635Y12086692D01*
X13626739Y12306496D01*
X13530568Y12512734D01*
X13400047Y12699139D01*
X13400045Y12699142D01*
X13239141Y12860046D01*
X13052734Y12990568D01*
X13052728Y12990571D01*
X12994725Y13017618D01*
X12942285Y13063790D01*
X12923133Y13130983D01*
X12943348Y13197865D01*
X12994725Y13242382D01*
X13052734Y13269432D01*
X13239139Y13399953D01*
X13400047Y13560861D01*
X13530568Y13747266D01*
X13626739Y13953504D01*
X13685635Y14173308D01*
X13705468Y14400000D01*
X13704549Y14410499D01*
X13691790Y14556341D01*
X13685635Y14626692D01*
X13626739Y14846496D01*
X13530568Y15052734D01*
X13400047Y15239139D01*
X13400045Y15239142D01*
X13239141Y15400046D01*
X13052734Y15530568D01*
X13052728Y15530571D01*
X13025038Y15543483D01*
X12994724Y15557619D01*
X12942285Y15603790D01*
X12923133Y15670983D01*
X12943348Y15737865D01*
X12994725Y15782382D01*
X13052734Y15809432D01*
X13239139Y15939953D01*
X13400047Y16100861D01*
X13530568Y16287266D01*
X13626739Y16493504D01*
X13685635Y16713308D01*
X13705468Y16940000D01*
X13690869Y17106863D01*
X13704635Y17175361D01*
X13726713Y17205347D01*
X19882952Y23361585D01*
X19937662Y23443465D01*
X19965084Y23484505D01*
X19992661Y23551082D01*
X19996337Y23559955D01*
X20009257Y23591148D01*
X20021659Y23621088D01*
X20041170Y23719179D01*
X20044763Y23737240D01*
X20044763Y23737242D01*
X20047202Y23749500D01*
X20050500Y23766082D01*
X20050500Y40587771D01*
X20070185Y40654810D01*
X20086814Y40675447D01*
X21299549Y41888183D01*
X21360872Y41921667D01*
X21387230Y41924501D01*
X22100002Y41924501D01*
X22100008Y41924501D01*
X22202797Y41935001D01*
X22369334Y41990186D01*
X22518656Y42082288D01*
X22642712Y42206344D01*
X22734814Y42355666D01*
X22789999Y42522203D01*
X22800500Y42624991D01*
X22800499Y43975008D01*
X22800498Y43975017D01*
X23599500Y43975017D01*
X23599500Y42624999D01*
X23599501Y42624982D01*
X23610000Y42522204D01*
X23610001Y42522201D01*
X23643039Y42422500D01*
X23665186Y42355666D01*
X23757288Y42206344D01*
X23881344Y42082288D01*
X24030666Y41990186D01*
X24197203Y41935001D01*
X24299991Y41924500D01*
X25200008Y41924501D01*
X25200016Y41924502D01*
X25200019Y41924502D01*
X25256302Y41930252D01*
X25302797Y41935001D01*
X25469334Y41990186D01*
X25618656Y42082288D01*
X25742712Y42206344D01*
X25834814Y42355666D01*
X25889999Y42522203D01*
X25900500Y42624991D01*
X25900499Y43975008D01*
X25889999Y44077797D01*
X25885053Y44092722D01*
X25870293Y44137267D01*
X25867891Y44207096D01*
X25900316Y44263950D01*
X26724464Y45088097D01*
X26785784Y45121580D01*
X26855476Y45116596D01*
X26911409Y45074724D01*
X26919240Y45061218D01*
X26919747Y45061517D01*
X27007314Y44913448D01*
X27007321Y44913439D01*
X27123438Y44797322D01*
X27123447Y44797315D01*
X27264803Y44713718D01*
X27264806Y44713717D01*
X27422504Y44667901D01*
X27422510Y44667900D01*
X27459350Y44665001D01*
X27459366Y44665000D01*
X27937500Y44665000D01*
X28437500Y44665000D01*
X28915634Y44665000D01*
X28915649Y44665001D01*
X28952489Y44667900D01*
X28952495Y44667901D01*
X29110193Y44713717D01*
X29110196Y44713718D01*
X29251552Y44797315D01*
X29251561Y44797322D01*
X29367678Y44913439D01*
X29367685Y44913448D01*
X29451281Y45054802D01*
X29497100Y45212514D01*
X29497295Y45214999D01*
X29497295Y45215000D01*
X28437500Y45215000D01*
X28437500Y44665000D01*
X27937500Y44665000D01*
X27937500Y45591000D01*
X27957185Y45658039D01*
X28009989Y45703794D01*
X28061500Y45715000D01*
X29497295Y45715000D01*
X29497295Y45715002D01*
X29497100Y45717487D01*
X29451281Y45875199D01*
X29367685Y46016553D01*
X29362900Y46022722D01*
X29365366Y46024636D01*
X29338802Y46073224D01*
X29343749Y46142918D01*
X29364856Y46175768D01*
X29363301Y46176974D01*
X29368077Y46183132D01*
X29368081Y46183135D01*
X29451744Y46324602D01*
X29497598Y46482431D01*
X29500500Y46519306D01*
X29500500Y46950694D01*
X29497598Y46987569D01*
X29470336Y47081403D01*
X29451745Y47145394D01*
X29451744Y47145397D01*
X29451744Y47145398D01*
X29368081Y47286865D01*
X29368079Y47286867D01*
X29368076Y47286871D01*
X29251870Y47403077D01*
X29251862Y47403083D01*
X29159847Y47457500D01*
X29110398Y47486744D01*
X29110397Y47486745D01*
X29110396Y47486745D01*
X29110393Y47486746D01*
X28952573Y47532598D01*
X28952567Y47532599D01*
X28915701Y47535500D01*
X28915694Y47535500D01*
X27459306Y47535500D01*
X27459298Y47535500D01*
X27422432Y47532599D01*
X27422426Y47532598D01*
X27277267Y47490424D01*
X27242672Y47485500D01*
X27236079Y47485500D01*
X27228057Y47483904D01*
X27228052Y47483903D01*
X27091095Y47456661D01*
X27091083Y47456658D01*
X27049087Y47439263D01*
X27049088Y47439262D01*
X26954508Y47400086D01*
X26954504Y47400084D01*
X26947113Y47395145D01*
X26930487Y47384036D01*
X26930486Y47384036D01*
X26831585Y47317954D01*
X26831578Y47317948D01*
X24190207Y44676577D01*
X24141531Y44646552D01*
X24030666Y44609814D01*
X23881342Y44517711D01*
X23757289Y44393658D01*
X23665187Y44244337D01*
X23665185Y44244332D01*
X23640928Y44171128D01*
X23610001Y44077797D01*
X23610001Y44077796D01*
X23610000Y44077796D01*
X23599500Y43975017D01*
X22800498Y43975017D01*
X22789999Y44077797D01*
X22734814Y44244334D01*
X22642712Y44393656D01*
X22563784Y44472584D01*
X22530299Y44533907D01*
X22535283Y44603599D01*
X22577155Y44659532D01*
X22616871Y44679342D01*
X22735197Y44713719D01*
X22876552Y44797315D01*
X22876561Y44797322D01*
X22992678Y44913439D01*
X22992685Y44913448D01*
X23076281Y45054802D01*
X23122100Y45212514D01*
X23122295Y45214999D01*
X23122295Y45215000D01*
X20502705Y45215000D01*
X20502704Y45214999D01*
X20502899Y45212514D01*
X20548718Y45054802D01*
X20632314Y44913448D01*
X20632321Y44913439D01*
X20748438Y44797322D01*
X20748444Y44797317D01*
X20819961Y44755023D01*
X20867645Y44703954D01*
X20880149Y44635212D01*
X20853504Y44570623D01*
X20821939Y44542752D01*
X20781344Y44517713D01*
X20657289Y44393658D01*
X20565187Y44244337D01*
X20565185Y44244332D01*
X20540928Y44171128D01*
X20510001Y44077797D01*
X20510001Y44077796D01*
X20510000Y44077796D01*
X20499500Y43975017D01*
X20499500Y43262231D01*
X20479815Y43195192D01*
X20463181Y43174550D01*
X19562181Y42273550D01*
X19500858Y42240065D01*
X19431166Y42245049D01*
X19375233Y42286921D01*
X19350816Y42352385D01*
X19350500Y42361231D01*
X19350500Y46950702D01*
X20499500Y46950702D01*
X20499500Y46519299D01*
X20502401Y46482433D01*
X20502402Y46482427D01*
X20548254Y46324607D01*
X20548255Y46324604D01*
X20631917Y46183138D01*
X20636702Y46176969D01*
X20634369Y46175160D01*
X20661210Y46126005D01*
X20656226Y46056313D01*
X20635470Y46023979D01*
X20637097Y46022717D01*
X20632313Y46016551D01*
X20548718Y45875199D01*
X20502899Y45717487D01*
X20502704Y45715002D01*
X20502705Y45715000D01*
X23122295Y45715000D01*
X23122295Y45715002D01*
X23122100Y45717487D01*
X23076281Y45875199D01*
X22992685Y46016553D01*
X22987900Y46022722D01*
X22990366Y46024636D01*
X22963802Y46073224D01*
X22968749Y46142918D01*
X22989856Y46175768D01*
X22988301Y46176974D01*
X22993077Y46183132D01*
X22993081Y46183135D01*
X23076744Y46324602D01*
X23122598Y46482431D01*
X23125500Y46519306D01*
X23125500Y46950694D01*
X23122598Y46987569D01*
X23095336Y47081403D01*
X23076745Y47145394D01*
X23076744Y47145397D01*
X23076744Y47145398D01*
X22993081Y47286865D01*
X22993079Y47286867D01*
X22993076Y47286871D01*
X22876870Y47403077D01*
X22876862Y47403083D01*
X22784847Y47457500D01*
X22735398Y47486744D01*
X22735397Y47486745D01*
X22735396Y47486745D01*
X22735395Y47486746D01*
X22652404Y47510857D01*
X22593519Y47548464D01*
X22564313Y47611936D01*
X22563000Y47629933D01*
X22563000Y48340271D01*
X22582685Y48407310D01*
X22599315Y48427948D01*
X23134652Y48963286D01*
X23195973Y48996769D01*
X23233135Y48999131D01*
X23376366Y48986600D01*
X23399999Y48984532D01*
X23400000Y48984532D01*
X23400002Y48984532D01*
X23456673Y48989491D01*
X23626692Y49004365D01*
X23846496Y49063261D01*
X24052734Y49159432D01*
X24239139Y49289953D01*
X24400047Y49450861D01*
X24530568Y49637266D01*
X24626739Y49843504D01*
X24685635Y50063308D01*
X24705468Y50290000D01*
X24685635Y50516692D01*
X24626739Y50736496D01*
X24530568Y50942734D01*
X24400047Y51129139D01*
X24400045Y51129142D01*
X24239141Y51290046D01*
X24052734Y51420568D01*
X24052732Y51420569D01*
X23886972Y51497865D01*
X25774500Y51497865D01*
X25774500Y49102130D01*
X25774501Y49102124D01*
X25780908Y49042517D01*
X25831202Y48907672D01*
X25831206Y48907665D01*
X25917452Y48792456D01*
X25917455Y48792453D01*
X26032664Y48706207D01*
X26032671Y48706203D01*
X26167517Y48655909D01*
X26167516Y48655909D01*
X26174444Y48655165D01*
X26227127Y48649500D01*
X28622872Y48649501D01*
X28682483Y48655909D01*
X28817331Y48706204D01*
X28932546Y48792454D01*
X29018796Y48907669D01*
X29069091Y49042517D01*
X29075500Y49102127D01*
X29075499Y51497872D01*
X29069091Y51557483D01*
X29062320Y51575636D01*
X29018797Y51692329D01*
X29018793Y51692336D01*
X28932547Y51807545D01*
X28932544Y51807548D01*
X28817335Y51893794D01*
X28817328Y51893798D01*
X28682482Y51944092D01*
X28682483Y51944092D01*
X28622883Y51950499D01*
X28622881Y51950500D01*
X28622873Y51950500D01*
X28622864Y51950500D01*
X26227129Y51950500D01*
X26227123Y51950499D01*
X26167516Y51944092D01*
X26032671Y51893798D01*
X26032664Y51893794D01*
X25917455Y51807548D01*
X25917452Y51807545D01*
X25831206Y51692336D01*
X25831202Y51692329D01*
X25780908Y51557483D01*
X25776528Y51516739D01*
X25774501Y51497877D01*
X25774500Y51497865D01*
X23886972Y51497865D01*
X23846497Y51516739D01*
X23846488Y51516742D01*
X23626697Y51575634D01*
X23626693Y51575635D01*
X23626692Y51575635D01*
X23626691Y51575636D01*
X23626686Y51575636D01*
X23400002Y51595468D01*
X23399998Y51595468D01*
X23173313Y51575636D01*
X23173302Y51575634D01*
X22953511Y51516742D01*
X22953502Y51516739D01*
X22747267Y51420569D01*
X22747265Y51420568D01*
X22560858Y51290046D01*
X22399954Y51129142D01*
X22269432Y50942735D01*
X22269431Y50942733D01*
X22173261Y50736498D01*
X22173258Y50736489D01*
X22114366Y50516698D01*
X22114364Y50516687D01*
X22094532Y50290002D01*
X22094532Y50289997D01*
X22109129Y50123139D01*
X22095362Y50054640D01*
X22073282Y50024652D01*
X21229549Y49180919D01*
X21188845Y49120001D01*
X21188846Y49120000D01*
X21147414Y49057992D01*
X21090843Y48921418D01*
X21090840Y48921408D01*
X21062000Y48776421D01*
X21062000Y47629933D01*
X21042315Y47562894D01*
X20989511Y47517139D01*
X20972596Y47510857D01*
X20889604Y47486746D01*
X20889603Y47486745D01*
X20748137Y47403083D01*
X20748129Y47403077D01*
X20631923Y47286871D01*
X20631917Y47286863D01*
X20548255Y47145397D01*
X20548254Y47145394D01*
X20502402Y46987574D01*
X20502401Y46987568D01*
X20499500Y46950702D01*
X19350500Y46950702D01*
X19350500Y58757865D01*
X22099500Y58757865D01*
X22099500Y57062130D01*
X22099501Y57062124D01*
X22105908Y57002517D01*
X22156202Y56867672D01*
X22156206Y56867665D01*
X22242452Y56752456D01*
X22242455Y56752453D01*
X22357664Y56666207D01*
X22357671Y56666203D01*
X22492517Y56615909D01*
X22492516Y56615909D01*
X22499444Y56615165D01*
X22552127Y56609500D01*
X24247872Y56609501D01*
X24307483Y56615909D01*
X24442331Y56666204D01*
X24557546Y56752454D01*
X24643796Y56867669D01*
X24694091Y57002517D01*
X24700500Y57062127D01*
X24700499Y57920000D01*
X25769396Y57920000D01*
X25789778Y57661010D01*
X25850427Y57408390D01*
X25949843Y57168377D01*
X25949845Y57168373D01*
X25949846Y57168372D01*
X26085588Y56946860D01*
X26254311Y56749311D01*
X26451860Y56580588D01*
X26673372Y56444846D01*
X26673374Y56444846D01*
X26673376Y56444844D01*
X26734693Y56419446D01*
X26913390Y56345427D01*
X27166006Y56284779D01*
X27425000Y56264396D01*
X27683994Y56284779D01*
X27936610Y56345427D01*
X28176628Y56444846D01*
X28398140Y56580588D01*
X28595689Y56749311D01*
X28764412Y56946860D01*
X28900154Y57168372D01*
X28999573Y57408390D01*
X29060221Y57661006D01*
X29080604Y57920000D01*
X29060221Y58178994D01*
X28999573Y58431610D01*
X28900154Y58671628D01*
X28764412Y58893140D01*
X28595689Y59090689D01*
X28398140Y59259412D01*
X28176628Y59395154D01*
X28176627Y59395155D01*
X28176623Y59395157D01*
X28010627Y59463914D01*
X27936610Y59494573D01*
X27936611Y59494573D01*
X27798921Y59527630D01*
X27683994Y59555221D01*
X27683992Y59555222D01*
X27683991Y59555222D01*
X27425000Y59575604D01*
X27166009Y59555222D01*
X26913389Y59494573D01*
X26673376Y59395157D01*
X26451859Y59259412D01*
X26254311Y59090689D01*
X26085588Y58893141D01*
X25949843Y58671624D01*
X25850427Y58431611D01*
X25789778Y58178991D01*
X25769396Y57920000D01*
X24700499Y57920000D01*
X24700499Y58757872D01*
X24694091Y58817483D01*
X24689648Y58829394D01*
X24643797Y58952329D01*
X24643793Y58952336D01*
X24557547Y59067545D01*
X24557544Y59067548D01*
X24442335Y59153794D01*
X24442328Y59153798D01*
X24307482Y59204092D01*
X24307483Y59204092D01*
X24247883Y59210499D01*
X24247881Y59210500D01*
X24247873Y59210500D01*
X24247864Y59210500D01*
X22552129Y59210500D01*
X22552123Y59210499D01*
X22492516Y59204092D01*
X22357671Y59153798D01*
X22357664Y59153794D01*
X22242455Y59067548D01*
X22242452Y59067545D01*
X22156206Y58952336D01*
X22156202Y58952329D01*
X22105908Y58817483D01*
X22099501Y58757884D01*
X22099501Y58757877D01*
X22099500Y58757865D01*
X19350500Y58757865D01*
X19350500Y66487772D01*
X19370185Y66554811D01*
X19386814Y66575448D01*
X19842494Y67031128D01*
X22699500Y67031128D01*
X22699500Y61768873D01*
X22723485Y61586698D01*
X22733730Y61508884D01*
X22777798Y61344420D01*
X22801602Y61255582D01*
X22801605Y61255572D01*
X22901953Y61013310D01*
X22901958Y61013300D01*
X23033075Y60786197D01*
X23192718Y60578149D01*
X23192726Y60578140D01*
X23378140Y60392726D01*
X23378148Y60392719D01*
X23378149Y60392718D01*
X23417897Y60362218D01*
X23586196Y60233076D01*
X23813299Y60101959D01*
X23813309Y60101954D01*
X24055571Y60001606D01*
X24055581Y60001602D01*
X24308884Y59933730D01*
X24568880Y59899500D01*
X24831120Y59899500D01*
X28462704Y59899500D01*
X28529743Y59879815D01*
X28550385Y59863181D01*
X31263181Y57150385D01*
X31296666Y57089062D01*
X31299500Y57062704D01*
X31299500Y48468887D01*
X31299501Y48468871D01*
X31315545Y48347006D01*
X31333728Y48208888D01*
X31370362Y48072170D01*
X31401602Y47955581D01*
X31501951Y47713315D01*
X31501958Y47713301D01*
X31633077Y47486195D01*
X31634836Y47483903D01*
X31658491Y47453076D01*
X31792715Y47278151D01*
X31792721Y47278144D01*
X34978143Y44092722D01*
X34978150Y44092716D01*
X35095868Y44002389D01*
X35095869Y44002388D01*
X35131549Y43975009D01*
X35186197Y43933076D01*
X35273015Y43882952D01*
X35413299Y43801959D01*
X35413314Y43801952D01*
X35517721Y43758706D01*
X35655581Y43701602D01*
X35908885Y43633729D01*
X36021766Y43618870D01*
X36021767Y43618869D01*
X36021768Y43618869D01*
X36168880Y43599500D01*
X42420004Y43599500D01*
X42487043Y43579815D01*
X42507685Y43563181D01*
X58778142Y27292723D01*
X58778146Y27292720D01*
X58778149Y27292717D01*
X58868561Y27223342D01*
X58986201Y27133073D01*
X59163875Y27030494D01*
X59213299Y27001959D01*
X59213300Y27001959D01*
X59213303Y27001957D01*
X59455581Y26901602D01*
X59708884Y26833729D01*
X59830853Y26817672D01*
X59968880Y26799500D01*
X59968887Y26799500D01*
X64126113Y26799500D01*
X64126120Y26799500D01*
X64386116Y26833730D01*
X64639419Y26901602D01*
X64881697Y27001957D01*
X65108803Y27133076D01*
X65316851Y27292718D01*
X65316855Y27292723D01*
X65316860Y27292726D01*
X65502274Y27478140D01*
X65502277Y27478145D01*
X65502282Y27478149D01*
X65661924Y27686197D01*
X65661924Y27686198D01*
X65661927Y27686201D01*
X65793041Y27913300D01*
X65793046Y27913310D01*
X65839309Y28024999D01*
X65893398Y28155581D01*
X65961270Y28408884D01*
X65995500Y28668880D01*
X65995500Y28931120D01*
X65961270Y29191116D01*
X65893398Y29444419D01*
X65879573Y29477796D01*
X65793046Y29686691D01*
X65793041Y29686701D01*
X65661924Y29913804D01*
X65529411Y30086496D01*
X65502282Y30121851D01*
X65502281Y30121852D01*
X65502274Y30121860D01*
X65316860Y30307274D01*
X65316851Y30307282D01*
X65108803Y30466925D01*
X64881700Y30598042D01*
X64881690Y30598047D01*
X64639428Y30698395D01*
X64639421Y30698397D01*
X64639419Y30698398D01*
X64386116Y30766270D01*
X64328339Y30773877D01*
X64126127Y30800500D01*
X64126120Y30800500D01*
X60979996Y30800500D01*
X60912957Y30820185D01*
X60892315Y30836819D01*
X49498007Y42231128D01*
X56799500Y42231128D01*
X56799500Y36668880D01*
X56807612Y36607266D01*
X56807612Y36607265D01*
X56833728Y36408888D01*
X56873757Y36259500D01*
X56901602Y36155581D01*
X57001951Y35913315D01*
X57001958Y35913300D01*
X57133077Y35686195D01*
X57144820Y35670892D01*
X57168310Y35640280D01*
X57292715Y35478151D01*
X57292721Y35478144D01*
X60398143Y32372722D01*
X60398150Y32372716D01*
X60515868Y32282389D01*
X60515869Y32282388D01*
X60606186Y32213084D01*
X60606189Y32213082D01*
X60606197Y32213076D01*
X60767895Y32119720D01*
X60833299Y32081959D01*
X60833314Y32081952D01*
X60937721Y32038706D01*
X61075581Y31981602D01*
X61328885Y31913729D01*
X61441766Y31898870D01*
X61441767Y31898869D01*
X61441768Y31898869D01*
X61588880Y31879500D01*
X64126113Y31879500D01*
X64126120Y31879500D01*
X64386116Y31913730D01*
X64639419Y31981602D01*
X64881697Y32081957D01*
X65108803Y32213076D01*
X65316851Y32372718D01*
X65316855Y32372723D01*
X65316860Y32372726D01*
X65502274Y32558140D01*
X65502277Y32558145D01*
X65502282Y32558149D01*
X65661924Y32766197D01*
X65793043Y32993303D01*
X65893398Y33235581D01*
X65961270Y33488884D01*
X65995500Y33748880D01*
X65995500Y34011120D01*
X65961270Y34271116D01*
X65893398Y34524419D01*
X65812385Y34720002D01*
X65793046Y34766691D01*
X65793041Y34766701D01*
X65661924Y34993804D01*
X65529411Y35166496D01*
X65502282Y35201851D01*
X65502281Y35201852D01*
X65502274Y35201860D01*
X65316860Y35387274D01*
X65316851Y35387282D01*
X65108803Y35546925D01*
X64881700Y35678042D01*
X64881690Y35678047D01*
X64639428Y35778395D01*
X64639421Y35778397D01*
X64639419Y35778398D01*
X64386116Y35846270D01*
X64328339Y35853877D01*
X64126127Y35880500D01*
X64126120Y35880500D01*
X62599996Y35880500D01*
X62532957Y35900185D01*
X62512315Y35916819D01*
X60836819Y37592315D01*
X60803334Y37653638D01*
X60800500Y37679996D01*
X60800500Y38960005D01*
X62189953Y38960005D01*
X62189953Y38959996D01*
X62210113Y38690974D01*
X62210113Y38690972D01*
X62270142Y38427967D01*
X62270148Y38427948D01*
X62368709Y38176819D01*
X62368708Y38176819D01*
X62503602Y37943178D01*
X62557294Y37875849D01*
X63393957Y38712513D01*
X63418978Y38652110D01*
X63490112Y38545649D01*
X63580649Y38455112D01*
X63687110Y38383978D01*
X63747510Y38358959D01*
X62909848Y37521298D01*
X63092483Y37396780D01*
X63092485Y37396779D01*
X63335539Y37279731D01*
X63335537Y37279731D01*
X63593337Y37200210D01*
X63593343Y37200208D01*
X63860101Y37160001D01*
X63860110Y37160000D01*
X64129890Y37160000D01*
X64129898Y37160001D01*
X64396656Y37200208D01*
X64396662Y37200210D01*
X64654461Y37279731D01*
X64897521Y37396782D01*
X65080150Y37521298D01*
X64242488Y38358959D01*
X64302890Y38383978D01*
X64409351Y38455112D01*
X64499888Y38545649D01*
X64571022Y38652110D01*
X64596041Y38712512D01*
X65432703Y37875849D01*
X65432704Y37875850D01*
X65486393Y37943172D01*
X65486400Y37943183D01*
X65621290Y38176819D01*
X65719851Y38427948D01*
X65719857Y38427967D01*
X65779886Y38690972D01*
X65779886Y38690974D01*
X65800047Y38959996D01*
X65800047Y38960005D01*
X65779886Y39229027D01*
X65779886Y39229029D01*
X65719857Y39492034D01*
X65719851Y39492053D01*
X65621290Y39743182D01*
X65621291Y39743182D01*
X65486397Y39976823D01*
X65432704Y40044153D01*
X64596041Y39207490D01*
X64571022Y39267890D01*
X64499888Y39374351D01*
X64409351Y39464888D01*
X64302890Y39536022D01*
X64242488Y39561042D01*
X65080150Y40398704D01*
X64897517Y40523221D01*
X64897516Y40523222D01*
X64654460Y40640270D01*
X64654462Y40640270D01*
X64396662Y40719791D01*
X64396656Y40719793D01*
X64129898Y40760000D01*
X63860101Y40760000D01*
X63593343Y40719793D01*
X63593337Y40719791D01*
X63335538Y40640270D01*
X63092485Y40523222D01*
X63092476Y40523217D01*
X62909848Y40398704D01*
X63747511Y39561042D01*
X63687110Y39536022D01*
X63580649Y39464888D01*
X63490112Y39374351D01*
X63418978Y39267890D01*
X63393958Y39207489D01*
X62557295Y40044152D01*
X62503600Y39976820D01*
X62368709Y39743182D01*
X62270148Y39492053D01*
X62270142Y39492034D01*
X62210113Y39229029D01*
X62210113Y39229027D01*
X62189953Y38960005D01*
X60800500Y38960005D01*
X60800500Y41220004D01*
X60820185Y41287043D01*
X60836819Y41307685D01*
X61532315Y42003181D01*
X61593638Y42036666D01*
X61619996Y42039500D01*
X64126113Y42039500D01*
X64126120Y42039500D01*
X64386116Y42073730D01*
X64639419Y42141602D01*
X64855554Y42231128D01*
X64881690Y42241954D01*
X64881691Y42241955D01*
X64881697Y42241957D01*
X65108803Y42373076D01*
X65316851Y42532718D01*
X65316855Y42532723D01*
X65316860Y42532726D01*
X65502274Y42718140D01*
X65502277Y42718145D01*
X65502282Y42718149D01*
X65661924Y42926197D01*
X65793043Y43153303D01*
X65893398Y43395581D01*
X65961270Y43648884D01*
X65995500Y43908880D01*
X65995500Y44171120D01*
X65961270Y44431116D01*
X65893398Y44684419D01*
X65883426Y44708494D01*
X65793046Y44926691D01*
X65793041Y44926701D01*
X65661924Y45153804D01*
X65502281Y45361852D01*
X65502274Y45361860D01*
X65316860Y45547274D01*
X65316851Y45547282D01*
X65108803Y45706925D01*
X64881700Y45838042D01*
X64881690Y45838047D01*
X64639428Y45938395D01*
X64639421Y45938397D01*
X64639419Y45938398D01*
X64386116Y46006270D01*
X64328339Y46013877D01*
X64126127Y46040500D01*
X64126120Y46040500D01*
X60608880Y46040500D01*
X60608872Y46040500D01*
X60478882Y46023385D01*
X60478881Y46023385D01*
X60348887Y46006272D01*
X60095580Y45938398D01*
X59853309Y45838046D01*
X59853299Y45838042D01*
X59626197Y45706925D01*
X59493329Y45604973D01*
X59493330Y45604972D01*
X59418141Y45547277D01*
X59418140Y45547275D01*
X57292721Y43421857D01*
X57292715Y43421850D01*
X57202388Y43304132D01*
X57171064Y43263311D01*
X57133072Y43213799D01*
X57022858Y43022899D01*
X57022858Y43022898D01*
X57001957Y42986698D01*
X57001955Y42986694D01*
X56901602Y42744420D01*
X56833728Y42491112D01*
X56822248Y42403904D01*
X56822248Y42403903D01*
X56799500Y42231128D01*
X49498007Y42231128D01*
X44621856Y47107279D01*
X44621849Y47107285D01*
X44504131Y47197612D01*
X44504130Y47197613D01*
X44413803Y47266925D01*
X44186700Y47398042D01*
X44186690Y47398046D01*
X43944419Y47498398D01*
X43703719Y47562894D01*
X43691116Y47566271D01*
X43691115Y47566272D01*
X43691112Y47566272D01*
X43561118Y47583385D01*
X43431127Y47600500D01*
X43431120Y47600500D01*
X37179996Y47600500D01*
X37112957Y47620185D01*
X37092315Y47636819D01*
X35336819Y49392315D01*
X35303334Y49453638D01*
X35300500Y49479996D01*
X35300500Y58073821D01*
X35282329Y58211836D01*
X35282329Y58211837D01*
X35274380Y58272218D01*
X35266271Y58333816D01*
X35198398Y58587119D01*
X35098043Y58829397D01*
X35057569Y58899500D01*
X35057569Y58899501D01*
X34966927Y59056499D01*
X34966926Y59056501D01*
X34862405Y59192715D01*
X34862402Y59192718D01*
X34855585Y59201602D01*
X34807283Y59264552D01*
X34807280Y59264555D01*
X34807276Y59264560D01*
X34748008Y59323828D01*
X35549500Y59323828D01*
X35549500Y50429281D01*
X35560191Y50348085D01*
X35560191Y50348084D01*
X35567837Y50290002D01*
X35583729Y50169292D01*
X35632790Y49986197D01*
X35650867Y49918731D01*
X35651603Y49915987D01*
X35651605Y49915980D01*
X35751953Y49673718D01*
X35751958Y49673708D01*
X35883075Y49446606D01*
X35927194Y49389108D01*
X35927199Y49389103D01*
X36042715Y49238559D01*
X36042721Y49238552D01*
X36375847Y48905426D01*
X36375854Y48905420D01*
X36583902Y48745780D01*
X36811003Y48614663D01*
X36811004Y48614663D01*
X36811007Y48614661D01*
X37053285Y48514306D01*
X37306588Y48446433D01*
X37501585Y48420762D01*
X37566583Y48412205D01*
X37566584Y48412205D01*
X37828825Y48412205D01*
X37880823Y48419051D01*
X38088820Y48446433D01*
X38342123Y48514306D01*
X38584401Y48614661D01*
X38811506Y48745780D01*
X39019555Y48905421D01*
X39204987Y49090853D01*
X39364628Y49298902D01*
X39495747Y49526007D01*
X39596102Y49768285D01*
X39663975Y50021588D01*
X39698203Y50281584D01*
X39698203Y50543824D01*
X39697417Y50549791D01*
X39672167Y50741590D01*
X39663975Y50803820D01*
X39596102Y51057123D01*
X39559939Y51144429D01*
X39550500Y51191881D01*
X39550500Y58312704D01*
X39570185Y58379743D01*
X39586819Y58400385D01*
X41049616Y59863181D01*
X41110939Y59896666D01*
X41137297Y59899500D01*
X41629821Y59899500D01*
X41696860Y59879815D01*
X41742615Y59827011D01*
X41752559Y59757853D01*
X41723534Y59694297D01*
X41691821Y59668113D01*
X41551198Y59586925D01*
X41343150Y59427285D01*
X41343143Y59427279D01*
X41157721Y59241857D01*
X41157715Y59241850D01*
X40998075Y59033802D01*
X40866958Y58806701D01*
X40866954Y58806691D01*
X40766602Y58564420D01*
X40698728Y58311113D01*
X40664501Y58051121D01*
X40664501Y57788880D01*
X40698728Y57528888D01*
X40766602Y57275581D01*
X40866954Y57033310D01*
X40866958Y57033300D01*
X40998075Y56806199D01*
X41157715Y56598151D01*
X41157721Y56598144D01*
X43163143Y54592722D01*
X43163150Y54592716D01*
X43273778Y54507829D01*
X43273779Y54507828D01*
X43371197Y54433075D01*
X43371201Y54433073D01*
X43547792Y54331119D01*
X43547793Y54331119D01*
X43598303Y54301957D01*
X43598306Y54301956D01*
X43598311Y54301953D01*
X43729015Y54247814D01*
X43840581Y54201602D01*
X44093885Y54133729D01*
X44206766Y54118870D01*
X44206767Y54118869D01*
X44206768Y54118869D01*
X44353880Y54099500D01*
X61215004Y54099500D01*
X61282043Y54079815D01*
X61302685Y54063181D01*
X62053685Y53312181D01*
X62087170Y53250858D01*
X62082186Y53181166D01*
X62040314Y53125233D01*
X61974850Y53100816D01*
X61966004Y53100500D01*
X45873879Y53100500D01*
X45735853Y53082330D01*
X45735853Y53082329D01*
X45714056Y53079460D01*
X45613887Y53066272D01*
X45360580Y52998398D01*
X45118309Y52898046D01*
X45118299Y52898042D01*
X44891201Y52766928D01*
X44841689Y52728936D01*
X44800868Y52697612D01*
X44683150Y52607285D01*
X44683143Y52607279D01*
X43697721Y51621857D01*
X43697715Y51621850D01*
X43538075Y51413802D01*
X43406958Y51186701D01*
X43406954Y51186691D01*
X43306602Y50944420D01*
X43238728Y50691113D01*
X43204501Y50431121D01*
X43204501Y50168880D01*
X43238728Y49908888D01*
X43306602Y49655581D01*
X43406954Y49413310D01*
X43406958Y49413300D01*
X43538075Y49186199D01*
X43697715Y48978151D01*
X43697721Y48978144D01*
X43883143Y48792722D01*
X43883150Y48792716D01*
X44091198Y48633076D01*
X44318299Y48501959D01*
X44318300Y48501959D01*
X44318303Y48501957D01*
X44560581Y48401602D01*
X44813884Y48333729D01*
X45008881Y48308058D01*
X45073879Y48299501D01*
X45073880Y48299501D01*
X45336121Y48299501D01*
X45388119Y48306347D01*
X45596116Y48333729D01*
X45849419Y48401602D01*
X46091697Y48501957D01*
X46318802Y48633076D01*
X46526851Y48792717D01*
X46797315Y49063181D01*
X46858638Y49096666D01*
X46884996Y49099500D01*
X61135004Y49099500D01*
X61202043Y49079815D01*
X61222685Y49063181D01*
X62673143Y47612722D01*
X62673150Y47612716D01*
X62881198Y47453076D01*
X63108299Y47321959D01*
X63108300Y47321959D01*
X63108303Y47321957D01*
X63350581Y47221602D01*
X63603884Y47153729D01*
X63798881Y47128058D01*
X63863880Y47119501D01*
X63863881Y47119501D01*
X64126121Y47119501D01*
X64178119Y47126347D01*
X64386116Y47153729D01*
X64639419Y47221602D01*
X64881697Y47321957D01*
X65108802Y47453076D01*
X65316851Y47612717D01*
X65502283Y47798149D01*
X65661924Y48006198D01*
X65793043Y48233303D01*
X65893398Y48475581D01*
X65961271Y48728884D01*
X65995499Y48988880D01*
X65995499Y49251119D01*
X65989208Y49298902D01*
X65974147Y49413310D01*
X65961271Y49511116D01*
X65893398Y49764419D01*
X65793043Y50006697D01*
X65785066Y50020513D01*
X65661924Y50233802D01*
X65502284Y50441850D01*
X65502278Y50441857D01*
X63956314Y51987820D01*
X63922829Y52049143D01*
X63927813Y52118835D01*
X63969685Y52174768D01*
X64035149Y52199185D01*
X64043995Y52199501D01*
X64126121Y52199501D01*
X64178119Y52206347D01*
X64386116Y52233729D01*
X64639419Y52301602D01*
X64852979Y52390063D01*
X64900432Y52399501D01*
X65342871Y52399501D01*
X65342872Y52399501D01*
X65402483Y52405909D01*
X65537331Y52456204D01*
X65652546Y52542454D01*
X65738796Y52657669D01*
X65789091Y52792517D01*
X65795500Y52852127D01*
X65795499Y53294571D01*
X65804938Y53342023D01*
X65815009Y53366336D01*
X65893398Y53555581D01*
X65961271Y53808884D01*
X65995499Y54068880D01*
X65995499Y54331119D01*
X65961271Y54591115D01*
X65893398Y54844419D01*
X65822681Y55015145D01*
X65804938Y55057982D01*
X65795499Y55105434D01*
X65795499Y55547871D01*
X65795498Y55547877D01*
X65789091Y55607484D01*
X65738797Y55742329D01*
X65738793Y55742336D01*
X65652547Y55857545D01*
X65652544Y55857548D01*
X65537335Y55943794D01*
X65537328Y55943798D01*
X65402482Y55994092D01*
X65402483Y55994092D01*
X65342883Y56000499D01*
X65342881Y56000500D01*
X65342873Y56000500D01*
X65342865Y56000500D01*
X65074996Y56000500D01*
X65007957Y56020185D01*
X64987315Y56036819D01*
X63416856Y57607279D01*
X63416849Y57607285D01*
X63249149Y57735965D01*
X63249148Y57735966D01*
X63208808Y57766921D01*
X62981699Y57898042D01*
X62981690Y57898046D01*
X62739417Y57998399D01*
X62738332Y57998690D01*
X62738326Y57998691D01*
X62486116Y58066271D01*
X62486115Y58066272D01*
X62486112Y58066272D01*
X62356118Y58083385D01*
X62226127Y58100500D01*
X62226120Y58100500D01*
X45364996Y58100500D01*
X45297957Y58120185D01*
X45277315Y58136819D01*
X43986856Y59427279D01*
X43986849Y59427285D01*
X43778801Y59586925D01*
X43551700Y59718042D01*
X43551690Y59718046D01*
X43455587Y59757853D01*
X43309419Y59818398D01*
X43302525Y59820246D01*
X43293507Y59822662D01*
X43233848Y59859030D01*
X43203321Y59921878D01*
X43211619Y59991253D01*
X43256106Y60045129D01*
X43278149Y60056995D01*
X43386697Y60101957D01*
X43613803Y60233076D01*
X43821851Y60392718D01*
X43821855Y60392723D01*
X43821860Y60392726D01*
X44007274Y60578140D01*
X44007277Y60578145D01*
X44007282Y60578149D01*
X44166924Y60786197D01*
X44298043Y61013303D01*
X44398398Y61255581D01*
X44466270Y61508884D01*
X44500500Y61768880D01*
X44500500Y67031120D01*
X44466270Y67291116D01*
X44398398Y67544419D01*
X44384471Y67578042D01*
X44298046Y67786691D01*
X44298041Y67786701D01*
X44166924Y68013804D01*
X44007281Y68221852D01*
X44007274Y68221860D01*
X43821860Y68407274D01*
X43821851Y68407282D01*
X43613803Y68566925D01*
X43386700Y68698042D01*
X43386690Y68698047D01*
X43144428Y68798395D01*
X43144421Y68798397D01*
X43144419Y68798398D01*
X42891116Y68866270D01*
X42833339Y68873877D01*
X42631127Y68900500D01*
X42631120Y68900500D01*
X42368880Y68900500D01*
X42368872Y68900500D01*
X42137772Y68870074D01*
X42108884Y68866270D01*
X41903695Y68811290D01*
X41855581Y68798398D01*
X41855571Y68798395D01*
X41613309Y68698047D01*
X41613299Y68698042D01*
X41386196Y68566925D01*
X41178148Y68407282D01*
X40992718Y68221852D01*
X40833075Y68013804D01*
X40701958Y67786701D01*
X40701953Y67786691D01*
X40601605Y67544429D01*
X40601602Y67544419D01*
X40543725Y67328416D01*
X40533730Y67291115D01*
X40499500Y67031128D01*
X40499500Y64024500D01*
X40479815Y63957461D01*
X40427011Y63911706D01*
X40375500Y63900500D01*
X40126172Y63900500D01*
X39996182Y63883385D01*
X39996181Y63883385D01*
X39866187Y63866272D01*
X39670097Y63813729D01*
X39612880Y63798398D01*
X39370614Y63698049D01*
X39370599Y63698042D01*
X39143497Y63566925D01*
X39039472Y63487103D01*
X38935445Y63407281D01*
X38935440Y63407277D01*
X36042721Y60514557D01*
X36042715Y60514550D01*
X36010307Y60472314D01*
X35952388Y60396832D01*
X35922525Y60357914D01*
X35883072Y60306499D01*
X35802999Y60167805D01*
X35751958Y60079401D01*
X35751954Y60079391D01*
X35651602Y59837120D01*
X35583728Y59583813D01*
X35566615Y59453819D01*
X35566615Y59453818D01*
X35549500Y59323828D01*
X34748008Y59323828D01*
X30664556Y63407279D01*
X30664549Y63407285D01*
X30536618Y63505449D01*
X30536617Y63505450D01*
X30456503Y63566925D01*
X30229400Y63698042D01*
X30229385Y63698049D01*
X29987119Y63798398D01*
X29929903Y63813729D01*
X29733812Y63866272D01*
X29603818Y63883385D01*
X29473827Y63900500D01*
X29473820Y63900500D01*
X26824500Y63900500D01*
X26757461Y63920185D01*
X26711706Y63972989D01*
X26700500Y64024500D01*
X26700500Y67031114D01*
X26700499Y67031128D01*
X26691188Y67101851D01*
X26666270Y67291116D01*
X26598398Y67544419D01*
X26584471Y67578042D01*
X26498046Y67786691D01*
X26498041Y67786701D01*
X26366924Y68013804D01*
X26207281Y68221852D01*
X26207274Y68221860D01*
X26021860Y68407274D01*
X26021851Y68407282D01*
X25813803Y68566925D01*
X25756896Y68599780D01*
X25708680Y68650347D01*
X25695458Y68718954D01*
X25721426Y68783819D01*
X25731201Y68794834D01*
X25742712Y68806344D01*
X25834814Y68955666D01*
X25889999Y69122203D01*
X25900500Y69224991D01*
X25900499Y70575008D01*
X25889999Y70677797D01*
X25834814Y70844334D01*
X25742712Y70993656D01*
X25636548Y71099820D01*
X25603063Y71161143D01*
X25608047Y71230835D01*
X25636546Y71275180D01*
X26376365Y72014999D01*
X26877704Y72014999D01*
X26877899Y72012514D01*
X26923718Y71854802D01*
X27007314Y71713448D01*
X27007321Y71713439D01*
X27123438Y71597322D01*
X27123447Y71597315D01*
X27264803Y71513718D01*
X27264806Y71513717D01*
X27422504Y71467901D01*
X27422510Y71467900D01*
X27459350Y71465001D01*
X27459366Y71465000D01*
X27937500Y71465000D01*
X28437500Y71465000D01*
X28915634Y71465000D01*
X28915649Y71465001D01*
X28952489Y71467900D01*
X28952495Y71467901D01*
X29110193Y71513717D01*
X29110196Y71513718D01*
X29251552Y71597315D01*
X29251561Y71597322D01*
X29367678Y71713439D01*
X29367685Y71713448D01*
X29451281Y71854802D01*
X29497100Y72012514D01*
X29497295Y72014999D01*
X29497295Y72015000D01*
X28437500Y72015000D01*
X28437500Y71465000D01*
X27937500Y71465000D01*
X27937500Y72015000D01*
X26877705Y72015000D01*
X26877704Y72014999D01*
X26376365Y72014999D01*
X26840049Y72478683D01*
X26901370Y72512166D01*
X26927728Y72515000D01*
X29497295Y72515000D01*
X29497295Y72515002D01*
X29497100Y72517487D01*
X29451281Y72675199D01*
X29367685Y72816553D01*
X29362900Y72822722D01*
X29365366Y72824636D01*
X29338802Y72873224D01*
X29343749Y72942918D01*
X29364856Y72975768D01*
X29363301Y72976974D01*
X29368077Y72983132D01*
X29368081Y72983135D01*
X29451744Y73124602D01*
X29497598Y73282431D01*
X29500500Y73319306D01*
X29500500Y73750694D01*
X29497598Y73787569D01*
X29496567Y73791116D01*
X29454281Y73936666D01*
X29451744Y73945398D01*
X29368081Y74086865D01*
X29368079Y74086867D01*
X29368076Y74086871D01*
X29251870Y74203077D01*
X29251862Y74203083D01*
X29167622Y74252902D01*
X29110398Y74286744D01*
X29110397Y74286745D01*
X29110396Y74286745D01*
X29110393Y74286746D01*
X28952573Y74332598D01*
X28952567Y74332599D01*
X28915701Y74335500D01*
X28915694Y74335500D01*
X27459306Y74335500D01*
X27459298Y74335500D01*
X27422432Y74332599D01*
X27422426Y74332598D01*
X27277267Y74290424D01*
X27242672Y74285500D01*
X26761080Y74285500D01*
X26616092Y74256660D01*
X26616082Y74256657D01*
X26479511Y74200088D01*
X26479498Y74200081D01*
X26356584Y74117952D01*
X26356580Y74117949D01*
X24167045Y71928414D01*
X24132576Y71876823D01*
X24127699Y71869524D01*
X24117862Y71854802D01*
X24084916Y71805496D01*
X24084912Y71805489D01*
X24028343Y71668918D01*
X24028340Y71668908D01*
X23999500Y71523921D01*
X23999500Y71259799D01*
X23979815Y71192760D01*
X23940598Y71154261D01*
X23881344Y71117713D01*
X23757289Y70993658D01*
X23665187Y70844337D01*
X23665186Y70844334D01*
X23610001Y70677797D01*
X23610001Y70677796D01*
X23610000Y70677796D01*
X23599500Y70575017D01*
X23599500Y69224999D01*
X23599501Y69224982D01*
X23610000Y69122204D01*
X23610001Y69122201D01*
X23630613Y69060000D01*
X23665186Y68955666D01*
X23754238Y68811288D01*
X23772678Y68743897D01*
X23751755Y68677234D01*
X23710699Y68638806D01*
X23586196Y68566925D01*
X23378148Y68407282D01*
X23192718Y68221852D01*
X23033075Y68013804D01*
X22901958Y67786701D01*
X22901953Y67786691D01*
X22801605Y67544429D01*
X22801602Y67544419D01*
X22743725Y67328416D01*
X22733730Y67291115D01*
X22699500Y67031128D01*
X19842494Y67031128D01*
X21299548Y68488183D01*
X21360871Y68521667D01*
X21387229Y68524501D01*
X22100002Y68524501D01*
X22100008Y68524501D01*
X22202797Y68535001D01*
X22369334Y68590186D01*
X22518656Y68682288D01*
X22642712Y68806344D01*
X22734814Y68955666D01*
X22789999Y69122203D01*
X22800500Y69224991D01*
X22800499Y70575008D01*
X22789999Y70677797D01*
X22734814Y70844334D01*
X22642712Y70993656D01*
X22518656Y71117712D01*
X22369334Y71209814D01*
X22328651Y71223295D01*
X22271208Y71263067D01*
X22244385Y71327583D01*
X22256700Y71396358D01*
X22304243Y71447558D01*
X22367657Y71465000D01*
X22540634Y71465000D01*
X22540649Y71465001D01*
X22577489Y71467900D01*
X22577495Y71467901D01*
X22735193Y71513717D01*
X22735196Y71513718D01*
X22876552Y71597315D01*
X22876561Y71597322D01*
X22992678Y71713439D01*
X22992685Y71713448D01*
X23076281Y71854802D01*
X23122100Y72012514D01*
X23122295Y72014999D01*
X23122295Y72015000D01*
X20502705Y72015000D01*
X20502704Y72014999D01*
X20502899Y72012514D01*
X20548718Y71854802D01*
X20632314Y71713448D01*
X20632321Y71713439D01*
X20748438Y71597322D01*
X20748447Y71597315D01*
X20889802Y71513719D01*
X21017156Y71476719D01*
X21076042Y71439112D01*
X21105249Y71375640D01*
X21095503Y71306453D01*
X21049900Y71253519D01*
X21021567Y71239936D01*
X20930666Y71209814D01*
X20930663Y71209813D01*
X20781342Y71117711D01*
X20657289Y70993658D01*
X20565187Y70844337D01*
X20565186Y70844334D01*
X20510001Y70677797D01*
X20510001Y70677796D01*
X20510000Y70677796D01*
X20499500Y70575017D01*
X20499500Y69862230D01*
X20479815Y69795191D01*
X20463181Y69774549D01*
X18062181Y67373549D01*
X18000858Y67340064D01*
X17931166Y67345048D01*
X17875233Y67386920D01*
X17850816Y67452384D01*
X17850500Y67461230D01*
X17850500Y73750702D01*
X20499500Y73750702D01*
X20499500Y73319299D01*
X20502401Y73282433D01*
X20502402Y73282427D01*
X20548254Y73124607D01*
X20548255Y73124604D01*
X20631917Y72983138D01*
X20636702Y72976969D01*
X20634369Y72975160D01*
X20661210Y72926005D01*
X20656226Y72856313D01*
X20635470Y72823979D01*
X20637097Y72822717D01*
X20632313Y72816551D01*
X20548718Y72675199D01*
X20502899Y72517487D01*
X20502704Y72515002D01*
X20502705Y72515000D01*
X23122295Y72515000D01*
X23122295Y72515002D01*
X23122100Y72517487D01*
X23076281Y72675199D01*
X22992685Y72816553D01*
X22987900Y72822722D01*
X22990366Y72824636D01*
X22963802Y72873224D01*
X22968749Y72942918D01*
X22989856Y72975768D01*
X22988301Y72976974D01*
X22993077Y72983132D01*
X22993081Y72983135D01*
X23076744Y73124602D01*
X23122598Y73282431D01*
X23125500Y73319306D01*
X23125500Y73735271D01*
X23145185Y73802310D01*
X23161819Y73822952D01*
X23570862Y74231994D01*
X23982952Y74644084D01*
X24045669Y74737949D01*
X24065084Y74767005D01*
X24121658Y74903587D01*
X24142520Y75008465D01*
X24150500Y75048580D01*
X24150500Y75763338D01*
X24170185Y75830377D01*
X24203379Y75864914D01*
X24239140Y75889954D01*
X24400045Y76050859D01*
X24400047Y76050861D01*
X24530568Y76237266D01*
X24626739Y76443504D01*
X24685635Y76663308D01*
X24703338Y76865650D01*
X24705468Y76889999D01*
X24705468Y76890002D01*
X24699801Y76954770D01*
X24685635Y77116692D01*
X24626739Y77336496D01*
X24530568Y77542734D01*
X24400047Y77729139D01*
X24400045Y77729142D01*
X24239141Y77890046D01*
X24052734Y78020568D01*
X24052732Y78020569D01*
X23886972Y78097865D01*
X25774500Y78097865D01*
X25774500Y75702130D01*
X25774501Y75702124D01*
X25780908Y75642517D01*
X25831202Y75507672D01*
X25831206Y75507665D01*
X25917452Y75392456D01*
X25917455Y75392453D01*
X26032664Y75306207D01*
X26032671Y75306203D01*
X26167517Y75255909D01*
X26167516Y75255909D01*
X26174444Y75255165D01*
X26227127Y75249500D01*
X28622872Y75249501D01*
X28682483Y75255909D01*
X28817331Y75306204D01*
X28932546Y75392454D01*
X29018796Y75507669D01*
X29069091Y75642517D01*
X29075500Y75702127D01*
X29075499Y78097872D01*
X29069091Y78157483D01*
X29062320Y78175636D01*
X29018797Y78292329D01*
X29018793Y78292336D01*
X28932547Y78407545D01*
X28932544Y78407548D01*
X28817335Y78493794D01*
X28817328Y78493798D01*
X28682482Y78544092D01*
X28682483Y78544092D01*
X28622883Y78550499D01*
X28622881Y78550500D01*
X28622873Y78550500D01*
X28622864Y78550500D01*
X26227129Y78550500D01*
X26227123Y78550499D01*
X26167516Y78544092D01*
X26032671Y78493798D01*
X26032664Y78493794D01*
X25917455Y78407548D01*
X25917452Y78407545D01*
X25831206Y78292336D01*
X25831202Y78292329D01*
X25780908Y78157483D01*
X25776528Y78116739D01*
X25774501Y78097877D01*
X25774500Y78097865D01*
X23886972Y78097865D01*
X23846497Y78116739D01*
X23846488Y78116742D01*
X23626697Y78175634D01*
X23626693Y78175635D01*
X23626692Y78175635D01*
X23626691Y78175636D01*
X23626686Y78175636D01*
X23400002Y78195468D01*
X23399998Y78195468D01*
X23173313Y78175636D01*
X23173302Y78175634D01*
X22953511Y78116742D01*
X22953502Y78116739D01*
X22747267Y78020569D01*
X22747265Y78020568D01*
X22560858Y77890046D01*
X22399954Y77729142D01*
X22269432Y77542735D01*
X22269431Y77542733D01*
X22173261Y77336498D01*
X22173258Y77336489D01*
X22114366Y77116698D01*
X22114364Y77116687D01*
X22094532Y76890002D01*
X22094532Y76889999D01*
X22114364Y76663314D01*
X22114366Y76663303D01*
X22173258Y76443512D01*
X22173261Y76443503D01*
X22269431Y76237268D01*
X22269432Y76237266D01*
X22399954Y76050859D01*
X22560859Y75889954D01*
X22596621Y75864914D01*
X22640247Y75810338D01*
X22649500Y75763338D01*
X22649500Y75484730D01*
X22629815Y75417691D01*
X22613181Y75397049D01*
X21587951Y74371819D01*
X21526628Y74338334D01*
X21500270Y74335500D01*
X21084298Y74335500D01*
X21047432Y74332599D01*
X21047426Y74332598D01*
X20889606Y74286746D01*
X20889603Y74286745D01*
X20748137Y74203083D01*
X20748129Y74203077D01*
X20631923Y74086871D01*
X20631917Y74086863D01*
X20548255Y73945397D01*
X20548254Y73945394D01*
X20502402Y73787574D01*
X20502401Y73787568D01*
X20499500Y73750702D01*
X17850500Y73750702D01*
X17850500Y75378415D01*
X17856569Y75416734D01*
X17869709Y75457175D01*
X17876768Y75501743D01*
X17876768Y75501744D01*
X17900500Y75651578D01*
X17900500Y78733980D01*
X17902027Y78753378D01*
X17925500Y78901578D01*
X17925500Y79098417D01*
X17925496Y79098441D01*
X17925481Y79098540D01*
X17902027Y79246623D01*
X17900500Y79266021D01*
X17900500Y81733980D01*
X17902027Y81753378D01*
X17925500Y81901578D01*
X17925500Y82098422D01*
X17908704Y82204458D01*
X17894709Y82292826D01*
X17833883Y82480026D01*
X17764014Y82617154D01*
X17750499Y82673448D01*
X17750499Y82700002D01*
X17750498Y82700019D01*
X17739999Y82802797D01*
X17739998Y82802800D01*
X17719587Y82864396D01*
X17684814Y82969334D01*
X17592712Y83118656D01*
X17468656Y83242712D01*
X17408264Y83279962D01*
X17361541Y83331909D01*
X17350318Y83400872D01*
X17378162Y83464954D01*
X17436231Y83503810D01*
X17473362Y83509500D01*
X22062820Y83509500D01*
X22129859Y83489815D01*
X22162085Y83459813D01*
X22242454Y83352454D01*
X22246653Y83349311D01*
X22357664Y83266207D01*
X22357671Y83266203D01*
X22492517Y83215909D01*
X22492516Y83215909D01*
X22499444Y83215165D01*
X22552127Y83209500D01*
X24247872Y83209501D01*
X24307483Y83215909D01*
X24442331Y83266204D01*
X24557546Y83352454D01*
X24643796Y83467669D01*
X24694091Y83602517D01*
X24700500Y83662127D01*
X24700499Y84520000D01*
X25769396Y84520000D01*
X25789778Y84261010D01*
X25850427Y84008390D01*
X25949843Y83768377D01*
X25949845Y83768373D01*
X25949846Y83768372D01*
X26085588Y83546860D01*
X26254311Y83349311D01*
X26451860Y83180588D01*
X26673372Y83044846D01*
X26673374Y83044846D01*
X26673376Y83044844D01*
X26734693Y83019446D01*
X26913390Y82945427D01*
X27166006Y82884779D01*
X27425000Y82864396D01*
X27683994Y82884779D01*
X27936610Y82945427D01*
X28176628Y83044846D01*
X28398140Y83180588D01*
X28595689Y83349311D01*
X28764412Y83546860D01*
X28900154Y83768372D01*
X28999573Y84008390D01*
X29060221Y84261006D01*
X29080604Y84520000D01*
X29060221Y84778994D01*
X28999573Y85031610D01*
X28900154Y85271628D01*
X28764412Y85493140D01*
X28595689Y85690689D01*
X28398140Y85859412D01*
X28176628Y85995154D01*
X28176627Y85995155D01*
X28176623Y85995157D01*
X28010627Y86063914D01*
X27936610Y86094573D01*
X27936611Y86094573D01*
X27798921Y86127630D01*
X27683994Y86155221D01*
X27683992Y86155222D01*
X27683991Y86155222D01*
X27425000Y86175604D01*
X27166009Y86155222D01*
X26913389Y86094573D01*
X26673376Y85995157D01*
X26566317Y85929551D01*
X26451860Y85859412D01*
X26290390Y85721503D01*
X26254311Y85690689D01*
X26085588Y85493141D01*
X25949843Y85271624D01*
X25850427Y85031611D01*
X25789778Y84778991D01*
X25769396Y84520000D01*
X24700499Y84520000D01*
X24700499Y85357872D01*
X24694091Y85417483D01*
X24679881Y85455581D01*
X24643797Y85552329D01*
X24643793Y85552336D01*
X24557547Y85667545D01*
X24557544Y85667548D01*
X24442335Y85753794D01*
X24442328Y85753798D01*
X24307482Y85804092D01*
X24307483Y85804092D01*
X24247883Y85810499D01*
X24247881Y85810500D01*
X24247873Y85810500D01*
X24247864Y85810500D01*
X22552129Y85810500D01*
X22552123Y85810499D01*
X22492516Y85804092D01*
X22357671Y85753798D01*
X22357664Y85753794D01*
X22242456Y85667548D01*
X22242455Y85667547D01*
X22242454Y85667546D01*
X22162087Y85560189D01*
X22106153Y85518318D01*
X22062820Y85510500D01*
X12109040Y85510500D01*
X12109020Y85510501D01*
X12102906Y85510501D01*
X11905825Y85510501D01*
X11905822Y85510501D01*
X11712537Y85472054D01*
X11712529Y85472052D01*
X11530453Y85396634D01*
X11530444Y85396629D01*
X11366584Y85287141D01*
X11366580Y85287138D01*
X8633173Y82553729D01*
X7787220Y81707776D01*
X7787218Y81707774D01*
X7743864Y81664420D01*
X7647859Y81568416D01*
X7538371Y81404556D01*
X7538364Y81404543D01*
X7462950Y81222475D01*
X7462947Y81222465D01*
X7424500Y81029179D01*
X7424500Y80016798D01*
X7415635Y79976793D01*
X7417458Y79976189D01*
X7415187Y79969336D01*
X7415186Y79969334D01*
X7360001Y79802797D01*
X7360001Y79802796D01*
X7360000Y79802796D01*
X7349500Y79700017D01*
X7349500Y79390783D01*
X7329815Y79323744D01*
X7313181Y79303102D01*
X5562221Y77552142D01*
X5562218Y77552139D01*
X5525078Y77514999D01*
X5422859Y77412781D01*
X5313371Y77248920D01*
X5313366Y77248911D01*
X5261592Y77123915D01*
X5237949Y77066838D01*
X5237949Y77066836D01*
X5232211Y77037990D01*
X5199500Y76873544D01*
X5199500Y61465784D01*
X5179815Y61398745D01*
X5163181Y61378103D01*
X5021397Y61236319D01*
X4960074Y61202834D01*
X4933716Y61200000D01*
X4033012Y61200000D01*
X4065925Y61257007D01*
X4100000Y61384174D01*
X4100000Y61515826D01*
X4065925Y61642993D01*
X4033012Y61700000D01*
X4950000Y61700000D01*
X4950000Y62347828D01*
X4949999Y62347845D01*
X4943598Y62407373D01*
X4943596Y62407380D01*
X4893354Y62542087D01*
X4893350Y62542094D01*
X4807190Y62657188D01*
X4807187Y62657191D01*
X4692093Y62743351D01*
X4692086Y62743355D01*
X4557379Y62793597D01*
X4557372Y62793599D01*
X4497844Y62800000D01*
X3850000Y62800000D01*
X3850000Y61883012D01*
X3792993Y61915925D01*
X3665826Y61950000D01*
X3534174Y61950000D01*
X3407007Y61915925D01*
X3350000Y61883012D01*
X3350000Y62800000D01*
X2702155Y62800000D01*
X2642627Y62793599D01*
X2642620Y62793597D01*
X2507913Y62743355D01*
X2507906Y62743351D01*
X2392812Y62657191D01*
X2392809Y62657188D01*
X2306649Y62542094D01*
X2306645Y62542087D01*
X2256403Y62407380D01*
X2256401Y62407373D01*
X2250000Y62347845D01*
X2250000Y61700000D01*
X3166988Y61700000D01*
X3134075Y61642993D01*
X3100000Y61515826D01*
X3100000Y61384174D01*
X3134075Y61257007D01*
X3166988Y61200000D01*
X2250000Y61200000D01*
X2250000Y60552156D01*
X2256401Y60492628D01*
X2256403Y60492621D01*
X2306645Y60357914D01*
X2306649Y60357907D01*
X2392809Y60242813D01*
X2392812Y60242810D01*
X2507906Y60156650D01*
X2507913Y60156646D01*
X2639470Y60107579D01*
X2695403Y60065708D01*
X2719821Y60000244D01*
X2704970Y59931971D01*
X2683819Y59903716D01*
X2561503Y59781400D01*
X2425965Y59587831D01*
X2425964Y59587829D01*
X2326098Y59373665D01*
X2326094Y59373656D01*
X2264938Y59145414D01*
X2264936Y59145404D01*
X2244341Y58910001D01*
X25500Y58910001D01*
X25500Y67400500D01*
X45185Y67467539D01*
X97989Y67513294D01*
X149500Y67524500D01*
X2015017Y67524500D01*
X2015019Y67524500D01*
X2042768Y67535994D01*
X2064007Y67557233D01*
X2075501Y67584982D01*
X2075500Y90500501D01*
X2095185Y90567539D01*
X2147989Y90613294D01*
X2199500Y90624500D01*
X5202289Y90624500D01*
X5202292Y90624500D01*
X5454502Y90647871D01*
X5605140Y90661829D01*
X5605141Y90661829D01*
X5605143Y90661830D01*
X5605149Y90661830D01*
X6002843Y90736172D01*
X6391982Y90846891D01*
X6769245Y90993044D01*
X7131413Y91173382D01*
X7475396Y91386368D01*
X7798261Y91630184D01*
X8097251Y91902750D01*
X8369817Y92201740D01*
X8613633Y92524605D01*
X8826618Y92868588D01*
X9006957Y93230756D01*
X9153109Y93608019D01*
X9263828Y93997158D01*
X9338170Y94394852D01*
X9341779Y94433793D01*
X9358126Y94610213D01*
X9375500Y94797709D01*
X9375500Y95000001D01*
X9375500Y95024532D01*
X9375500Y95231128D01*
X23799500Y95231128D01*
X23799500Y89968873D01*
X23826123Y89766661D01*
X23833730Y89708884D01*
X23901602Y89455582D01*
X23901605Y89455572D01*
X24001953Y89213310D01*
X24001958Y89213300D01*
X24133075Y88986197D01*
X24292718Y88778149D01*
X24292726Y88778140D01*
X24478140Y88592726D01*
X24478148Y88592719D01*
X24686196Y88433076D01*
X24913299Y88301959D01*
X24913309Y88301954D01*
X25155571Y88201606D01*
X25155581Y88201602D01*
X25408884Y88133730D01*
X25668880Y88099500D01*
X26962704Y88099500D01*
X27029743Y88079815D01*
X27050385Y88063181D01*
X31298181Y83815385D01*
X31331666Y83754062D01*
X31334500Y83727704D01*
X31334500Y75008465D01*
X31347822Y74907283D01*
X31347822Y74907282D01*
X31368728Y74748478D01*
X31426115Y74534307D01*
X31436599Y74495180D01*
X31436600Y74495177D01*
X31528598Y74273076D01*
X31536957Y74252895D01*
X31668076Y74025789D01*
X31722742Y73954548D01*
X31827715Y73817743D01*
X31827721Y73817736D01*
X34502735Y71142722D01*
X34502742Y71142716D01*
X34520582Y71129027D01*
X34620460Y71052389D01*
X34710789Y70983076D01*
X34914982Y70865186D01*
X34937895Y70851957D01*
X34937898Y70851956D01*
X34937903Y70851953D01*
X35068607Y70797814D01*
X35180173Y70751602D01*
X35433477Y70683729D01*
X35546358Y70668870D01*
X35546359Y70668869D01*
X35546360Y70668869D01*
X35693472Y70649500D01*
X42059596Y70649500D01*
X42126635Y70629815D01*
X42147277Y70613181D01*
X53167735Y59592722D01*
X53167742Y59592716D01*
X53179341Y59583816D01*
X53285460Y59502389D01*
X53375789Y59433076D01*
X53460941Y59383914D01*
X53602891Y59301959D01*
X53602906Y59301952D01*
X53705608Y59259412D01*
X53845173Y59201602D01*
X54098477Y59133729D01*
X54211358Y59118870D01*
X54211359Y59118869D01*
X54211360Y59118869D01*
X54358472Y59099500D01*
X62757541Y59099500D01*
X62824580Y59079815D01*
X62833027Y59073876D01*
X62886198Y59033077D01*
X63113303Y58901957D01*
X63355581Y58801602D01*
X63608884Y58733729D01*
X63803881Y58708058D01*
X63868879Y58699501D01*
X63868880Y58699501D01*
X64131120Y58699501D01*
X64183118Y58706347D01*
X64391115Y58733729D01*
X64644419Y58801602D01*
X64865411Y58893140D01*
X64886688Y58901953D01*
X64886689Y58901955D01*
X64886697Y58901957D01*
X65113802Y59033077D01*
X65200367Y59099500D01*
X65321853Y59192718D01*
X65321856Y59192722D01*
X65507278Y59378144D01*
X65507283Y59378149D01*
X65666923Y59586198D01*
X65798043Y59813303D01*
X65800154Y59818398D01*
X65847197Y59931971D01*
X65898398Y60055581D01*
X65966271Y60308885D01*
X66000499Y60568881D01*
X66000499Y60831120D01*
X65966271Y61091116D01*
X65898398Y61344419D01*
X65798043Y61586697D01*
X65666923Y61813802D01*
X65507283Y62021852D01*
X65507280Y62021855D01*
X65507276Y62021860D01*
X64921856Y62607279D01*
X64921849Y62607285D01*
X64804131Y62697612D01*
X64804130Y62697613D01*
X64713803Y62766925D01*
X64486700Y62898042D01*
X64486690Y62898046D01*
X64244419Y62998398D01*
X63991112Y63066272D01*
X63861118Y63083385D01*
X63731127Y63100500D01*
X63731120Y63100500D01*
X55369588Y63100500D01*
X55302549Y63120185D01*
X55281907Y63136819D01*
X44887599Y73531128D01*
X55599500Y73531128D01*
X55599500Y68868873D01*
X55616615Y68738882D01*
X55616615Y68738881D01*
X55629789Y68638806D01*
X55633729Y68608884D01*
X55638739Y68590188D01*
X55661445Y68505449D01*
X55701602Y68355581D01*
X55801951Y68113315D01*
X55801957Y68113303D01*
X55933076Y67886197D01*
X55933078Y67886195D01*
X55933080Y67886191D01*
X55965715Y67843662D01*
X55965716Y67843659D01*
X55965717Y67843659D01*
X56092715Y67678151D01*
X56092721Y67678144D01*
X59498143Y64272722D01*
X59498150Y64272716D01*
X59615868Y64182389D01*
X59615869Y64182388D01*
X59706186Y64113084D01*
X59706189Y64113082D01*
X59706197Y64113076D01*
X59859616Y64024500D01*
X59867895Y64019720D01*
X59933299Y63981959D01*
X59933314Y63981952D01*
X59992441Y63957461D01*
X60175581Y63881602D01*
X60428885Y63813729D01*
X60541766Y63798870D01*
X60541767Y63798869D01*
X60541768Y63798869D01*
X60688880Y63779500D01*
X64131113Y63779500D01*
X64131120Y63779500D01*
X64391116Y63813730D01*
X64644419Y63881602D01*
X64827559Y63957461D01*
X64886690Y63981954D01*
X64886691Y63981955D01*
X64886697Y63981957D01*
X65113803Y64113076D01*
X65321851Y64272718D01*
X65321855Y64272723D01*
X65321860Y64272726D01*
X65507274Y64458140D01*
X65507277Y64458145D01*
X65507282Y64458149D01*
X65666924Y64666197D01*
X65798043Y64893303D01*
X65898398Y65135581D01*
X65966270Y65388884D01*
X66000500Y65648880D01*
X66000500Y65911120D01*
X65966270Y66171116D01*
X65898398Y66424419D01*
X65898394Y66424429D01*
X65798046Y66666691D01*
X65798041Y66666701D01*
X65666924Y66893804D01*
X65507281Y67101852D01*
X65507274Y67101860D01*
X65321860Y67287274D01*
X65321851Y67287282D01*
X65113803Y67446925D01*
X64886700Y67578042D01*
X64886690Y67578047D01*
X64644428Y67678395D01*
X64644421Y67678397D01*
X64644419Y67678398D01*
X64391116Y67746270D01*
X64333339Y67753877D01*
X64131127Y67780500D01*
X64131120Y67780500D01*
X61699996Y67780500D01*
X61632957Y67800185D01*
X61612315Y67816819D01*
X59636819Y69792315D01*
X59603334Y69853638D01*
X59600500Y69879996D01*
X59600500Y70860005D01*
X62194953Y70860005D01*
X62194953Y70859996D01*
X62215113Y70590974D01*
X62215113Y70590972D01*
X62275142Y70327967D01*
X62275148Y70327948D01*
X62373709Y70076819D01*
X62373708Y70076819D01*
X62508602Y69843178D01*
X62562294Y69775849D01*
X63398957Y70612513D01*
X63423978Y70552110D01*
X63495112Y70445649D01*
X63585649Y70355112D01*
X63692110Y70283978D01*
X63752510Y70258959D01*
X62914848Y69421298D01*
X63097483Y69296780D01*
X63097485Y69296779D01*
X63340539Y69179731D01*
X63340537Y69179731D01*
X63598337Y69100210D01*
X63598343Y69100208D01*
X63865101Y69060001D01*
X63865110Y69060000D01*
X64134890Y69060000D01*
X64134898Y69060001D01*
X64401656Y69100208D01*
X64401662Y69100210D01*
X64659461Y69179731D01*
X64902521Y69296782D01*
X65085150Y69421298D01*
X64247488Y70258959D01*
X64307890Y70283978D01*
X64414351Y70355112D01*
X64504888Y70445649D01*
X64576022Y70552110D01*
X64601041Y70612512D01*
X65437703Y69775849D01*
X65437704Y69775850D01*
X65491393Y69843172D01*
X65491400Y69843183D01*
X65626290Y70076819D01*
X65724851Y70327948D01*
X65724857Y70327967D01*
X65784886Y70590972D01*
X65784886Y70590974D01*
X65805047Y70859996D01*
X65805047Y70860005D01*
X65784886Y71129027D01*
X65784886Y71129029D01*
X65724857Y71392034D01*
X65724851Y71392053D01*
X65626290Y71643182D01*
X65626291Y71643182D01*
X65491397Y71876823D01*
X65437704Y71944153D01*
X64601041Y71107490D01*
X64576022Y71167890D01*
X64504888Y71274351D01*
X64414351Y71364888D01*
X64307890Y71436022D01*
X64247488Y71461042D01*
X65085150Y72298704D01*
X64902517Y72423221D01*
X64902516Y72423222D01*
X64659460Y72540270D01*
X64659462Y72540270D01*
X64401662Y72619791D01*
X64401656Y72619793D01*
X64134898Y72660000D01*
X63865101Y72660000D01*
X63598343Y72619793D01*
X63598337Y72619791D01*
X63340538Y72540270D01*
X63097485Y72423222D01*
X63097476Y72423217D01*
X62914848Y72298704D01*
X63752511Y71461042D01*
X63692110Y71436022D01*
X63585649Y71364888D01*
X63495112Y71274351D01*
X63423978Y71167890D01*
X63398958Y71107489D01*
X62562295Y71944152D01*
X62508600Y71876820D01*
X62373709Y71643182D01*
X62275148Y71392053D01*
X62275142Y71392034D01*
X62215113Y71129029D01*
X62215113Y71129027D01*
X62194953Y70860005D01*
X59600500Y70860005D01*
X59600500Y72520004D01*
X59620185Y72587043D01*
X59636819Y72607685D01*
X60932316Y73903181D01*
X60993639Y73936666D01*
X61019997Y73939500D01*
X64131113Y73939500D01*
X64131120Y73939500D01*
X64391116Y73973730D01*
X64644419Y74041602D01*
X64828737Y74117949D01*
X64886690Y74141954D01*
X64886691Y74141955D01*
X64886697Y74141957D01*
X65113803Y74273076D01*
X65321851Y74432718D01*
X65321855Y74432723D01*
X65321860Y74432726D01*
X65507274Y74618140D01*
X65507277Y74618145D01*
X65507282Y74618149D01*
X65666924Y74826197D01*
X65798043Y75053303D01*
X65898398Y75295581D01*
X65966270Y75548884D01*
X66000500Y75808880D01*
X66000500Y76071120D01*
X65966270Y76331116D01*
X65898398Y76584419D01*
X65897481Y76586632D01*
X65798046Y76826691D01*
X65798041Y76826701D01*
X65666924Y77053804D01*
X65544424Y77213446D01*
X65507282Y77261851D01*
X65507281Y77261852D01*
X65507274Y77261860D01*
X65321860Y77447274D01*
X65321851Y77447282D01*
X65113803Y77606925D01*
X64886700Y77738042D01*
X64886690Y77738047D01*
X64644428Y77838395D01*
X64644421Y77838397D01*
X64644419Y77838398D01*
X64391116Y77906270D01*
X64333339Y77913877D01*
X64131127Y77940500D01*
X64131120Y77940500D01*
X60008880Y77940500D01*
X60008872Y77940500D01*
X59878882Y77923385D01*
X59878881Y77923385D01*
X59748887Y77906272D01*
X59505728Y77841117D01*
X59505727Y77841118D01*
X59495587Y77838401D01*
X59253309Y77738046D01*
X59253299Y77738042D01*
X59026196Y77606925D01*
X58923058Y77527782D01*
X58923057Y77527781D01*
X58818145Y77447281D01*
X58818140Y77447277D01*
X56092721Y74721857D01*
X56092715Y74721850D01*
X56037968Y74650501D01*
X55933075Y74513803D01*
X55812910Y74305671D01*
X55812911Y74305670D01*
X55801985Y74286745D01*
X55801957Y74286697D01*
X55755416Y74174337D01*
X55701602Y74044420D01*
X55633729Y73791118D01*
X55633729Y73791116D01*
X55628410Y73750702D01*
X55628409Y73750698D01*
X55628408Y73750694D01*
X55599500Y73531128D01*
X44887599Y73531128D01*
X44261448Y74157279D01*
X44261441Y74157285D01*
X44136839Y74252895D01*
X44136837Y74252897D01*
X44053394Y74316925D01*
X43826292Y74448042D01*
X43826282Y74448046D01*
X43584011Y74548398D01*
X43484792Y74574984D01*
X43330708Y74616271D01*
X43330707Y74616272D01*
X43330704Y74616272D01*
X43200710Y74633385D01*
X43070719Y74650500D01*
X43070712Y74650500D01*
X36704588Y74650500D01*
X36637549Y74670185D01*
X36616907Y74686819D01*
X35371819Y75931907D01*
X35338334Y75993230D01*
X35335500Y76019588D01*
X35335500Y84738814D01*
X35335499Y84738828D01*
X35318385Y84868818D01*
X35318385Y84868819D01*
X35301271Y84998813D01*
X35301271Y84998816D01*
X35233398Y85252119D01*
X35133043Y85494397D01*
X35123745Y85510501D01*
X35001924Y85721503D01*
X34938552Y85804091D01*
X34896104Y85859411D01*
X34896100Y85859414D01*
X34842282Y85929552D01*
X34842278Y85929557D01*
X34713007Y86058828D01*
X35584500Y86058828D01*
X35584500Y76768873D01*
X35608494Y76586632D01*
X35618730Y76508884D01*
X35654267Y76376258D01*
X35686602Y76255582D01*
X35686605Y76255572D01*
X35786953Y76013310D01*
X35786956Y76013305D01*
X35786957Y76013303D01*
X35812982Y75968226D01*
X35918075Y75786197D01*
X36077718Y75578149D01*
X36077726Y75578140D01*
X36263140Y75392726D01*
X36263145Y75392722D01*
X36263149Y75392718D01*
X36281789Y75378415D01*
X36471196Y75233076D01*
X36698299Y75101959D01*
X36698309Y75101954D01*
X36923995Y75008472D01*
X36940581Y75001602D01*
X37193884Y74933730D01*
X37453880Y74899500D01*
X37453887Y74899500D01*
X37716113Y74899500D01*
X37716120Y74899500D01*
X37976116Y74933730D01*
X38229419Y75001602D01*
X38471697Y75101957D01*
X38698803Y75233076D01*
X38906851Y75392718D01*
X38906855Y75392723D01*
X38906860Y75392726D01*
X39092274Y75578140D01*
X39092277Y75578145D01*
X39092282Y75578149D01*
X39251924Y75786197D01*
X39383043Y76013303D01*
X39399050Y76051946D01*
X39473815Y76232446D01*
X39483398Y76255581D01*
X39551270Y76508884D01*
X39585500Y76768880D01*
X39585500Y77031121D01*
X43204501Y77031121D01*
X43204501Y76768880D01*
X43238728Y76508888D01*
X43306602Y76255581D01*
X43390950Y76051946D01*
X43406957Y76013303D01*
X43453951Y75931907D01*
X43538075Y75786199D01*
X43697715Y75578151D01*
X43697721Y75578144D01*
X43883143Y75392722D01*
X43883150Y75392716D01*
X44091198Y75233076D01*
X44318299Y75101959D01*
X44318300Y75101959D01*
X44318303Y75101957D01*
X44560581Y75001602D01*
X44813884Y74933729D01*
X45008881Y74908058D01*
X45073879Y74899501D01*
X45073880Y74899501D01*
X45336121Y74899501D01*
X45388119Y74906347D01*
X45596116Y74933729D01*
X45849419Y75001602D01*
X46091697Y75101957D01*
X46318802Y75233076D01*
X46526851Y75392717D01*
X50197315Y79063181D01*
X50258638Y79096666D01*
X50284996Y79099500D01*
X63421740Y79099500D01*
X63453833Y79095275D01*
X63520685Y79077362D01*
X63608884Y79053729D01*
X63738882Y79036615D01*
X63868879Y79019501D01*
X63868880Y79019501D01*
X64131120Y79019501D01*
X64183118Y79026347D01*
X64391116Y79053729D01*
X64644419Y79121602D01*
X64886697Y79221957D01*
X65113802Y79353076D01*
X65321851Y79512717D01*
X65507283Y79698149D01*
X65666924Y79906198D01*
X65798043Y80133303D01*
X65898398Y80375581D01*
X65966271Y80628884D01*
X66000499Y80888881D01*
X66000499Y81151120D01*
X65966271Y81411116D01*
X65898398Y81664419D01*
X65798043Y81906697D01*
X65666924Y82133802D01*
X65507284Y82341850D01*
X65507278Y82341857D01*
X65241856Y82607279D01*
X65241849Y82607285D01*
X65108897Y82709302D01*
X65108895Y82709304D01*
X65033802Y82766925D01*
X64806700Y82898042D01*
X64806685Y82898049D01*
X64564419Y82998398D01*
X64510980Y83012717D01*
X64311112Y83066272D01*
X64181118Y83083385D01*
X64051127Y83100500D01*
X64051120Y83100500D01*
X49273880Y83100500D01*
X49273879Y83100500D01*
X49135853Y83082330D01*
X49135853Y83082329D01*
X49114056Y83079460D01*
X49013887Y83066272D01*
X48814020Y83012717D01*
X48760580Y82998398D01*
X48518314Y82898049D01*
X48518299Y82898042D01*
X48291197Y82766925D01*
X48216102Y82709302D01*
X48083150Y82607285D01*
X48083143Y82607279D01*
X43697721Y78221857D01*
X43697715Y78221850D01*
X43538075Y78013802D01*
X43406958Y77786701D01*
X43406954Y77786691D01*
X43306602Y77544420D01*
X43238728Y77291113D01*
X43204501Y77031121D01*
X39585500Y77031121D01*
X39585500Y85047704D01*
X39605185Y85114743D01*
X39621819Y85135385D01*
X42549615Y88063181D01*
X42610938Y88096666D01*
X42637296Y88099500D01*
X43244462Y88099500D01*
X43311501Y88079815D01*
X43357256Y88027011D01*
X43367200Y87957853D01*
X43338175Y87894297D01*
X43306462Y87868113D01*
X43131197Y87766925D01*
X43027172Y87687103D01*
X42923145Y87607281D01*
X42923140Y87607277D01*
X41157721Y85841857D01*
X41157715Y85841850D01*
X40998075Y85633802D01*
X40866958Y85406701D01*
X40866954Y85406691D01*
X40766602Y85164420D01*
X40698728Y84911113D01*
X40664501Y84651121D01*
X40664501Y84388880D01*
X40698090Y84133731D01*
X40698729Y84128884D01*
X40707362Y84096666D01*
X40766602Y83875581D01*
X40866954Y83633310D01*
X40866958Y83633300D01*
X40998075Y83406199D01*
X41157715Y83198151D01*
X41157721Y83198144D01*
X41343143Y83012722D01*
X41343150Y83012716D01*
X41551198Y82853076D01*
X41778299Y82721959D01*
X41778300Y82721959D01*
X41778303Y82721957D01*
X42020581Y82621602D01*
X42273884Y82553729D01*
X42468881Y82528058D01*
X42533879Y82519501D01*
X42533880Y82519501D01*
X42796121Y82519501D01*
X42848119Y82526347D01*
X43056116Y82553729D01*
X43309419Y82621602D01*
X43551697Y82721957D01*
X43778802Y82853076D01*
X43986851Y83012717D01*
X44483634Y83509500D01*
X45037316Y84063181D01*
X45098639Y84096666D01*
X45124997Y84099500D01*
X64131113Y84099500D01*
X64131120Y84099500D01*
X64391116Y84133730D01*
X64644419Y84201602D01*
X64857979Y84290063D01*
X64905432Y84299501D01*
X65347871Y84299501D01*
X65347872Y84299501D01*
X65407483Y84305909D01*
X65542331Y84356204D01*
X65657546Y84442454D01*
X65743796Y84557669D01*
X65794091Y84692517D01*
X65800500Y84752127D01*
X65800499Y85194571D01*
X65809938Y85242023D01*
X65814120Y85252119D01*
X65898398Y85455581D01*
X65966270Y85708884D01*
X66000500Y85968880D01*
X66000500Y86231120D01*
X65966270Y86491116D01*
X65898398Y86744419D01*
X65869412Y86814397D01*
X65809938Y86957981D01*
X65800499Y87005434D01*
X65800499Y87447871D01*
X65800498Y87447877D01*
X65794091Y87507484D01*
X65743797Y87642329D01*
X65743793Y87642336D01*
X65657547Y87757545D01*
X65657544Y87757548D01*
X65542335Y87843794D01*
X65542328Y87843798D01*
X65407482Y87894092D01*
X65407483Y87894092D01*
X65347883Y87900499D01*
X65347881Y87900500D01*
X65347873Y87900500D01*
X65347865Y87900500D01*
X64905430Y87900500D01*
X64857977Y87909939D01*
X64644419Y87998398D01*
X64391116Y88066270D01*
X64333339Y88073877D01*
X64131127Y88100500D01*
X64131120Y88100500D01*
X44600538Y88100500D01*
X44533499Y88120185D01*
X44487744Y88172989D01*
X44477800Y88242147D01*
X44506825Y88305703D01*
X44538538Y88331887D01*
X44713803Y88433076D01*
X44921851Y88592718D01*
X44921855Y88592723D01*
X44921860Y88592726D01*
X45107274Y88778140D01*
X45107277Y88778145D01*
X45107282Y88778149D01*
X45266924Y88986197D01*
X45398043Y89213303D01*
X45498398Y89455581D01*
X45566270Y89708884D01*
X45600500Y89968880D01*
X45600500Y95231120D01*
X45566270Y95491116D01*
X45498398Y95744419D01*
X45469705Y95813691D01*
X45398046Y95986691D01*
X45398041Y95986701D01*
X45266924Y96213804D01*
X45107281Y96421852D01*
X45107274Y96421860D01*
X44921860Y96607274D01*
X44921851Y96607282D01*
X44713803Y96766925D01*
X44486700Y96898042D01*
X44486690Y96898047D01*
X44244428Y96998395D01*
X44244421Y96998397D01*
X44244419Y96998398D01*
X43991116Y97066270D01*
X43933339Y97073877D01*
X43731127Y97100500D01*
X43731120Y97100500D01*
X43468880Y97100500D01*
X43468872Y97100500D01*
X43237772Y97070074D01*
X43208884Y97066270D01*
X42972178Y97002845D01*
X42955581Y96998398D01*
X42955571Y96998395D01*
X42713309Y96898047D01*
X42713299Y96898042D01*
X42486196Y96766925D01*
X42278148Y96607282D01*
X42092718Y96421852D01*
X41933075Y96213804D01*
X41801958Y95986701D01*
X41801953Y95986691D01*
X41701605Y95744429D01*
X41701602Y95744419D01*
X41633730Y95491115D01*
X41599500Y95231128D01*
X41599500Y92205732D01*
X41579815Y92138693D01*
X41527011Y92092938D01*
X41491685Y92082793D01*
X41366187Y92066272D01*
X41112880Y91998398D01*
X40870609Y91898046D01*
X40870599Y91898042D01*
X40643497Y91766925D01*
X40510629Y91664973D01*
X40510630Y91664972D01*
X40435441Y91607277D01*
X40435440Y91607275D01*
X36077721Y87249557D01*
X36077715Y87249550D01*
X35987388Y87131832D01*
X35944240Y87075602D01*
X35918074Y87041501D01*
X35886435Y86986698D01*
X35886434Y86986697D01*
X35786958Y86814401D01*
X35786954Y86814391D01*
X35686602Y86572120D01*
X35618728Y86318813D01*
X35601615Y86188819D01*
X35601615Y86188818D01*
X35584500Y86058828D01*
X34713007Y86058828D01*
X29164556Y91607279D01*
X29164549Y91607285D01*
X29036618Y91705449D01*
X29036617Y91705450D01*
X28956503Y91766925D01*
X28729400Y91898042D01*
X28729390Y91898046D01*
X28487119Y91998398D01*
X28233812Y92066272D01*
X28103818Y92083385D01*
X27973827Y92100500D01*
X27973820Y92100500D01*
X27924500Y92100500D01*
X27857461Y92120185D01*
X27811706Y92172989D01*
X27800500Y92224500D01*
X27800500Y95231114D01*
X27800499Y95231128D01*
X27777520Y95405663D01*
X27766270Y95491116D01*
X27698398Y95744419D01*
X27669705Y95813691D01*
X27598046Y95986691D01*
X27598041Y95986701D01*
X27466924Y96213804D01*
X27307281Y96421852D01*
X27307274Y96421860D01*
X27121860Y96607274D01*
X27121851Y96607282D01*
X26913803Y96766925D01*
X26686700Y96898042D01*
X26686690Y96898047D01*
X26444428Y96998395D01*
X26444421Y96998397D01*
X26444419Y96998398D01*
X26191116Y97066270D01*
X26133339Y97073877D01*
X25931127Y97100500D01*
X25931120Y97100500D01*
X25668880Y97100500D01*
X25668872Y97100500D01*
X25437772Y97070074D01*
X25408884Y97066270D01*
X25172178Y97002845D01*
X25155581Y96998398D01*
X25155571Y96998395D01*
X24913309Y96898047D01*
X24913299Y96898042D01*
X24686196Y96766925D01*
X24478148Y96607282D01*
X24292718Y96421852D01*
X24133075Y96213804D01*
X24001958Y95986701D01*
X24001953Y95986691D01*
X23901605Y95744429D01*
X23901602Y95744419D01*
X23833730Y95491115D01*
X23799500Y95231128D01*
X9375500Y95231128D01*
X9375500Y97800500D01*
X9395185Y97867539D01*
X9447989Y97913294D01*
X9499500Y97924500D01*
X61460265Y97924500D01*
X61527304Y97904815D01*
G37*
%TD.AperFunction*%
%TD*%
M02*
