%TF.GenerationSoftware,KiCad,Pcbnew,8.0.5*%
%TF.CreationDate,2024-09-29T22:12:38-04:00*%
%TF.ProjectId,BREAD_Slice,42524541-445f-4536-9c69-63652e6b6963,rev?*%
%TF.SameCoordinates,PX74eba40PY8552dc0*%
%TF.FileFunction,Copper,L1,Top*%
%TF.FilePolarity,Positive*%
%FSLAX46Y46*%
G04 Gerber Fmt 4.6, Leading zero omitted, Abs format (unit mm)*
G04 Created by KiCad (PCBNEW 8.0.5) date 2024-09-29 22:12:38*
%MOMM*%
%LPD*%
G01*
G04 APERTURE LIST*
G04 Aperture macros list*
%AMRoundRect*
0 Rectangle with rounded corners*
0 $1 Rounding radius*
0 $2 $3 $4 $5 $6 $7 $8 $9 X,Y pos of 4 corners*
0 Add a 4 corners polygon primitive as box body*
4,1,4,$2,$3,$4,$5,$6,$7,$8,$9,$2,$3,0*
0 Add four circle primitives for the rounded corners*
1,1,$1+$1,$2,$3*
1,1,$1+$1,$4,$5*
1,1,$1+$1,$6,$7*
1,1,$1+$1,$8,$9*
0 Add four rect primitives between the rounded corners*
20,1,$1+$1,$2,$3,$4,$5,0*
20,1,$1+$1,$4,$5,$6,$7,0*
20,1,$1+$1,$6,$7,$8,$9,0*
20,1,$1+$1,$8,$9,$2,$3,0*%
G04 Aperture macros list end*
%TA.AperFunction,ComponentPad*%
%ADD10R,1.600000X1.600000*%
%TD*%
%TA.AperFunction,ComponentPad*%
%ADD11O,1.600000X1.600000*%
%TD*%
%TA.AperFunction,ComponentPad*%
%ADD12R,1.700000X1.700000*%
%TD*%
%TA.AperFunction,ComponentPad*%
%ADD13O,1.700000X1.700000*%
%TD*%
%TA.AperFunction,SMDPad,CuDef*%
%ADD14RoundRect,1.000000X-5.000000X-5.000000X5.000000X-5.000000X5.000000X5.000000X-5.000000X5.000000X0*%
%TD*%
%TA.AperFunction,ComponentPad*%
%ADD15R,2.200000X2.200000*%
%TD*%
%TA.AperFunction,ComponentPad*%
%ADD16C,2.200000*%
%TD*%
%TA.AperFunction,ComponentPad*%
%ADD17RoundRect,0.550000X-0.550000X-0.550000X0.550000X-0.550000X0.550000X0.550000X-0.550000X0.550000X0*%
%TD*%
%TA.AperFunction,ComponentPad*%
%ADD18R,2.300000X2.300000*%
%TD*%
%TA.AperFunction,ComponentPad*%
%ADD19C,2.300000*%
%TD*%
%TA.AperFunction,SMDPad,CuDef*%
%ADD20R,1.651000X1.000000*%
%TD*%
%TA.AperFunction,ComponentPad*%
%ADD21R,2.600000X2.600000*%
%TD*%
%TA.AperFunction,ComponentPad*%
%ADD22C,2.600000*%
%TD*%
%TA.AperFunction,ViaPad*%
%ADD23C,0.800000*%
%TD*%
%TA.AperFunction,ViaPad*%
%ADD24C,0.500000*%
%TD*%
%TA.AperFunction,ViaPad*%
%ADD25C,1.500000*%
%TD*%
%TA.AperFunction,Conductor*%
%ADD26C,0.500000*%
%TD*%
%TA.AperFunction,Conductor*%
%ADD27C,1.500000*%
%TD*%
%TA.AperFunction,Conductor*%
%ADD28C,1.000000*%
%TD*%
%TA.AperFunction,Conductor*%
%ADD29C,3.000000*%
%TD*%
G04 APERTURE END LIST*
D10*
%TO.P,A1,1,D1/TX*%
%TO.N,unconnected-(A1-D1{slash}TX-Pad1)*%
X12400000Y39800000D03*
D11*
%TO.P,A1,2,D0/RX*%
%TO.N,unconnected-(A1-D0{slash}RX-Pad2)*%
X12400000Y37260000D03*
%TO.P,A1,3,~{RESET}*%
%TO.N,unconnected-(A1-~{RESET}-Pad3)*%
X12400000Y34720000D03*
%TO.P,A1,4,GND*%
%TO.N,GND*%
X12400000Y32180000D03*
%TO.P,A1,5,D2*%
%TO.N,/E_STOP*%
X12400000Y29640000D03*
%TO.P,A1,6,D3*%
%TO.N,/INT*%
X12400000Y27100000D03*
%TO.P,A1,7,D4*%
%TO.N,/SYNC*%
X12400000Y24560000D03*
%TO.P,A1,8,D5*%
%TO.N,/LED*%
X12400000Y22020000D03*
%TO.P,A1,9,D6*%
%TO.N,/Relay1*%
X12400000Y19480000D03*
%TO.P,A1,10,D7*%
%TO.N,/Relay2*%
X12400000Y16940000D03*
%TO.P,A1,11,D8*%
%TO.N,unconnected-(A1-D8-Pad11)*%
X12400000Y14400000D03*
%TO.P,A1,12,D9*%
%TO.N,unconnected-(A1-D9-Pad12)*%
X12400000Y11860000D03*
%TO.P,A1,13,D10*%
%TO.N,/SS1*%
X12400000Y9320000D03*
%TO.P,A1,14,D11*%
%TO.N,/TC_DATA*%
X12400000Y6780000D03*
%TO.P,A1,15,D12*%
%TO.N,/SS2*%
X12400000Y4240000D03*
%TO.P,A1,16,D13*%
%TO.N,/TC_CLK*%
X27640000Y4240000D03*
%TO.P,A1,17,3V3*%
%TO.N,unconnected-(A1-3V3-Pad17)*%
X27640000Y6780000D03*
%TO.P,A1,18,AREF*%
%TO.N,unconnected-(A1-AREF-Pad18)*%
X27640000Y9320000D03*
%TO.P,A1,19,A0*%
%TO.N,unconnected-(A1-A0-Pad19)*%
X27640000Y11860000D03*
%TO.P,A1,20,A1*%
%TO.N,unconnected-(A1-A1-Pad20)*%
X27640000Y14400000D03*
%TO.P,A1,21,A2*%
%TO.N,unconnected-(A1-A2-Pad21)*%
X27640000Y16940000D03*
%TO.P,A1,22,A3*%
%TO.N,unconnected-(A1-A3-Pad22)*%
X27640000Y19480000D03*
%TO.P,A1,23,A4*%
%TO.N,/I2C_DAT*%
X27640000Y22020000D03*
%TO.P,A1,24,A5*%
%TO.N,/I2C_TC_CLK*%
X27640000Y24560000D03*
%TO.P,A1,25,A6*%
%TO.N,unconnected-(A1-A6-Pad25)*%
X27640000Y27100000D03*
%TO.P,A1,26,A7*%
%TO.N,unconnected-(A1-A7-Pad26)*%
X27640000Y29640000D03*
%TO.P,A1,27,+5V*%
%TO.N,+5V*%
X27640000Y32180000D03*
%TO.P,A1,28,~{RESET}*%
%TO.N,unconnected-(A1-~{RESET}-Pad28)*%
X27640000Y34720000D03*
%TO.P,A1,29,GND*%
%TO.N,GND*%
X27640000Y37260000D03*
%TO.P,A1,30,VIN*%
%TO.N,unconnected-(A1-VIN-Pad30)*%
X27640000Y39800000D03*
%TD*%
D12*
%TO.P,J2,1,Pin_1*%
%TO.N,GND*%
X3600000Y61450000D03*
D13*
%TO.P,J2,2,Pin_2*%
%TO.N,+12V*%
X3600000Y58910000D03*
%TO.P,J2,3,Pin_3*%
%TO.N,/I2C_TC_CLK*%
X3600000Y56370000D03*
%TO.P,J2,4,Pin_4*%
%TO.N,/I2C_DAT*%
X3600000Y53830000D03*
%TO.P,J2,5,Pin_5*%
%TO.N,GND*%
X3600000Y51290000D03*
%TO.P,J2,6,Pin_6*%
%TO.N,/E_STOP*%
X3600000Y48750000D03*
%TO.P,J2,7,Pin_7*%
%TO.N,/INT*%
X3600000Y46210000D03*
%TO.P,J2,8,Pin_8*%
%TO.N,/SYNC*%
X3600000Y43670000D03*
%TO.P,J2,9,Pin_9*%
%TO.N,+12V*%
X3600000Y41130000D03*
%TO.P,J2,10,Pin_10*%
%TO.N,GND*%
X3600000Y38590000D03*
%TD*%
D10*
%TO.P,D3,1,K*%
%TO.N,+12V*%
X23400000Y57910000D03*
D11*
%TO.P,D3,2,A*%
%TO.N,Net-(D3-A)*%
X23400000Y50290000D03*
%TD*%
D14*
%TO.P,HS1,1*%
%TO.N,GND*%
X12700000Y77100000D03*
%TD*%
D15*
%TO.P,J3,1,Pin_1*%
%TO.N,/MAX31855K/T+*%
X63500000Y20800000D03*
D16*
%TO.P,J3,2,Pin_2*%
%TO.N,/MAX31855K/T-*%
X63500000Y23340000D03*
%TD*%
D17*
%TO.P,F2,1*%
%TO.N,Net-(J6-Pin_6)*%
X24700000Y66900000D03*
X24700000Y61900000D03*
D16*
%TO.P,F2,2*%
%TO.N,/Relay1/IN*%
X42500000Y66900000D03*
X42500000Y61900000D03*
%TD*%
D18*
%TO.P,K2,1*%
%TO.N,Net-(D3-A)*%
X27425000Y50300000D03*
D19*
%TO.P,K2,2*%
%TO.N,/Relay1/IN*%
X37585000Y50300000D03*
%TO.P,K2,3*%
%TO.N,/Relay1/NO*%
X45205000Y50300000D03*
%TO.P,K2,4*%
%TO.N,/Relay1/NC*%
X42665000Y57920000D03*
%TO.P,K2,5*%
%TO.N,+12V*%
X27425000Y57920000D03*
%TD*%
D20*
%TO.P,D1,1,VDD*%
%TO.N,+5V*%
X48123000Y5267231D03*
%TO.P,D1,2,DOUT*%
%TO.N,unconnected-(D1-DOUT-Pad2)*%
X48123000Y2067231D03*
%TO.P,D1,3,VSS*%
%TO.N,GND*%
X53277000Y2067231D03*
%TO.P,D1,4,DIN*%
%TO.N,/LED*%
X53277000Y5267231D03*
%TD*%
D17*
%TO.P,F1,1*%
%TO.N,Net-(J5-Pin_6)*%
X25800000Y95100000D03*
X25800000Y90100000D03*
D16*
%TO.P,F1,2*%
%TO.N,/Relay/IN*%
X43600000Y95100000D03*
X43600000Y90100000D03*
%TD*%
D10*
%TO.P,D2,1,K*%
%TO.N,+12V*%
X23400000Y84510000D03*
D11*
%TO.P,D2,2,A*%
%TO.N,Net-(D2-A)*%
X23400000Y76890000D03*
%TD*%
D21*
%TO.P,J5,1,Pin_1*%
%TO.N,/Relay/NC*%
X64000000Y86100000D03*
D22*
%TO.P,J5,2,Pin_2*%
%TO.N,/Relay/NO*%
X64000000Y81020000D03*
%TO.P,J5,3,Pin_3*%
%TO.N,Net-(J5-Pin_3)*%
X64000000Y75940000D03*
%TO.P,J5,4,Pin_4*%
%TO.N,GND*%
X64000000Y70860000D03*
%TO.P,J5,5,Pin_5*%
%TO.N,Net-(J5-Pin_3)*%
X64000000Y65780000D03*
%TO.P,J5,6,Pin_6*%
%TO.N,Net-(J5-Pin_6)*%
X64000000Y60700000D03*
%TD*%
D15*
%TO.P,J4,1,Pin_1*%
%TO.N,/MAX31855K1/T+*%
X63500000Y12960000D03*
D16*
%TO.P,J4,2,Pin_2*%
%TO.N,/MAX31855K1/T-*%
X63500000Y15500000D03*
%TD*%
D18*
%TO.P,K1,1*%
%TO.N,Net-(D2-A)*%
X27425000Y76900000D03*
D19*
%TO.P,K1,2*%
%TO.N,/Relay/IN*%
X37585000Y76900000D03*
%TO.P,K1,3*%
%TO.N,/Relay/NO*%
X45205000Y76900000D03*
%TO.P,K1,4*%
%TO.N,/Relay/NC*%
X42665000Y84520000D03*
%TO.P,K1,5*%
%TO.N,+12V*%
X27425000Y84520000D03*
%TD*%
D21*
%TO.P,J6,1,Pin_1*%
%TO.N,/Relay1/NC*%
X63995000Y54200000D03*
D22*
%TO.P,J6,2,Pin_2*%
%TO.N,/Relay1/NO*%
X63995000Y49120000D03*
%TO.P,J6,3,Pin_3*%
%TO.N,Net-(J6-Pin_3)*%
X63995000Y44040000D03*
%TO.P,J6,4,Pin_4*%
%TO.N,GND*%
X63995000Y38960000D03*
%TO.P,J6,5,Pin_5*%
%TO.N,Net-(J6-Pin_3)*%
X63995000Y33880000D03*
%TO.P,J6,6,Pin_6*%
%TO.N,Net-(J6-Pin_6)*%
X63995000Y28800000D03*
%TD*%
D23*
%TO.N,GND*%
X18200000Y77650000D03*
X18200000Y80550000D03*
D24*
X12100000Y77500000D03*
D23*
X7700000Y72000000D03*
X7500000Y75250000D03*
D24*
X12500000Y79700000D03*
X11200000Y77500000D03*
D23*
X11300000Y82250000D03*
X50200000Y2100000D03*
D24*
X11400000Y80500000D03*
X13700000Y80500000D03*
X10100000Y74800000D03*
D23*
X18200000Y72650000D03*
D24*
X12500000Y78400000D03*
D23*
%TO.N,+5V*%
X46200000Y6300000D03*
D25*
X16600000Y51100000D03*
D23*
X20500000Y3249500D03*
%TO.N,/I2C_TC_CLK*%
X18500000Y7200000D03*
X23800000Y24500000D03*
%TO.N,/I2C_DAT*%
X23800000Y22000000D03*
X19600000Y7200000D03*
%TD*%
D26*
%TO.N,GND*%
X50200000Y2100000D02*
X50232769Y2067231D01*
X50232769Y2067231D02*
X53277000Y2067231D01*
%TO.N,+5V*%
X21849500Y1900000D02*
X44310050Y1900000D01*
D27*
X27620000Y32180000D02*
X27640000Y32180000D01*
D26*
X20500000Y3249500D02*
X21849500Y1900000D01*
D27*
X16600000Y51100000D02*
X25300000Y42400000D01*
D26*
X44310050Y1900000D02*
X47677281Y5267231D01*
X47232769Y5267231D02*
X46200000Y6300000D01*
D27*
X25300000Y34500000D02*
X27620000Y32180000D01*
D26*
X48123000Y5267231D02*
X47232769Y5267231D01*
D27*
X25300000Y42400000D02*
X25300000Y34500000D01*
D26*
X47677281Y5267231D02*
X48123000Y5267231D01*
%TO.N,/LED*%
X19800000Y1200000D02*
X44600000Y1200000D01*
X12400000Y22020000D02*
X12480000Y22020000D01*
X44600000Y1200000D02*
X47000000Y3600000D01*
X51609769Y3600000D02*
X53277000Y5267231D01*
X14100000Y20400000D02*
X14100000Y6900000D01*
X47000000Y3600000D02*
X51609769Y3600000D01*
X14100000Y6900000D02*
X19800000Y1200000D01*
X12480000Y22020000D02*
X14100000Y20400000D01*
%TO.N,/I2C_TC_CLK*%
X27640000Y24560000D02*
X24100000Y28100000D01*
X24100000Y41900000D02*
X9630000Y56370000D01*
X18500000Y7200000D02*
X18500000Y19200000D01*
X9630000Y56370000D02*
X3600000Y56370000D01*
X18500000Y19200000D02*
X23800000Y24500000D01*
X24100000Y28100000D02*
X24100000Y41900000D01*
%TO.N,/I2C_DAT*%
X27640000Y22020000D02*
X23400000Y26260000D01*
X19600000Y17800000D02*
X19600000Y7200000D01*
X23800000Y22000000D02*
X19600000Y17800000D01*
X11180050Y53830000D02*
X3600000Y53830000D01*
X23400000Y41610050D02*
X11180050Y53830000D01*
X23400000Y26260000D02*
X23400000Y41610050D01*
%TO.N,/SYNC*%
X5800000Y31160000D02*
X12400000Y24560000D01*
X5800000Y41470000D02*
X5800000Y31160000D01*
X3600000Y43670000D02*
X5800000Y41470000D01*
%TO.N,/E_STOP*%
X4250000Y48750000D02*
X7200000Y45800000D01*
X7200000Y45800000D02*
X7200000Y34840000D01*
X3600000Y48750000D02*
X4250000Y48750000D01*
X7200000Y34840000D02*
X12400000Y29640000D01*
D27*
%TO.N,+12V*%
X3594415Y58910000D02*
X1800000Y57115585D01*
D28*
X23400000Y84500000D02*
X23400000Y84510000D01*
X23390000Y57900000D02*
X23400000Y57910000D01*
X23400000Y84510000D02*
X20200000Y81310000D01*
X23400000Y57910000D02*
X23400000Y57900000D01*
X22410000Y58900000D02*
X23400000Y57910000D01*
X20200000Y61110000D02*
X23400000Y57910000D01*
D27*
X3600000Y58910000D02*
X3594415Y58910000D01*
X1800000Y57115585D02*
X1800000Y42924415D01*
D28*
X3600000Y58910000D02*
X3610000Y58900000D01*
D27*
X1800000Y42924415D02*
X3594415Y41130000D01*
X3594415Y41130000D02*
X3600000Y41130000D01*
D28*
X20200000Y81310000D02*
X20200000Y61110000D01*
X23400000Y84510000D02*
X27415000Y84510000D01*
X23400000Y57910000D02*
X27415000Y57910000D01*
D26*
%TO.N,/INT*%
X6500000Y43310000D02*
X6500000Y33000000D01*
X3600000Y46210000D02*
X6500000Y43310000D01*
X6500000Y33000000D02*
X12400000Y27100000D01*
D28*
%TO.N,Net-(D2-A)*%
X23400000Y76890000D02*
X27415000Y76890000D01*
%TO.N,Net-(D3-A)*%
X23400000Y50290000D02*
X27415000Y50290000D01*
D29*
%TO.N,Net-(J6-Pin_6)*%
X43300000Y45600000D02*
X36300000Y45600000D01*
X33335000Y48565000D02*
X33335000Y57907700D01*
X36300000Y45600000D02*
X33335000Y48565000D01*
X33335000Y57907700D02*
X29342700Y61900000D01*
X29342700Y61900000D02*
X24700000Y61900000D01*
X60100000Y28800000D02*
X43300000Y45600000D01*
X24700000Y61900000D02*
X24700000Y66900000D01*
X63995000Y28800000D02*
X60100000Y28800000D01*
%TO.N,/Relay/IN*%
X43600000Y90100000D02*
X43600000Y95100000D01*
X37585000Y85927700D02*
X41757300Y90100000D01*
X37585000Y76900000D02*
X37585000Y85927700D01*
X41757300Y90100000D02*
X43600000Y90100000D01*
%TO.N,/Relay1/IN*%
X37585000Y59227700D02*
X37585000Y50300000D01*
X40257300Y61900000D02*
X37585000Y59227700D01*
X42500000Y61900000D02*
X42500000Y66900000D01*
X42500000Y61900000D02*
X40257300Y61900000D01*
%TO.N,/Relay/NO*%
X49405000Y81100000D02*
X45205000Y76900000D01*
X64000000Y81020000D02*
X63920000Y81100000D01*
X63920000Y81100000D02*
X49405000Y81100000D01*
%TO.N,/Relay/NC*%
X64000000Y86100000D02*
X44245000Y86100000D01*
X44245000Y86100000D02*
X42665000Y84520000D01*
%TO.N,Net-(J6-Pin_3)*%
X60740000Y44040000D02*
X58800000Y42100000D01*
X58800000Y42100000D02*
X58800000Y36750000D01*
X61670000Y33880000D02*
X63995000Y33880000D01*
X63995000Y44040000D02*
X60740000Y44040000D01*
X58800000Y36750000D02*
X61670000Y33880000D01*
%TO.N,/Relay1/NC*%
X62095000Y56100000D02*
X63995000Y54200000D01*
X42665000Y57920000D02*
X44485000Y56100000D01*
X44485000Y56100000D02*
X62095000Y56100000D01*
%TO.N,/Relay1/NO*%
X46005000Y51100000D02*
X45205000Y50300000D01*
X62015000Y51100000D02*
X46005000Y51100000D01*
X63995000Y49120000D02*
X62015000Y51100000D01*
%TO.N,Net-(J5-Pin_6)*%
X25800000Y90100000D02*
X25800000Y95100000D01*
X64000000Y60700000D02*
X63600000Y61100000D01*
X33335000Y75139592D02*
X33335000Y84607700D01*
X63600000Y61100000D02*
X54500000Y61100000D01*
X33335000Y84607700D02*
X27842700Y90100000D01*
X42950000Y72650000D02*
X35824592Y72650000D01*
X54500000Y61100000D02*
X42950000Y72650000D01*
X27842700Y90100000D02*
X25800000Y90100000D01*
X35824592Y72650000D02*
X33335000Y75139592D01*
%TO.N,Net-(J5-Pin_3)*%
X57600000Y73400000D02*
X57600000Y69000000D01*
X57600000Y69000000D02*
X60820000Y65780000D01*
X64000000Y75940000D02*
X60140000Y75940000D01*
X60820000Y65780000D02*
X64000000Y65780000D01*
X60140000Y75940000D02*
X57600000Y73400000D01*
%TD*%
M02*
