%TF.GenerationSoftware,KiCad,Pcbnew,8.0.5*%
%TF.CreationDate,2024-09-29T22:12:38-04:00*%
%TF.ProjectId,BREAD_Slice,42524541-445f-4536-9c69-63652e6b6963,rev?*%
%TF.SameCoordinates,PX74eba40PY8552dc0*%
%TF.FileFunction,Paste,Bot*%
%TF.FilePolarity,Positive*%
%FSLAX46Y46*%
G04 Gerber Fmt 4.6, Leading zero omitted, Abs format (unit mm)*
G04 Created by KiCad (PCBNEW 8.0.5) date 2024-09-29 22:12:38*
%MOMM*%
%LPD*%
G01*
G04 APERTURE LIST*
G04 Aperture macros list*
%AMRoundRect*
0 Rectangle with rounded corners*
0 $1 Rounding radius*
0 $2 $3 $4 $5 $6 $7 $8 $9 X,Y pos of 4 corners*
0 Add a 4 corners polygon primitive as box body*
4,1,4,$2,$3,$4,$5,$6,$7,$8,$9,$2,$3,0*
0 Add four circle primitives for the rounded corners*
1,1,$1+$1,$2,$3*
1,1,$1+$1,$4,$5*
1,1,$1+$1,$6,$7*
1,1,$1+$1,$8,$9*
0 Add four rect primitives between the rounded corners*
20,1,$1+$1,$2,$3,$4,$5,0*
20,1,$1+$1,$4,$5,$6,$7,0*
20,1,$1+$1,$6,$7,$8,$9,0*
20,1,$1+$1,$8,$9,$2,$3,0*%
G04 Aperture macros list end*
%ADD10RoundRect,0.150000X0.662500X0.150000X-0.662500X0.150000X-0.662500X-0.150000X0.662500X-0.150000X0*%
%ADD11RoundRect,0.250000X0.625000X-0.400000X0.625000X0.400000X-0.625000X0.400000X-0.625000X-0.400000X0*%
%ADD12RoundRect,0.150000X0.150000X0.625000X-0.150000X0.625000X-0.150000X-0.625000X0.150000X-0.625000X0*%
%ADD13RoundRect,0.250000X0.350000X0.650000X-0.350000X0.650000X-0.350000X-0.650000X0.350000X-0.650000X0*%
%ADD14RoundRect,0.250000X-0.400000X-0.625000X0.400000X-0.625000X0.400000X0.625000X-0.400000X0.625000X0*%
%ADD15RoundRect,0.250000X-0.325000X-0.650000X0.325000X-0.650000X0.325000X0.650000X-0.325000X0.650000X0*%
%ADD16RoundRect,0.250000X-0.625000X0.400000X-0.625000X-0.400000X0.625000X-0.400000X0.625000X0.400000X0*%
%ADD17RoundRect,0.150000X0.825000X0.150000X-0.825000X0.150000X-0.825000X-0.150000X0.825000X-0.150000X0*%
%ADD18RoundRect,0.250000X0.650000X-0.412500X0.650000X0.412500X-0.650000X0.412500X-0.650000X-0.412500X0*%
%ADD19RoundRect,0.250000X-0.375000X-1.075000X0.375000X-1.075000X0.375000X1.075000X-0.375000X1.075000X0*%
%ADD20RoundRect,0.250000X0.325000X0.650000X-0.325000X0.650000X-0.325000X-0.650000X0.325000X-0.650000X0*%
%ADD21RoundRect,0.150000X-0.512500X-0.150000X0.512500X-0.150000X0.512500X0.150000X-0.512500X0.150000X0*%
%ADD22RoundRect,0.250000X0.400000X0.625000X-0.400000X0.625000X-0.400000X-0.625000X0.400000X-0.625000X0*%
G04 APERTURE END LIST*
D10*
%TO.C,U4*%
X28187500Y73535000D03*
X28187500Y72265000D03*
X21812500Y72265000D03*
X21812500Y73535000D03*
%TD*%
D11*
%TO.C,R3*%
X40183810Y8660000D03*
X40183810Y11760000D03*
%TD*%
%TO.C,R2*%
X37400000Y29400000D03*
X37400000Y32500000D03*
%TD*%
D12*
%TO.C,J1*%
X21510000Y5400000D03*
X20510000Y5400000D03*
X19510000Y5400000D03*
X18510000Y5400000D03*
D13*
X22810000Y1525000D03*
X17210000Y1525000D03*
%TD*%
D14*
%TO.C,FB3*%
X50283810Y14210000D03*
X53383810Y14210000D03*
%TD*%
D15*
%TO.C,C3*%
X13725000Y79000000D03*
X16675000Y79000000D03*
%TD*%
D16*
%TO.C,R4*%
X37583810Y13260000D03*
X37583810Y10160000D03*
%TD*%
D14*
%TO.C,FB4*%
X50283810Y16900000D03*
X53383810Y16900000D03*
%TD*%
%TO.C,R5*%
X21650000Y69900000D03*
X24750000Y69900000D03*
%TD*%
D17*
%TO.C,U3*%
X45258810Y17415000D03*
X45258810Y16145000D03*
X45258810Y14875000D03*
X45258810Y13605000D03*
X40308810Y13605000D03*
X40308810Y14875000D03*
X40308810Y16145000D03*
X40308810Y17415000D03*
%TD*%
D18*
%TO.C,C5*%
X47950000Y25737500D03*
X47950000Y28862500D03*
%TD*%
D15*
%TO.C,C4*%
X13725000Y82000000D03*
X16675000Y82000000D03*
%TD*%
D14*
%TO.C,R6*%
X21650000Y43300000D03*
X24750000Y43300000D03*
%TD*%
D19*
%TO.C,L1*%
X13800000Y75700000D03*
X16600000Y75700000D03*
%TD*%
D20*
%TO.C,C1*%
X11375000Y79000000D03*
X8425000Y79000000D03*
%TD*%
D14*
%TO.C,FB2*%
X50200000Y28700000D03*
X53300000Y28700000D03*
%TD*%
D10*
%TO.C,U5*%
X28187500Y46735000D03*
X28187500Y45465000D03*
X21812500Y45465000D03*
X21812500Y46735000D03*
%TD*%
D17*
%TO.C,U2*%
X45175000Y29215000D03*
X45175000Y27945000D03*
X45175000Y26675000D03*
X45175000Y25405000D03*
X40225000Y25405000D03*
X40225000Y26675000D03*
X40225000Y27945000D03*
X40225000Y29215000D03*
%TD*%
D21*
%TO.C,U1*%
X8962500Y74750000D03*
X8962500Y75700000D03*
X8962500Y76650000D03*
X11237500Y76650000D03*
X11237500Y75700000D03*
X11237500Y74750000D03*
%TD*%
D14*
%TO.C,FB1*%
X50200000Y26010000D03*
X53300000Y26010000D03*
%TD*%
D20*
%TO.C,C2*%
X13975000Y72200000D03*
X11025000Y72200000D03*
%TD*%
D22*
%TO.C,R1*%
X43750000Y23200000D03*
X40650000Y23200000D03*
%TD*%
D18*
%TO.C,C6*%
X48033810Y13937500D03*
X48033810Y17062500D03*
%TD*%
M02*
